%TF.GenerationSoftware,KiCad,Pcbnew,(6.0.4)*%
%TF.CreationDate,2022-05-21T22:33:24-04:00*%
%TF.ProjectId,pertec_arduino_adapter,70657274-6563-45f6-9172-6475696e6f5f,A*%
%TF.SameCoordinates,Original*%
%TF.FileFunction,Copper,L4,Bot*%
%TF.FilePolarity,Positive*%
%FSLAX46Y46*%
G04 Gerber Fmt 4.6, Leading zero omitted, Abs format (unit mm)*
G04 Created by KiCad (PCBNEW (6.0.4)) date 2022-05-21 22:33:24*
%MOMM*%
%LPD*%
G01*
G04 APERTURE LIST*
G04 Aperture macros list*
%AMRoundRect*
0 Rectangle with rounded corners*
0 $1 Rounding radius*
0 $2 $3 $4 $5 $6 $7 $8 $9 X,Y pos of 4 corners*
0 Add a 4 corners polygon primitive as box body*
4,1,4,$2,$3,$4,$5,$6,$7,$8,$9,$2,$3,0*
0 Add four circle primitives for the rounded corners*
1,1,$1+$1,$2,$3*
1,1,$1+$1,$4,$5*
1,1,$1+$1,$6,$7*
1,1,$1+$1,$8,$9*
0 Add four rect primitives between the rounded corners*
20,1,$1+$1,$2,$3,$4,$5,0*
20,1,$1+$1,$4,$5,$6,$7,0*
20,1,$1+$1,$6,$7,$8,$9,0*
20,1,$1+$1,$8,$9,$2,$3,0*%
G04 Aperture macros list end*
%TA.AperFunction,ComponentPad*%
%ADD10RoundRect,0.250500X-0.499500X0.499500X-0.499500X-0.499500X0.499500X-0.499500X0.499500X0.499500X0*%
%TD*%
%TA.AperFunction,ComponentPad*%
%ADD11C,1.500000*%
%TD*%
%TA.AperFunction,ComponentPad*%
%ADD12C,2.500000*%
%TD*%
%TA.AperFunction,ComponentPad*%
%ADD13R,1.700000X1.700000*%
%TD*%
%TA.AperFunction,ComponentPad*%
%ADD14O,1.700000X1.700000*%
%TD*%
%TA.AperFunction,ComponentPad*%
%ADD15RoundRect,0.250000X0.600000X-0.600000X0.600000X0.600000X-0.600000X0.600000X-0.600000X-0.600000X0*%
%TD*%
%TA.AperFunction,ComponentPad*%
%ADD16C,1.700000*%
%TD*%
%TA.AperFunction,ComponentPad*%
%ADD17R,1.350000X1.350000*%
%TD*%
%TA.AperFunction,ComponentPad*%
%ADD18O,1.350000X1.350000*%
%TD*%
%TA.AperFunction,ComponentPad*%
%ADD19R,1.600000X1.600000*%
%TD*%
%TA.AperFunction,ComponentPad*%
%ADD20O,1.600000X1.600000*%
%TD*%
%TA.AperFunction,ComponentPad*%
%ADD21C,1.600000*%
%TD*%
%TA.AperFunction,ComponentPad*%
%ADD22RoundRect,0.250000X-0.600000X0.600000X-0.600000X-0.600000X0.600000X-0.600000X0.600000X0.600000X0*%
%TD*%
%TA.AperFunction,SMDPad,CuDef*%
%ADD23RoundRect,0.250000X0.350000X0.450000X-0.350000X0.450000X-0.350000X-0.450000X0.350000X-0.450000X0*%
%TD*%
%TA.AperFunction,SMDPad,CuDef*%
%ADD24RoundRect,0.250000X0.337500X0.475000X-0.337500X0.475000X-0.337500X-0.475000X0.337500X-0.475000X0*%
%TD*%
%TA.AperFunction,SMDPad,CuDef*%
%ADD25RoundRect,0.150000X-0.150000X0.875000X-0.150000X-0.875000X0.150000X-0.875000X0.150000X0.875000X0*%
%TD*%
%TA.AperFunction,SMDPad,CuDef*%
%ADD26RoundRect,0.250000X-0.350000X-0.450000X0.350000X-0.450000X0.350000X0.450000X-0.350000X0.450000X0*%
%TD*%
%TA.AperFunction,SMDPad,CuDef*%
%ADD27RoundRect,0.150000X-0.150000X0.837500X-0.150000X-0.837500X0.150000X-0.837500X0.150000X0.837500X0*%
%TD*%
%TA.AperFunction,SMDPad,CuDef*%
%ADD28RoundRect,0.250000X-0.337500X-0.475000X0.337500X-0.475000X0.337500X0.475000X-0.337500X0.475000X0*%
%TD*%
%TA.AperFunction,SMDPad,CuDef*%
%ADD29RoundRect,0.150000X0.150000X-0.587500X0.150000X0.587500X-0.150000X0.587500X-0.150000X-0.587500X0*%
%TD*%
%TA.AperFunction,SMDPad,CuDef*%
%ADD30RoundRect,0.150000X0.150000X-0.837500X0.150000X0.837500X-0.150000X0.837500X-0.150000X-0.837500X0*%
%TD*%
%TA.AperFunction,SMDPad,CuDef*%
%ADD31RoundRect,0.250000X0.475000X-0.337500X0.475000X0.337500X-0.475000X0.337500X-0.475000X-0.337500X0*%
%TD*%
%TA.AperFunction,SMDPad,CuDef*%
%ADD32RoundRect,0.250000X-0.475000X0.337500X-0.475000X-0.337500X0.475000X-0.337500X0.475000X0.337500X0*%
%TD*%
%TA.AperFunction,ViaPad*%
%ADD33C,0.800000*%
%TD*%
%TA.AperFunction,Conductor*%
%ADD34C,0.508000*%
%TD*%
%TA.AperFunction,Conductor*%
%ADD35C,0.250000*%
%TD*%
G04 APERTURE END LIST*
D10*
%TO.P,J7,1,TX+*%
%TO.N,ETHERNET_TP*%
X104140000Y-67945000D03*
D11*
%TO.P,J7,2,TXC*%
%TO.N,Net-(C1-Pad1)*%
X106680000Y-69215000D03*
%TO.P,J7,3,TX-*%
%TO.N,ETHERNET_TM*%
X104140000Y-70485000D03*
%TO.P,J7,4,RX+*%
%TO.N,ETHERNET_RP*%
X106680000Y-71755000D03*
%TO.P,J7,5,RXC*%
%TO.N,Net-(C1-Pad1)*%
X104140000Y-73025000D03*
%TO.P,J7,6,RX-*%
%TO.N,ETHERNET_RM*%
X106680000Y-74295000D03*
%TO.P,J7,7,NC*%
%TO.N,unconnected-(J7-Pad7)*%
X104140000Y-75565000D03*
%TO.P,J7,8,GND*%
%TO.N,ETHERNET_G*%
X106680000Y-76835000D03*
%TO.P,J7,9,LEDG_K*%
X92710000Y-66065000D03*
%TO.P,J7,10,LEDG_A*%
%TO.N,ETHERNET_LED*%
X94410000Y-68605000D03*
%TO.P,J7,11,LEDY_K*%
%TO.N,unconnected-(J7-Pad11)*%
X92710000Y-76175000D03*
%TO.P,J7,12,LEDY_A*%
%TO.N,unconnected-(J7-Pad12)*%
X94410000Y-78715000D03*
D12*
%TO.P,J7,13,SHIELD*%
%TO.N,ETHERNET_G*%
X100840000Y-80265000D03*
X100840000Y-64515000D03*
%TD*%
D13*
%TO.P,J4,1,Pin_1*%
%TO.N,+5V*%
X90170000Y-87630000D03*
D14*
%TO.P,J4,2,Pin_2*%
%TO.N,GNDREF*%
X92710000Y-87630000D03*
%TO.P,J4,3,Pin_3*%
%TO.N,+3V3*%
X95250000Y-87630000D03*
%TO.P,J4,4,Pin_4*%
%TO.N,LVIW6*%
X97790000Y-87630000D03*
%TO.P,J4,5,Pin_5*%
%TO.N,LVIW7*%
X100330000Y-87630000D03*
%TO.P,J4,6,Pin_6*%
%TO.N,LVIW4*%
X102870000Y-87630000D03*
%TO.P,J4,7,Pin_7*%
%TO.N,LVIW5*%
X105410000Y-87630000D03*
%TO.P,J4,8,Pin_8*%
%TO.N,LVIR7*%
X107950000Y-87630000D03*
%TO.P,J4,9,Pin_9*%
%TO.N,LVIR6*%
X110490000Y-87630000D03*
%TO.P,J4,10,Pin_10*%
%TO.N,LVIR1*%
X113030000Y-87630000D03*
%TO.P,J4,11,Pin_11*%
%TO.N,LVIR0*%
X115570000Y-87630000D03*
%TO.P,J4,12,Pin_12*%
%TO.N,LVIR4*%
X118110000Y-87630000D03*
%TO.P,J4,13,Pin_13*%
%TO.N,LVIR5*%
X120650000Y-87630000D03*
%TO.P,J4,14,Pin_14*%
%TO.N,LVILWD*%
X123190000Y-87630000D03*
%TO.P,J4,15,Pin_15*%
%TO.N,GNDREF*%
X125730000Y-87630000D03*
%TO.P,J4,16,Pin_16*%
%TO.N,LVIR2*%
X128270000Y-87630000D03*
%TO.P,J4,17,Pin_17*%
%TO.N,LVIR3*%
X130810000Y-87630000D03*
%TO.P,J4,18,Pin_18*%
%TO.N,LVIW2*%
X133350000Y-87630000D03*
%TO.P,J4,19,Pin_19*%
%TO.N,LVIW3*%
X135890000Y-87630000D03*
%TO.P,J4,20,Pin_20*%
%TO.N,LVIWSTR*%
X138430000Y-87630000D03*
%TO.P,J4,21,Pin_21*%
%TO.N,LVIRSTR*%
X140970000Y-87630000D03*
%TO.P,J4,22,Pin_22*%
%TO.N,LVIHER*%
X143510000Y-87630000D03*
%TO.P,J4,23,Pin_23*%
%TO.N,LVICER*%
X146050000Y-87630000D03*
%TO.P,J4,24,Pin_24*%
%TO.N,LVIFBY*%
X148590000Y-87630000D03*
%TD*%
D13*
%TO.P,JP1,1,A*%
%TO.N,Net-(JP1-Pad1)*%
X115570000Y-121545766D03*
D14*
%TO.P,JP1,2,C*%
%TO.N,ISGL*%
X113030000Y-121545766D03*
%TO.P,JP1,3,B*%
%TO.N,Net-(JP1-Pad3)*%
X110490000Y-121545766D03*
%TD*%
D15*
%TO.P,J1,1,Pin_1*%
%TO.N,GNDREF*%
X100325000Y-133985000D03*
D16*
%TO.P,J1,2,Pin_2*%
%TO.N,IFBY*%
X100325000Y-131445000D03*
%TO.P,J1,3,Pin_3*%
%TO.N,GNDREF*%
X102865000Y-133985000D03*
%TO.P,J1,4,Pin_4*%
%TO.N,ILWD*%
X102865000Y-131445000D03*
%TO.P,J1,5,Pin_5*%
%TO.N,GNDREF*%
X105405000Y-133985000D03*
%TO.P,J1,6,Pin_6*%
%TO.N,IW4*%
X105405000Y-131445000D03*
%TO.P,J1,7,Pin_7*%
%TO.N,GNDREF*%
X107945000Y-133985000D03*
%TO.P,J1,8,Pin_8*%
%TO.N,IGO*%
X107945000Y-131445000D03*
%TO.P,J1,9,Pin_9*%
%TO.N,GNDREF*%
X110485000Y-133985000D03*
%TO.P,J1,10,Pin_10*%
%TO.N,IW0*%
X110485000Y-131445000D03*
%TO.P,J1,11,Pin_11*%
%TO.N,GNDREF*%
X113025000Y-133985000D03*
%TO.P,J1,12,Pin_12*%
%TO.N,IW1*%
X113025000Y-131445000D03*
%TO.P,J1,13,Pin_13*%
%TO.N,GNDREF*%
X115565000Y-133985000D03*
%TO.P,J1,14,Pin_14*%
%TO.N,ISGL*%
X115565000Y-131445000D03*
%TO.P,J1,15,Pin_15*%
%TO.N,GNDREF*%
X118105000Y-133985000D03*
%TO.P,J1,16,Pin_16*%
%TO.N,ILOL*%
X118105000Y-131445000D03*
%TO.P,J1,17,Pin_17*%
%TO.N,GNDREF*%
X120645000Y-133985000D03*
%TO.P,J1,18,Pin_18*%
%TO.N,IREV*%
X120645000Y-131445000D03*
%TO.P,J1,19,Pin_19*%
%TO.N,GNDREF*%
X123185000Y-133985000D03*
%TO.P,J1,20,Pin_20*%
%TO.N,IREW*%
X123185000Y-131445000D03*
%TO.P,J1,21,Pin_21*%
%TO.N,GNDREF*%
X125725000Y-133985000D03*
%TO.P,J1,22,Pin_22*%
%TO.N,IWP*%
X125725000Y-131445000D03*
%TO.P,J1,23,Pin_23*%
%TO.N,GNDREF*%
X128265000Y-133985000D03*
%TO.P,J1,24,Pin_24*%
%TO.N,IW7*%
X128265000Y-131445000D03*
%TO.P,J1,25,Pin_25*%
%TO.N,GNDREF*%
X130805000Y-133985000D03*
%TO.P,J1,26,Pin_26*%
%TO.N,IW3*%
X130805000Y-131445000D03*
%TO.P,J1,27,Pin_27*%
%TO.N,GNDREF*%
X133345000Y-133985000D03*
%TO.P,J1,28,Pin_28*%
%TO.N,IW6*%
X133345000Y-131445000D03*
%TO.P,J1,29,Pin_29*%
%TO.N,GNDREF*%
X135885000Y-133985000D03*
%TO.P,J1,30,Pin_30*%
%TO.N,IW2*%
X135885000Y-131445000D03*
%TO.P,J1,31,Pin_31*%
%TO.N,GNDREF*%
X138425000Y-133985000D03*
%TO.P,J1,32,Pin_32*%
%TO.N,IW5*%
X138425000Y-131445000D03*
%TO.P,J1,33,Pin_33*%
%TO.N,GNDREF*%
X140965000Y-133985000D03*
%TO.P,J1,34,Pin_34*%
%TO.N,IWRT*%
X140965000Y-131445000D03*
%TO.P,J1,35,Pin_35*%
%TO.N,GNDREF*%
X143505000Y-133985000D03*
%TO.P,J1,36,Pin_36*%
%TO.N,IRTH2*%
X143505000Y-131445000D03*
%TO.P,J1,37,Pin_37*%
%TO.N,GNDREF*%
X146045000Y-133985000D03*
%TO.P,J1,38,Pin_38*%
%TO.N,IEDIT*%
X146045000Y-131445000D03*
%TO.P,J1,39,Pin_39*%
%TO.N,GNDREF*%
X148585000Y-133985000D03*
%TO.P,J1,40,Pin_40*%
%TO.N,IERASE*%
X148585000Y-131445000D03*
%TO.P,J1,41,Pin_41*%
%TO.N,GNDREF*%
X151125000Y-133985000D03*
%TO.P,J1,42,Pin_42*%
%TO.N,IWFM*%
X151125000Y-131445000D03*
%TO.P,J1,43,Pin_43*%
%TO.N,GNDREF*%
X153665000Y-133985000D03*
%TO.P,J1,44,Pin_44*%
%TO.N,IRTH1*%
X153665000Y-131445000D03*
%TO.P,J1,45,Pin_45*%
%TO.N,GNDREF*%
X156205000Y-133985000D03*
%TO.P,J1,46,Pin_46*%
%TO.N,ITAD0*%
X156205000Y-131445000D03*
%TO.P,J1,47,Pin_47*%
%TO.N,GNDREF*%
X158745000Y-133985000D03*
%TO.P,J1,48,Pin_48*%
%TO.N,IR2*%
X158745000Y-131445000D03*
%TO.P,J1,49,Pin_49*%
%TO.N,GNDREF*%
X161285000Y-133985000D03*
%TO.P,J1,50,Pin_50*%
%TO.N,IR3*%
X161285000Y-131445000D03*
%TD*%
D17*
%TO.P,J3,1,Pin_1*%
%TO.N,ETHERNET_TM*%
X103108000Y-90080000D03*
D18*
%TO.P,J3,2,Pin_2*%
%TO.N,ETHERNET_TP*%
X105108000Y-90080000D03*
%TO.P,J3,3,Pin_3*%
%TO.N,ETHERNET_LED*%
X103108000Y-92080000D03*
%TO.P,J3,4,Pin_4*%
%TO.N,ETHERNET_G*%
X105108000Y-92080000D03*
%TO.P,J3,5,Pin_5*%
%TO.N,ETHERNET_RP*%
X103108000Y-94080000D03*
%TO.P,J3,6,Pin_6*%
%TO.N,ETHERNET_RM*%
X105108000Y-94080000D03*
%TD*%
D19*
%TO.P,RN5,1,1*%
%TO.N,GNDREF*%
X93345000Y-125095000D03*
D20*
%TO.P,RN5,2,2*%
%TO.N,ILWD*%
X95885000Y-125095000D03*
%TO.P,RN5,3,3*%
%TO.N,IW4*%
X98425000Y-125095000D03*
%TO.P,RN5,4,4*%
%TO.N,IGO*%
X100965000Y-125095000D03*
%TO.P,RN5,5,5*%
%TO.N,IW0*%
X103505000Y-125095000D03*
%TO.P,RN5,6,6*%
%TO.N,IW1*%
X106045000Y-125095000D03*
%TO.P,RN5,7,7*%
%TO.N,Net-(JP1-Pad3)*%
X108585000Y-125095000D03*
%TO.P,RN5,8,8*%
%TO.N,ILOL*%
X111125000Y-125095000D03*
%TO.P,RN5,9,9*%
%TO.N,IREV*%
X113665000Y-125095000D03*
%TO.P,RN5,10,10*%
%TO.N,+5V*%
X116205000Y-125095000D03*
%TD*%
D13*
%TO.P,J5,1,Pin_1*%
%TO.N,GNDREF*%
X90180000Y-102845000D03*
D14*
%TO.P,J5,2,Pin_2*%
%TO.N,LVIFMK*%
X92720000Y-102845000D03*
%TO.P,J5,3,Pin_3*%
%TO.N,LVIRP*%
X95260000Y-102845000D03*
%TO.P,J5,4,Pin_4*%
%TO.N,LVIRDY*%
X97800000Y-102845000D03*
%TO.P,J5,5,Pin_5*%
%TO.N,DIRA*%
X100340000Y-102845000D03*
%TO.P,J5,6,Pin_6*%
%TO.N,LVIDBY*%
X102880000Y-102845000D03*
%TO.P,J5,7,Pin_7*%
%TO.N,~{LPI2C4_INT}*%
X105420000Y-102845000D03*
%TO.P,J5,8,Pin_8*%
%TO.N,LVIGO*%
X107960000Y-102845000D03*
%TO.P,J5,9,Pin_9*%
%TO.N,LVIWP*%
X110500000Y-102845000D03*
%TO.P,J5,10,Pin_10*%
%TO.N,LVIREW*%
X113040000Y-102845000D03*
%TO.P,J5,11,Pin_11*%
%TO.N,LVIREV*%
X115580000Y-102845000D03*
%TO.P,J5,12,Pin_12*%
%TO.N,LVIWRT*%
X118120000Y-102845000D03*
%TO.P,J5,13,Pin_13*%
%TO.N,LVIEDIT*%
X120660000Y-102845000D03*
%TO.P,J5,14,Pin_14*%
%TO.N,LVIERASE*%
X123200000Y-102845000D03*
%TO.P,J5,15,Pin_15*%
%TO.N,+3V3*%
X125740000Y-102845000D03*
%TO.P,J5,16,Pin_16*%
%TO.N,LPI2C4_SCL*%
X128280000Y-102845000D03*
%TO.P,J5,17,Pin_17*%
%TO.N,LPI2C4_SDA*%
X130820000Y-102845000D03*
%TO.P,J5,18,Pin_18*%
%TO.N,LVIW1*%
X133360000Y-102845000D03*
%TO.P,J5,19,Pin_19*%
%TO.N,LVIW0*%
X135900000Y-102845000D03*
%TO.P,J5,20,Pin_20*%
%TO.N,DIRB*%
X138440000Y-102845000D03*
%TO.P,J5,21,Pin_21*%
%TO.N,OEA*%
X140980000Y-102845000D03*
%TO.P,J5,22,Pin_22*%
%TO.N,LVIOFL*%
X143520000Y-102845000D03*
%TO.P,J5,23,Pin_23*%
%TO.N,LVIEOT*%
X146060000Y-102845000D03*
%TO.P,J5,24,Pin_24*%
%TO.N,LVIWFM*%
X148600000Y-102845000D03*
%TD*%
D19*
%TO.P,RN8,1,1*%
%TO.N,GNDREF*%
X120650000Y-52070000D03*
D20*
%TO.P,RN8,2,2*%
%TO.N,IFEN*%
X118110000Y-52070000D03*
%TO.P,RN8,3,3*%
%TO.N,IOFL*%
X115570000Y-52070000D03*
%TO.P,RN8,4,4*%
%TO.N,ITAD1*%
X113030000Y-52070000D03*
%TO.P,RN8,5,5*%
%TO.N,IFAD*%
X110490000Y-52070000D03*
%TO.P,RN8,6,6*%
%TO.N,IDEN*%
X107950000Y-52070000D03*
%TO.P,RN8,7,7*%
%TO.N,unconnected-(RN8-Pad7)*%
X105410000Y-52070000D03*
%TO.P,RN8,8,8*%
%TO.N,unconnected-(RN8-Pad8)*%
X102870000Y-52070000D03*
%TO.P,RN8,9,9*%
%TO.N,unconnected-(RN8-Pad9)*%
X100330000Y-52070000D03*
%TO.P,RN8,10,10*%
%TO.N,+5V*%
X97790000Y-52070000D03*
%TD*%
D19*
%TO.P,RN1,1,1*%
%TO.N,GNDREF*%
X170175000Y-58420000D03*
D20*
%TO.P,RN1,2,2*%
%TO.N,IRP*%
X167635000Y-58420000D03*
%TO.P,RN1,3,3*%
%TO.N,IR0*%
X165095000Y-58420000D03*
%TO.P,RN1,4,4*%
%TO.N,IR1*%
X162555000Y-58420000D03*
%TO.P,RN1,5,5*%
%TO.N,ILDP*%
X160015000Y-58420000D03*
%TO.P,RN1,6,6*%
%TO.N,IR4*%
X157475000Y-58420000D03*
%TO.P,RN1,7,7*%
%TO.N,IR7*%
X154935000Y-58420000D03*
%TO.P,RN1,8,8*%
%TO.N,IR6*%
X152395000Y-58420000D03*
%TO.P,RN1,9,9*%
%TO.N,IHER*%
X149855000Y-58420000D03*
%TO.P,RN1,10,10*%
%TO.N,+5V*%
X147315000Y-58420000D03*
%TD*%
D19*
%TO.P,RN4,1,1*%
%TO.N,GNDREF*%
X149860000Y-114935000D03*
D20*
%TO.P,RN4,2,2*%
%TO.N,Net-(JP1-Pad1)*%
X152400000Y-114935000D03*
%TO.P,RN4,3,3*%
%TO.N,IFBY*%
X154940000Y-114935000D03*
%TO.P,RN4,4,4*%
%TO.N,IR2*%
X157480000Y-114935000D03*
%TO.P,RN4,5,5*%
%TO.N,IR3*%
X160020000Y-114935000D03*
%TO.P,RN4,6,6*%
%TO.N,unconnected-(RN4-Pad6)*%
X162560000Y-114935000D03*
%TO.P,RN4,7,7*%
%TO.N,unconnected-(RN4-Pad7)*%
X165100000Y-114935000D03*
%TO.P,RN4,8,8*%
%TO.N,unconnected-(RN4-Pad8)*%
X167640000Y-114935000D03*
%TO.P,RN4,9,9*%
%TO.N,unconnected-(RN4-Pad9)*%
X170180000Y-114935000D03*
%TO.P,RN4,10,10*%
%TO.N,+5V*%
X172720000Y-114935000D03*
%TD*%
D19*
%TO.P,RN7,1,1*%
%TO.N,GNDREF*%
X149860000Y-125095000D03*
D20*
%TO.P,RN7,2,2*%
%TO.N,IRTH2*%
X152400000Y-125095000D03*
%TO.P,RN7,3,3*%
%TO.N,IEDIT*%
X154940000Y-125095000D03*
%TO.P,RN7,4,4*%
%TO.N,IERASE*%
X157480000Y-125095000D03*
%TO.P,RN7,5,5*%
%TO.N,IWFM*%
X160020000Y-125095000D03*
%TO.P,RN7,6,6*%
%TO.N,IRTH1*%
X162560000Y-125095000D03*
%TO.P,RN7,7,7*%
%TO.N,ITAD0*%
X165100000Y-125095000D03*
%TO.P,RN7,8,8*%
%TO.N,unconnected-(RN7-Pad8)*%
X167640000Y-125095000D03*
%TO.P,RN7,9,9*%
%TO.N,unconnected-(RN7-Pad9)*%
X170180000Y-125095000D03*
%TO.P,RN7,10,10*%
%TO.N,+5V*%
X172720000Y-125095000D03*
%TD*%
D21*
%TO.P,C1,1*%
%TO.N,Net-(C1-Pad1)*%
X109855000Y-62230000D03*
%TO.P,C1,2*%
%TO.N,ETHERNET_G*%
X107315000Y-62230000D03*
%TD*%
D19*
%TO.P,RN2,1,1*%
%TO.N,GNDREF*%
X143505000Y-58420000D03*
D20*
%TO.P,RN2,2,2*%
%TO.N,IFMK*%
X140965000Y-58420000D03*
%TO.P,RN2,3,3*%
%TO.N,IDENT*%
X138425000Y-58420000D03*
%TO.P,RN2,4,4*%
%TO.N,IR5*%
X135885000Y-58420000D03*
%TO.P,RN2,5,5*%
%TO.N,IEOT*%
X133345000Y-58420000D03*
%TO.P,RN2,6,6*%
%TO.N,INRZ*%
X130805000Y-58420000D03*
%TO.P,RN2,7,7*%
%TO.N,IRDY*%
X128265000Y-58420000D03*
%TO.P,RN2,8,8*%
%TO.N,IRWD*%
X125725000Y-58420000D03*
%TO.P,RN2,9,9*%
%TO.N,IFPT*%
X123185000Y-58420000D03*
%TO.P,RN2,10,10*%
%TO.N,+5V*%
X120645000Y-58420000D03*
%TD*%
D19*
%TO.P,RN3,1,1*%
%TO.N,GNDREF*%
X116840000Y-58420000D03*
D20*
%TO.P,RN3,2,2*%
%TO.N,IRSTR*%
X114300000Y-58420000D03*
%TO.P,RN3,3,3*%
%TO.N,IWSTR*%
X111760000Y-58420000D03*
%TO.P,RN3,4,4*%
%TO.N,IDBY*%
X109220000Y-58420000D03*
%TO.P,RN3,5,5*%
%TO.N,ISPEED*%
X106680000Y-58420000D03*
%TO.P,RN3,6,6*%
%TO.N,ICER*%
X104140000Y-58420000D03*
%TO.P,RN3,7,7*%
%TO.N,IONL*%
X101600000Y-58420000D03*
%TO.P,RN3,8,8*%
%TO.N,unconnected-(RN3-Pad8)*%
X99060000Y-58420000D03*
%TO.P,RN3,9,9*%
%TO.N,unconnected-(RN3-Pad9)*%
X96520000Y-58420000D03*
%TO.P,RN3,10,10*%
%TO.N,+5V*%
X93980000Y-58420000D03*
%TD*%
D13*
%TO.P,J6,1,Pin_1*%
%TO.N,unconnected-(J6-Pad1)*%
X135915000Y-90200000D03*
D14*
%TO.P,J6,2,Pin_2*%
%TO.N,unconnected-(J6-Pad2)*%
X135915000Y-92740000D03*
%TO.P,J6,3,Pin_3*%
%TO.N,GNDREF*%
X135915000Y-95280000D03*
%TO.P,J6,4,Pin_4*%
%TO.N,+3V3*%
X135915000Y-97820000D03*
%TO.P,J6,5,Pin_5*%
%TO.N,Net-(BT1-Pad1)*%
X135915000Y-100360000D03*
%TD*%
D19*
%TO.P,RN6,1,1*%
%TO.N,GNDREF*%
X121920000Y-125095000D03*
D20*
%TO.P,RN6,2,2*%
%TO.N,IREW*%
X124460000Y-125095000D03*
%TO.P,RN6,3,3*%
%TO.N,IWP*%
X127000000Y-125095000D03*
%TO.P,RN6,4,4*%
%TO.N,IW7*%
X129540000Y-125095000D03*
%TO.P,RN6,5,5*%
%TO.N,IW3*%
X132080000Y-125095000D03*
%TO.P,RN6,6,6*%
%TO.N,IW6*%
X134620000Y-125095000D03*
%TO.P,RN6,7,7*%
%TO.N,IW2*%
X137160000Y-125095000D03*
%TO.P,RN6,8,8*%
%TO.N,IW5*%
X139700000Y-125095000D03*
%TO.P,RN6,9,9*%
%TO.N,IWRT*%
X142240000Y-125095000D03*
%TO.P,RN6,10,10*%
%TO.N,+5V*%
X144780000Y-125095000D03*
%TD*%
D22*
%TO.P,J2,1,Pin_1*%
%TO.N,IRP*%
X162565000Y-42427500D03*
D16*
%TO.P,J2,2,Pin_2*%
%TO.N,IR0*%
X162565000Y-44967500D03*
%TO.P,J2,3,Pin_3*%
%TO.N,IR1*%
X160025000Y-42427500D03*
%TO.P,J2,4,Pin_4*%
%TO.N,ILDP*%
X160025000Y-44967500D03*
%TO.P,J2,5,Pin_5*%
%TO.N,GNDREF*%
X157485000Y-42427500D03*
%TO.P,J2,6,Pin_6*%
%TO.N,IR4*%
X157485000Y-44967500D03*
%TO.P,J2,7,Pin_7*%
%TO.N,GNDREF*%
X154945000Y-42427500D03*
%TO.P,J2,8,Pin_8*%
%TO.N,IR7*%
X154945000Y-44967500D03*
%TO.P,J2,9,Pin_9*%
%TO.N,GNDREF*%
X152405000Y-42427500D03*
%TO.P,J2,10,Pin_10*%
%TO.N,IR6*%
X152405000Y-44967500D03*
%TO.P,J2,11,Pin_11*%
%TO.N,GNDREF*%
X149865000Y-42427500D03*
%TO.P,J2,12,Pin_12*%
%TO.N,IHER*%
X149865000Y-44967500D03*
%TO.P,J2,13,Pin_13*%
%TO.N,GNDREF*%
X147325000Y-42427500D03*
%TO.P,J2,14,Pin_14*%
%TO.N,IFMK*%
X147325000Y-44967500D03*
%TO.P,J2,15,Pin_15*%
%TO.N,GNDREF*%
X144785000Y-42427500D03*
%TO.P,J2,16,Pin_16*%
%TO.N,IDENT*%
X144785000Y-44967500D03*
%TO.P,J2,17,Pin_17*%
%TO.N,GNDREF*%
X142245000Y-42427500D03*
%TO.P,J2,18,Pin_18*%
%TO.N,IFEN*%
X142245000Y-44967500D03*
%TO.P,J2,19,Pin_19*%
%TO.N,GNDREF*%
X139705000Y-42427500D03*
%TO.P,J2,20,Pin_20*%
%TO.N,IR5*%
X139705000Y-44967500D03*
%TO.P,J2,21,Pin_21*%
%TO.N,GNDREF*%
X137165000Y-42427500D03*
%TO.P,J2,22,Pin_22*%
%TO.N,IEOT*%
X137165000Y-44967500D03*
%TO.P,J2,23,Pin_23*%
%TO.N,GNDREF*%
X134625000Y-42427500D03*
%TO.P,J2,24,Pin_24*%
%TO.N,IOFL*%
X134625000Y-44967500D03*
%TO.P,J2,25,Pin_25*%
%TO.N,GNDREF*%
X132085000Y-42427500D03*
%TO.P,J2,26,Pin_26*%
%TO.N,INRZ*%
X132085000Y-44967500D03*
%TO.P,J2,27,Pin_27*%
%TO.N,GNDREF*%
X129545000Y-42427500D03*
%TO.P,J2,28,Pin_28*%
%TO.N,IRDY*%
X129545000Y-44967500D03*
%TO.P,J2,29,Pin_29*%
%TO.N,GNDREF*%
X127005000Y-42427500D03*
%TO.P,J2,30,Pin_30*%
%TO.N,IRWD*%
X127005000Y-44967500D03*
%TO.P,J2,31,Pin_31*%
%TO.N,GNDREF*%
X124465000Y-42427500D03*
%TO.P,J2,32,Pin_32*%
%TO.N,IFPT*%
X124465000Y-44967500D03*
%TO.P,J2,33,Pin_33*%
%TO.N,GNDREF*%
X121925000Y-42427500D03*
%TO.P,J2,34,Pin_34*%
%TO.N,IRSTR*%
X121925000Y-44967500D03*
%TO.P,J2,35,Pin_35*%
%TO.N,GNDREF*%
X119385000Y-42427500D03*
%TO.P,J2,36,Pin_36*%
%TO.N,IWSTR*%
X119385000Y-44967500D03*
%TO.P,J2,37,Pin_37*%
%TO.N,GNDREF*%
X116845000Y-42427500D03*
%TO.P,J2,38,Pin_38*%
%TO.N,IDBY*%
X116845000Y-44967500D03*
%TO.P,J2,39,Pin_39*%
%TO.N,GNDREF*%
X114305000Y-42427500D03*
%TO.P,J2,40,Pin_40*%
%TO.N,ISPEED*%
X114305000Y-44967500D03*
%TO.P,J2,41,Pin_41*%
%TO.N,GNDREF*%
X111765000Y-42427500D03*
%TO.P,J2,42,Pin_42*%
%TO.N,ICER*%
X111765000Y-44967500D03*
%TO.P,J2,43,Pin_43*%
%TO.N,GNDREF*%
X109225000Y-42427500D03*
%TO.P,J2,44,Pin_44*%
%TO.N,IONL*%
X109225000Y-44967500D03*
%TO.P,J2,45,Pin_45*%
%TO.N,GNDREF*%
X106685000Y-42427500D03*
%TO.P,J2,46,Pin_46*%
%TO.N,ITAD1*%
X106685000Y-44967500D03*
%TO.P,J2,47,Pin_47*%
%TO.N,GNDREF*%
X104145000Y-42427500D03*
%TO.P,J2,48,Pin_48*%
%TO.N,IFAD*%
X104145000Y-44967500D03*
%TO.P,J2,49,Pin_49*%
%TO.N,GNDREF*%
X101605000Y-42427500D03*
%TO.P,J2,50,Pin_50*%
%TO.N,IDEN*%
X101605000Y-44967500D03*
%TD*%
D23*
%TO.P,R5,1*%
%TO.N,Net-(R5-Pad1)*%
X120444412Y-61699670D03*
%TO.P,R5,2*%
%TO.N,GNDREF*%
X118444412Y-61699670D03*
%TD*%
%TO.P,R2,1*%
%TO.N,+3V3*%
X122920000Y-97790000D03*
%TO.P,R2,2*%
%TO.N,LPI2C4_SCL*%
X120920000Y-97790000D03*
%TD*%
D24*
%TO.P,C7,1*%
%TO.N,+3V3*%
X121761250Y-110172500D03*
%TO.P,C7,2*%
%TO.N,GNDREF*%
X119538750Y-110172500D03*
%TD*%
%TO.P,C10,1*%
%TO.N,+5V*%
X99060000Y-117475000D03*
%TO.P,C10,2*%
%TO.N,GNDREF*%
X96837500Y-117475000D03*
%TD*%
D25*
%TO.P,U7,1,~{INT}*%
%TO.N,~{LPI2C4_INT}*%
X111125000Y-66357500D03*
%TO.P,U7,2,A1*%
%TO.N,Net-(R6-Pad1)*%
X112395000Y-66357500D03*
%TO.P,U7,3,A2*%
%TO.N,Net-(R5-Pad1)*%
X113665000Y-66357500D03*
%TO.P,U7,4,P00*%
%TO.N,IDENT*%
X114935000Y-66357500D03*
%TO.P,U7,5,P01*%
%TO.N,IRWD*%
X116205000Y-66357500D03*
%TO.P,U7,6,P02*%
%TO.N,ISPEED*%
X117475000Y-66357500D03*
%TO.P,U7,7,P03*%
%TO.N,INRZ*%
X118745000Y-66357500D03*
%TO.P,U7,8,P04*%
%TO.N,ITAD0*%
X120015000Y-66357500D03*
%TO.P,U7,9,P05*%
%TO.N,IFEN*%
X121285000Y-66357500D03*
%TO.P,U7,10,P06*%
%TO.N,ITAD1*%
X122555000Y-66357500D03*
%TO.P,U7,11,P07*%
%TO.N,IFAD*%
X123825000Y-66357500D03*
%TO.P,U7,12,GND*%
%TO.N,GNDREF*%
X125095000Y-66357500D03*
%TO.P,U7,13,P10*%
%TO.N,IDEN*%
X125095000Y-75882500D03*
%TO.P,U7,14,P11*%
%TO.N,ISGL*%
X123825000Y-75882500D03*
%TO.P,U7,15,P12*%
%TO.N,ILOL*%
X122555000Y-75882500D03*
%TO.P,U7,16,P13*%
%TO.N,IRTH2*%
X121285000Y-75882500D03*
%TO.P,U7,17,P14*%
%TO.N,IRTH1*%
X120015000Y-75882500D03*
%TO.P,U7,18,P15*%
%TO.N,IONL*%
X118745000Y-75882500D03*
%TO.P,U7,19,P16*%
%TO.N,ILDP*%
X117475000Y-75882500D03*
%TO.P,U7,20,P17*%
%TO.N,IFPT*%
X116205000Y-75882500D03*
%TO.P,U7,21,A0*%
%TO.N,Net-(R8-Pad1)*%
X114935000Y-75882500D03*
%TO.P,U7,22,SCL*%
%TO.N,Net-(Q2-Pad3)*%
X113665000Y-75882500D03*
%TO.P,U7,23,SDA*%
%TO.N,Net-(Q1-Pad3)*%
X112395000Y-75882500D03*
%TO.P,U7,24,VCC*%
%TO.N,+5V*%
X111125000Y-75882500D03*
%TD*%
D24*
%TO.P,C5,1*%
%TO.N,+3V3*%
X147393750Y-78740000D03*
%TO.P,C5,2*%
%TO.N,GNDREF*%
X145171250Y-78740000D03*
%TD*%
D26*
%TO.P,R8,1*%
%TO.N,Net-(R8-Pad1)*%
X117982252Y-79982087D03*
%TO.P,R8,2*%
%TO.N,GNDREF*%
X119982252Y-79982087D03*
%TD*%
D24*
%TO.P,C3,1*%
%TO.N,+3V3*%
X98901250Y-110172500D03*
%TO.P,C3,2*%
%TO.N,GNDREF*%
X96678750Y-110172500D03*
%TD*%
D27*
%TO.P,U4,1,VCCA*%
%TO.N,+3V3*%
X125095000Y-110490000D03*
%TO.P,U4,2,DIR*%
%TO.N,DIRB*%
X126365000Y-110490000D03*
%TO.P,U4,3,A1*%
%TO.N,LVIW7*%
X127635000Y-110490000D03*
%TO.P,U4,4,A2*%
%TO.N,LVIW3*%
X128905000Y-110490000D03*
%TO.P,U4,5,A3*%
%TO.N,LVIW6*%
X130175000Y-110490000D03*
%TO.P,U4,6,A4*%
%TO.N,LVIW2*%
X131445000Y-110490000D03*
%TO.P,U4,7,A5*%
%TO.N,LVIW5*%
X132715000Y-110490000D03*
%TO.P,U4,8,A6*%
%TO.N,LVIWRT*%
X133985000Y-110490000D03*
%TO.P,U4,9,A7*%
%TO.N,LVIEDIT*%
X135255000Y-110490000D03*
%TO.P,U4,10,A8*%
%TO.N,LVIERASE*%
X136525000Y-110490000D03*
%TO.P,U4,11,GND*%
%TO.N,GNDREF*%
X137795000Y-110490000D03*
%TO.P,U4,12,GND*%
X139065000Y-110490000D03*
%TO.P,U4,13,GND*%
X139065000Y-117475000D03*
%TO.P,U4,14,B8*%
%TO.N,IERASE*%
X137795000Y-117475000D03*
%TO.P,U4,15,B7*%
%TO.N,IEDIT*%
X136525000Y-117475000D03*
%TO.P,U4,16,B6*%
%TO.N,IWRT*%
X135255000Y-117475000D03*
%TO.P,U4,17,B5*%
%TO.N,IW5*%
X133985000Y-117475000D03*
%TO.P,U4,18,B4*%
%TO.N,IW2*%
X132715000Y-117475000D03*
%TO.P,U4,19,B3*%
%TO.N,IW6*%
X131445000Y-117475000D03*
%TO.P,U4,20,B2*%
%TO.N,IW3*%
X130175000Y-117475000D03*
%TO.P,U4,21,B1*%
%TO.N,IW7*%
X128905000Y-117475000D03*
%TO.P,U4,22,~{OE}*%
%TO.N,GNDREF*%
X127635000Y-117475000D03*
%TO.P,U4,23,VCCB*%
%TO.N,+5V*%
X126365000Y-117475000D03*
%TO.P,U4,24,VCCB*%
X125095000Y-117475000D03*
%TD*%
D28*
%TO.P,C14,1*%
%TO.N,+5V*%
X165417500Y-65405000D03*
%TO.P,C14,2*%
%TO.N,GNDREF*%
X167640000Y-65405000D03*
%TD*%
D23*
%TO.P,R1,1*%
%TO.N,+3V3*%
X116570000Y-97790000D03*
%TO.P,R1,2*%
%TO.N,LPI2C4_SDA*%
X114570000Y-97790000D03*
%TD*%
D29*
%TO.P,Q1,1,G*%
%TO.N,+3V3*%
X116522500Y-93662500D03*
%TO.P,Q1,2,S*%
%TO.N,LPI2C4_SDA*%
X114617500Y-93662500D03*
%TO.P,Q1,3,D*%
%TO.N,Net-(Q1-Pad3)*%
X115570000Y-91757500D03*
%TD*%
D30*
%TO.P,U2,1,VCCA*%
%TO.N,+3V3*%
X146685000Y-74612500D03*
%TO.P,U2,2,DIR*%
%TO.N,DIRA*%
X145415000Y-74612500D03*
%TO.P,U2,3,A1*%
%TO.N,LVIFMK*%
X144145000Y-74612500D03*
%TO.P,U2,4,A2*%
%TO.N,LVIR5*%
X142875000Y-74612500D03*
%TO.P,U2,5,A3*%
%TO.N,LVIEOT*%
X141605000Y-74612500D03*
%TO.P,U2,6,A4*%
%TO.N,LVIRDY*%
X140335000Y-74612500D03*
%TO.P,U2,7,A5*%
%TO.N,unconnected-(U2-Pad7)*%
X139065000Y-74612500D03*
%TO.P,U2,8,A6*%
%TO.N,LVIRSTR*%
X137795000Y-74612500D03*
%TO.P,U2,9,A7*%
%TO.N,LVIWSTR*%
X136525000Y-74612500D03*
%TO.P,U2,10,A8*%
%TO.N,LVIDBY*%
X135255000Y-74612500D03*
%TO.P,U2,11,GND*%
%TO.N,GNDREF*%
X133985000Y-74612500D03*
%TO.P,U2,12,GND*%
X132715000Y-74612500D03*
%TO.P,U2,13,GND*%
X132715000Y-67627500D03*
%TO.P,U2,14,B8*%
%TO.N,IDBY*%
X133985000Y-67627500D03*
%TO.P,U2,15,B7*%
%TO.N,IWSTR*%
X135255000Y-67627500D03*
%TO.P,U2,16,B6*%
%TO.N,IRSTR*%
X136525000Y-67627500D03*
%TO.P,U2,17,B5*%
%TO.N,unconnected-(U2-Pad17)*%
X137795000Y-67627500D03*
%TO.P,U2,18,B4*%
%TO.N,IRDY*%
X139065000Y-67627500D03*
%TO.P,U2,19,B3*%
%TO.N,IEOT*%
X140335000Y-67627500D03*
%TO.P,U2,20,B2*%
%TO.N,IR5*%
X141605000Y-67627500D03*
%TO.P,U2,21,B1*%
%TO.N,IFMK*%
X142875000Y-67627500D03*
%TO.P,U2,22,~{OE}*%
%TO.N,OEA*%
X144145000Y-67627500D03*
%TO.P,U2,23,VCCB*%
%TO.N,+5V*%
X145415000Y-67627500D03*
%TO.P,U2,24,VCCB*%
X146685000Y-67627500D03*
%TD*%
D24*
%TO.P,C8,1*%
%TO.N,+5V*%
X121761250Y-117792500D03*
%TO.P,C8,2*%
%TO.N,GNDREF*%
X119538750Y-117792500D03*
%TD*%
D23*
%TO.P,R4,1*%
%TO.N,+5V*%
X129270000Y-91440000D03*
%TO.P,R4,2*%
%TO.N,Net-(Q2-Pad3)*%
X127270000Y-91440000D03*
%TD*%
D26*
%TO.P,R7,1*%
%TO.N,+3V3*%
X102505000Y-97790000D03*
%TO.P,R7,2*%
%TO.N,~{LPI2C4_INT}*%
X104505000Y-97790000D03*
%TD*%
D28*
%TO.P,C11,1*%
%TO.N,+3V3*%
X156601250Y-96520000D03*
%TO.P,C11,2*%
%TO.N,GNDREF*%
X158823750Y-96520000D03*
%TD*%
D30*
%TO.P,U5,1,VCCA*%
%TO.N,+3V3*%
X169545000Y-91122500D03*
%TO.P,U5,2,DIR*%
%TO.N,DIRB*%
X168275000Y-91122500D03*
%TO.P,U5,3,A1*%
%TO.N,unconnected-(U5-Pad3)*%
X167005000Y-91122500D03*
%TO.P,U5,4,A2*%
%TO.N,unconnected-(U5-Pad4)*%
X165735000Y-91122500D03*
%TO.P,U5,5,A3*%
%TO.N,unconnected-(U5-Pad5)*%
X164465000Y-91122500D03*
%TO.P,U5,6,A4*%
%TO.N,unconnected-(U5-Pad6)*%
X163195000Y-91122500D03*
%TO.P,U5,7,A5*%
%TO.N,unconnected-(U5-Pad7)*%
X161925000Y-91122500D03*
%TO.P,U5,8,A6*%
%TO.N,unconnected-(U5-Pad8)*%
X160655000Y-91122500D03*
%TO.P,U5,9,A7*%
%TO.N,LVIWFM*%
X159385000Y-91122500D03*
%TO.P,U5,10,A8*%
%TO.N,LVIOFL*%
X158115000Y-91122500D03*
%TO.P,U5,11,GND*%
%TO.N,GNDREF*%
X156845000Y-91122500D03*
%TO.P,U5,12,GND*%
X155575000Y-91122500D03*
%TO.P,U5,13,GND*%
X155575000Y-84137500D03*
%TO.P,U5,14,B8*%
%TO.N,IOFL*%
X156845000Y-84137500D03*
%TO.P,U5,15,B7*%
%TO.N,IWFM*%
X158115000Y-84137500D03*
%TO.P,U5,16,B6*%
%TO.N,unconnected-(U5-Pad16)*%
X159385000Y-84137500D03*
%TO.P,U5,17,B5*%
%TO.N,unconnected-(U5-Pad17)*%
X160655000Y-84137500D03*
%TO.P,U5,18,B4*%
%TO.N,unconnected-(U5-Pad18)*%
X161925000Y-84137500D03*
%TO.P,U5,19,B3*%
%TO.N,unconnected-(U5-Pad19)*%
X163195000Y-84137500D03*
%TO.P,U5,20,B2*%
%TO.N,unconnected-(U5-Pad20)*%
X164465000Y-84137500D03*
%TO.P,U5,21,B1*%
%TO.N,unconnected-(U5-Pad21)*%
X165735000Y-84137500D03*
%TO.P,U5,22,~{OE}*%
%TO.N,GNDREF*%
X167005000Y-84137500D03*
%TO.P,U5,23,VCCB*%
%TO.N,+5V*%
X168275000Y-84137500D03*
%TO.P,U5,24,VCCB*%
X169545000Y-84137500D03*
%TD*%
D29*
%TO.P,Q2,1,G*%
%TO.N,+3V3*%
X122872500Y-93662500D03*
%TO.P,Q2,2,S*%
%TO.N,LPI2C4_SCL*%
X120967500Y-93662500D03*
%TO.P,Q2,3,D*%
%TO.N,Net-(Q2-Pad3)*%
X121920000Y-91757500D03*
%TD*%
D30*
%TO.P,U1,1,VCCA*%
%TO.N,+3V3*%
X166370000Y-77152500D03*
%TO.P,U1,2,DIR*%
%TO.N,DIRA*%
X165100000Y-77152500D03*
%TO.P,U1,3,A1*%
%TO.N,LVIRP*%
X163830000Y-77152500D03*
%TO.P,U1,4,A2*%
%TO.N,LVIR0*%
X162560000Y-77152500D03*
%TO.P,U1,5,A3*%
%TO.N,LVIR1*%
X161290000Y-77152500D03*
%TO.P,U1,6,A4*%
%TO.N,unconnected-(U1-Pad6)*%
X160020000Y-77152500D03*
%TO.P,U1,7,A5*%
%TO.N,LVIR4*%
X158750000Y-77152500D03*
%TO.P,U1,8,A6*%
%TO.N,LVIR7*%
X157480000Y-77152500D03*
%TO.P,U1,9,A7*%
%TO.N,LVIR6*%
X156210000Y-77152500D03*
%TO.P,U1,10,A8*%
%TO.N,LVIHER*%
X154940000Y-77152500D03*
%TO.P,U1,11,GND*%
%TO.N,GNDREF*%
X153670000Y-77152500D03*
%TO.P,U1,12,GND*%
X152400000Y-77152500D03*
%TO.P,U1,13,GND*%
X152400000Y-70167500D03*
%TO.P,U1,14,B8*%
%TO.N,IHER*%
X153670000Y-70167500D03*
%TO.P,U1,15,B7*%
%TO.N,IR6*%
X154940000Y-70167500D03*
%TO.P,U1,16,B6*%
%TO.N,IR7*%
X156210000Y-70167500D03*
%TO.P,U1,17,B5*%
%TO.N,IR4*%
X157480000Y-70167500D03*
%TO.P,U1,18,B4*%
%TO.N,unconnected-(U1-Pad18)*%
X158750000Y-70167500D03*
%TO.P,U1,19,B3*%
%TO.N,IR1*%
X160020000Y-70167500D03*
%TO.P,U1,20,B2*%
%TO.N,IR0*%
X161290000Y-70167500D03*
%TO.P,U1,21,B1*%
%TO.N,IRP*%
X162560000Y-70167500D03*
%TO.P,U1,22,~{OE}*%
%TO.N,OEA*%
X163830000Y-70167500D03*
%TO.P,U1,23,VCCB*%
%TO.N,+5V*%
X165100000Y-70167500D03*
%TO.P,U1,24,VCCB*%
X166370000Y-70167500D03*
%TD*%
D27*
%TO.P,U6,1,VCCA*%
%TO.N,+3V3*%
X102235000Y-110490000D03*
%TO.P,U6,2,DIR*%
%TO.N,DIRB*%
X103505000Y-110490000D03*
%TO.P,U6,3,A1*%
%TO.N,LVILWD*%
X104775000Y-110490000D03*
%TO.P,U6,4,A2*%
%TO.N,LVIW4*%
X106045000Y-110490000D03*
%TO.P,U6,5,A3*%
%TO.N,LVIGO*%
X107315000Y-110490000D03*
%TO.P,U6,6,A4*%
%TO.N,LVIW0*%
X108585000Y-110490000D03*
%TO.P,U6,7,A5*%
%TO.N,LVIW1*%
X109855000Y-110490000D03*
%TO.P,U6,8,A6*%
%TO.N,LVIREV*%
X111125000Y-110490000D03*
%TO.P,U6,9,A7*%
%TO.N,LVIREW*%
X112395000Y-110490000D03*
%TO.P,U6,10,A8*%
%TO.N,LVIWP*%
X113665000Y-110490000D03*
%TO.P,U6,11,GND*%
%TO.N,GNDREF*%
X114935000Y-110490000D03*
%TO.P,U6,12,GND*%
X116205000Y-110490000D03*
%TO.P,U6,13,GND*%
X116205000Y-117475000D03*
%TO.P,U6,14,B8*%
%TO.N,IWP*%
X114935000Y-117475000D03*
%TO.P,U6,15,B7*%
%TO.N,IREW*%
X113665000Y-117475000D03*
%TO.P,U6,16,B6*%
%TO.N,IREV*%
X112395000Y-117475000D03*
%TO.P,U6,17,B5*%
%TO.N,IW1*%
X111125000Y-117475000D03*
%TO.P,U6,18,B4*%
%TO.N,IW0*%
X109855000Y-117475000D03*
%TO.P,U6,19,B3*%
%TO.N,IGO*%
X108585000Y-117475000D03*
%TO.P,U6,20,B2*%
%TO.N,IW4*%
X107315000Y-117475000D03*
%TO.P,U6,21,B1*%
%TO.N,ILWD*%
X106045000Y-117475000D03*
%TO.P,U6,22,~{OE}*%
%TO.N,GNDREF*%
X104775000Y-117475000D03*
%TO.P,U6,23,VCCB*%
%TO.N,+5V*%
X103505000Y-117475000D03*
%TO.P,U6,24,VCCB*%
X102235000Y-117475000D03*
%TD*%
D28*
%TO.P,C9,1*%
%TO.N,+3V3*%
X165258750Y-80010000D03*
%TO.P,C9,2*%
%TO.N,GNDREF*%
X167481250Y-80010000D03*
%TD*%
D26*
%TO.P,R3,1*%
%TO.N,+5V*%
X109490000Y-91440000D03*
%TO.P,R3,2*%
%TO.N,Net-(Q1-Pad3)*%
X111490000Y-91440000D03*
%TD*%
%TO.P,R6,1*%
%TO.N,Net-(R6-Pad1)*%
X113300000Y-62230000D03*
%TO.P,R6,2*%
%TO.N,GNDREF*%
X115300000Y-62230000D03*
%TD*%
D31*
%TO.P,C13,1*%
%TO.N,+3V3*%
X172085000Y-93821250D03*
%TO.P,C13,2*%
%TO.N,GNDREF*%
X172085000Y-91598750D03*
%TD*%
D24*
%TO.P,C4,1*%
%TO.N,+5V*%
X147161250Y-63500000D03*
%TO.P,C4,2*%
%TO.N,GNDREF*%
X144938750Y-63500000D03*
%TD*%
D27*
%TO.P,U3,1,VCCA*%
%TO.N,+3V3*%
X156845000Y-100647500D03*
%TO.P,U3,2,DIR*%
%TO.N,DIRA*%
X158115000Y-100647500D03*
%TO.P,U3,3,A1*%
%TO.N,LVICER*%
X159385000Y-100647500D03*
%TO.P,U3,4,A2*%
%TO.N,LVIFBY*%
X160655000Y-100647500D03*
%TO.P,U3,5,A3*%
%TO.N,LVIR2*%
X161925000Y-100647500D03*
%TO.P,U3,6,A4*%
%TO.N,LVIR3*%
X163195000Y-100647500D03*
%TO.P,U3,7,A5*%
%TO.N,unconnected-(U3-Pad7)*%
X164465000Y-100647500D03*
%TO.P,U3,8,A6*%
%TO.N,unconnected-(U3-Pad8)*%
X165735000Y-100647500D03*
%TO.P,U3,9,A7*%
%TO.N,unconnected-(U3-Pad9)*%
X167005000Y-100647500D03*
%TO.P,U3,10,A8*%
%TO.N,unconnected-(U3-Pad10)*%
X168275000Y-100647500D03*
%TO.P,U3,11,GND*%
%TO.N,GNDREF*%
X169545000Y-100647500D03*
%TO.P,U3,12,GND*%
X170815000Y-100647500D03*
%TO.P,U3,13,GND*%
X170815000Y-107632500D03*
%TO.P,U3,14,B8*%
%TO.N,unconnected-(U3-Pad14)*%
X169545000Y-107632500D03*
%TO.P,U3,15,B7*%
%TO.N,unconnected-(U3-Pad15)*%
X168275000Y-107632500D03*
%TO.P,U3,16,B6*%
%TO.N,unconnected-(U3-Pad16)*%
X167005000Y-107632500D03*
%TO.P,U3,17,B5*%
%TO.N,unconnected-(U3-Pad17)*%
X165735000Y-107632500D03*
%TO.P,U3,18,B4*%
%TO.N,IR3*%
X164465000Y-107632500D03*
%TO.P,U3,19,B3*%
%TO.N,IR2*%
X163195000Y-107632500D03*
%TO.P,U3,20,B2*%
%TO.N,IFBY*%
X161925000Y-107632500D03*
%TO.P,U3,21,B1*%
%TO.N,ICER*%
X160655000Y-107632500D03*
%TO.P,U3,22,~{OE}*%
%TO.N,OEA*%
X159385000Y-107632500D03*
%TO.P,U3,23,VCCB*%
%TO.N,+5V*%
X158115000Y-107632500D03*
%TO.P,U3,24,VCCB*%
X156845000Y-107632500D03*
%TD*%
D24*
%TO.P,C6,1*%
%TO.N,+5V*%
X154146250Y-107950000D03*
%TO.P,C6,2*%
%TO.N,GNDREF*%
X151923750Y-107950000D03*
%TD*%
D32*
%TO.P,C2,1*%
%TO.N,+5V*%
X110490000Y-78898750D03*
%TO.P,C2,2*%
%TO.N,GNDREF*%
X110490000Y-81121250D03*
%TD*%
D31*
%TO.P,C12,1*%
%TO.N,+5V*%
X170180000Y-81121250D03*
%TO.P,C12,2*%
%TO.N,GNDREF*%
X170180000Y-78898750D03*
%TD*%
D33*
%TO.N,GNDREF*%
X155575000Y-92710000D03*
X168910000Y-65405000D03*
X140335000Y-117475000D03*
X170815000Y-106045000D03*
X110490000Y-82550000D03*
X130810000Y-67310000D03*
X145415000Y-65405000D03*
X145187051Y-80065824D03*
X96520000Y-111442500D03*
X169545000Y-77470000D03*
X132715000Y-73025000D03*
X151130000Y-69850000D03*
X167005000Y-82550000D03*
X96520000Y-116522500D03*
X125730000Y-65405000D03*
X117187500Y-117445000D03*
X171450000Y-74930000D03*
X116950845Y-61742612D03*
X127635000Y-119697500D03*
X155575000Y-85725000D03*
X118619395Y-78698131D03*
X170815000Y-98425000D03*
X153035000Y-78740000D03*
X151765000Y-106680000D03*
X118110000Y-110490000D03*
X104140000Y-119134891D03*
X172085000Y-90170000D03*
X137795000Y-112077500D03*
%TO.N,ISGL*%
X125806758Y-80317032D03*
%TO.N,ILOL*%
X116840000Y-81280000D03*
X117475000Y-109220000D03*
X111125000Y-95885000D03*
%TO.N,IRTH2*%
X121661813Y-78837692D03*
X132080000Y-99695000D03*
%TO.N,IWFM*%
X163830000Y-97155000D03*
%TO.N,IRTH1*%
X120015000Y-78209670D03*
X133985000Y-100330000D03*
%TO.N,ITAD0*%
X121285000Y-72390000D03*
X130397734Y-98846081D03*
%TO.N,ILDP*%
X118549615Y-77567692D03*
%TO.N,IDENT*%
X114300000Y-69850000D03*
%TO.N,IFEN*%
X121920000Y-68580000D03*
X115570000Y-59690000D03*
%TO.N,IOFL*%
X156844999Y-81698681D03*
X149225000Y-72390000D03*
X148590000Y-56515000D03*
%TO.N,INRZ*%
X126085879Y-59984150D03*
%TO.N,IFPT*%
X119380000Y-67945000D03*
X120158138Y-63634431D03*
%TO.N,IRSTR*%
X136525000Y-69215000D03*
%TO.N,IWSTR*%
X130299530Y-61837620D03*
%TO.N,IDBY*%
X128474509Y-61193495D03*
%TO.N,ISPEED*%
X115570000Y-68580000D03*
%TO.N,ICER*%
X128905000Y-71755000D03*
X159385000Y-73025000D03*
X161290000Y-104775000D03*
%TO.N,IONL*%
X117475000Y-72390000D03*
%TO.N,ITAD1*%
X117475000Y-60325000D03*
X123825000Y-64135000D03*
%TO.N,IFAD*%
X128270000Y-55880000D03*
%TO.N,IDEN*%
X120015000Y-73660000D03*
%TO.N,+3V3*%
X116537812Y-95914251D03*
X147320000Y-80645000D03*
X153035000Y-83820000D03*
X125730000Y-97790000D03*
X129540000Y-97790000D03*
X153035000Y-95250000D03*
X100330000Y-97790000D03*
%TO.N,ETHERNET_TM*%
X101600000Y-84455000D03*
%TO.N,+5V*%
X100330000Y-117475000D03*
X123190000Y-117792500D03*
X147320000Y-65405000D03*
X110490000Y-92710000D03*
X110490000Y-77470000D03*
X127635000Y-93345000D03*
X165100000Y-67310000D03*
X169227500Y-82232500D03*
X155575000Y-107950000D03*
%TO.N,Net-(Q1-Pad3)*%
X111744731Y-90057993D03*
X112395000Y-81915000D03*
%TO.N,LVIW6*%
X130175000Y-107950000D03*
X118745000Y-107315000D03*
X108585000Y-95250000D03*
%TO.N,Net-(Q2-Pad3)*%
X114935000Y-80010000D03*
X120650000Y-91440000D03*
%TO.N,LVIW7*%
X103505000Y-114300000D03*
X127635000Y-108585000D03*
%TO.N,LVIW5*%
X132715000Y-107950000D03*
X118745000Y-105410000D03*
%TO.N,LVIR1*%
X162846098Y-79751813D03*
X161925000Y-74930000D03*
%TO.N,LVIR5*%
X142875000Y-79375000D03*
X140655989Y-85627307D03*
%TO.N,LVILWD*%
X104775000Y-107315000D03*
%TO.N,LVIR2*%
X129540000Y-95885000D03*
X147955000Y-97790000D03*
X144780000Y-97790000D03*
%TO.N,LVIR3*%
X142709521Y-97452064D03*
X146685000Y-99060000D03*
X130810000Y-91440000D03*
%TO.N,LVIW2*%
X132059065Y-101216208D03*
%TO.N,LVIW3*%
X138430000Y-93980000D03*
%TO.N,LVIWSTR*%
X136552912Y-79654120D03*
%TO.N,LVIRSTR*%
X137795000Y-79612252D03*
%TO.N,LVIHER*%
X143789120Y-83394340D03*
%TO.N,LVIFBY*%
X149860000Y-95250000D03*
%TO.N,LVIFMK*%
X132080000Y-80010000D03*
X143330897Y-77723534D03*
%TO.N,LVIRP*%
X150146098Y-74022857D03*
X163830000Y-74930000D03*
%TO.N,LVIRDY*%
X95250000Y-95250000D03*
%TO.N,DIRA*%
X100965000Y-115570000D03*
X158115000Y-99060000D03*
X141441709Y-115794974D03*
X163830000Y-78740000D03*
X147634010Y-75669670D03*
%TO.N,LVIDBY*%
X124278571Y-81175329D03*
X103505000Y-100330000D03*
%TO.N,~{LPI2C4_INT}*%
X109855000Y-96520000D03*
X107950000Y-100330000D03*
X111125000Y-73025000D03*
%TO.N,LVIREW*%
X112395000Y-107315000D03*
%TO.N,LVIREV*%
X112395000Y-106045000D03*
%TO.N,LVIWRT*%
X133350000Y-106680000D03*
%TO.N,LVIEDIT*%
X134620000Y-106680000D03*
%TO.N,LVIERASE*%
X133985000Y-104775000D03*
%TO.N,LPI2C4_SCL*%
X120650000Y-99060000D03*
%TO.N,LPI2C4_SDA*%
X124460000Y-100965000D03*
%TO.N,LVIW1*%
X115570000Y-112395000D03*
%TO.N,LVIW0*%
X114823351Y-113148626D03*
%TO.N,DIRB*%
X127930309Y-113895274D03*
X114055769Y-113881318D03*
X165735000Y-94615000D03*
%TO.N,OEA*%
X142047605Y-98297401D03*
X144145000Y-69850000D03*
X163830000Y-72390000D03*
X143510000Y-92075000D03*
%TO.N,LVIOFL*%
X158115000Y-93345000D03*
%TO.N,LVIEOT*%
X144780000Y-90805000D03*
X144145000Y-80645000D03*
%TO.N,LVIWFM*%
X161925000Y-97155000D03*
%TD*%
D34*
%TO.N,GNDREF*%
X132715000Y-74612500D02*
X132715000Y-73025000D01*
X104775000Y-118499891D02*
X104775000Y-117475000D01*
X169545000Y-100647500D02*
X170497500Y-100647500D01*
X156845000Y-91122500D02*
X155892500Y-91122500D01*
X167481250Y-80010000D02*
X167481250Y-79533750D01*
X138112500Y-110490000D02*
X137795000Y-110807500D01*
X139065000Y-110490000D02*
X138112500Y-110490000D01*
X167640000Y-65405000D02*
X168910000Y-65405000D01*
X127635000Y-117475000D02*
X127635000Y-119697500D01*
X132715000Y-67627500D02*
X131127500Y-67627500D01*
X116205000Y-110490000D02*
X118110000Y-110490000D01*
X118745000Y-110490000D02*
X119380000Y-109855000D01*
X116205000Y-117445000D02*
X117187500Y-117445000D01*
X153035000Y-78740000D02*
X153035000Y-77787500D01*
X118110000Y-110490000D02*
X118745000Y-110490000D01*
X144938750Y-64928750D02*
X145415000Y-65405000D01*
X170815000Y-100330000D02*
X170815000Y-98425000D01*
X155575000Y-91122500D02*
X155575000Y-92710000D01*
X132715000Y-74612500D02*
X133667500Y-74612500D01*
X172085000Y-91598750D02*
X172085000Y-90170000D01*
X133667500Y-74612500D02*
X133985000Y-74295000D01*
X110490000Y-81121250D02*
X110490000Y-82550000D01*
X155575000Y-84137500D02*
X155575000Y-85725000D01*
X151923750Y-107950000D02*
X151923750Y-106838750D01*
X151923750Y-106838750D02*
X151765000Y-106680000D01*
X167005000Y-84137500D02*
X167005000Y-82550000D01*
X115410845Y-61742612D02*
X116950845Y-61742612D01*
X137795000Y-110807500D02*
X137795000Y-112077500D01*
X140335000Y-117475000D02*
X139065000Y-117475000D01*
X117187500Y-117445000D02*
X119032500Y-117445000D01*
X156845000Y-93345000D02*
X158750000Y-95250000D01*
X170180000Y-78105000D02*
X169545000Y-77470000D01*
X104140000Y-119134891D02*
X104775000Y-118499891D01*
X153352500Y-77152500D02*
X153670000Y-76835000D01*
X144938750Y-63500000D02*
X144938750Y-64928750D01*
X96678750Y-111283750D02*
X96520000Y-111442500D01*
X96678750Y-110172500D02*
X96678750Y-111283750D01*
X96678750Y-116681250D02*
X96520000Y-116522500D01*
X145171250Y-80050023D02*
X145171250Y-78740000D01*
X155892500Y-91122500D02*
X155575000Y-91440000D01*
X116962920Y-61699670D02*
X118232920Y-61699670D01*
X170180000Y-78898750D02*
X170180000Y-78105000D01*
X170815000Y-107632500D02*
X170815000Y-106045000D01*
X158750000Y-95250000D02*
X158750000Y-96520000D01*
X170497500Y-100647500D02*
X170815000Y-100330000D01*
X156845000Y-91092500D02*
X156845000Y-93345000D01*
X145187051Y-80065824D02*
X145171250Y-80050023D01*
X96678750Y-117792500D02*
X96678750Y-116681250D01*
X131127500Y-67627500D02*
X130810000Y-67310000D01*
X119032500Y-117445000D02*
X119380000Y-117792500D01*
X118619395Y-78698131D02*
X118884560Y-78698131D01*
X167481250Y-79533750D02*
X169545000Y-77470000D01*
X152082500Y-69850000D02*
X152400000Y-70167500D01*
X118884560Y-78698131D02*
X120015000Y-79828571D01*
X152400000Y-77152500D02*
X153352500Y-77152500D01*
X153035000Y-77787500D02*
X152400000Y-77152500D01*
X151130000Y-69850000D02*
X152082500Y-69850000D01*
X114935000Y-110490000D02*
X115887500Y-110490000D01*
X115887500Y-110490000D02*
X116205000Y-110172500D01*
X125095000Y-66040000D02*
X125730000Y-65405000D01*
D35*
%TO.N,IFBY*%
X161925000Y-109220000D02*
X160020000Y-111125000D01*
X160020000Y-111125000D02*
X158115000Y-111125000D01*
X158115000Y-111125000D02*
X154940000Y-114300000D01*
X161925000Y-107632500D02*
X161925000Y-109220000D01*
%TO.N,ILWD*%
X106045000Y-117475000D02*
X106045000Y-118745000D01*
X99060000Y-120015000D02*
X95885000Y-123190000D01*
X104775000Y-120015000D02*
X99060000Y-120015000D01*
X106045000Y-118745000D02*
X104775000Y-120015000D01*
X95885000Y-123190000D02*
X95885000Y-125095000D01*
%TO.N,IW4*%
X105410000Y-120650000D02*
X100965000Y-120650000D01*
X107315000Y-117475000D02*
X107315000Y-118745000D01*
X100965000Y-120650000D02*
X98425000Y-123190000D01*
X98425000Y-123190000D02*
X98425000Y-125095000D01*
X107315000Y-118745000D02*
X105410000Y-120650000D01*
%TO.N,IGO*%
X106045000Y-121285000D02*
X102870000Y-121285000D01*
X100965000Y-123190000D02*
X100965000Y-125095000D01*
X108585000Y-117475000D02*
X108585000Y-118745000D01*
X102870000Y-121285000D02*
X100965000Y-123190000D01*
X108585000Y-118745000D02*
X106045000Y-121285000D01*
%TO.N,IW0*%
X106680000Y-121920000D02*
X104775000Y-121920000D01*
X109855000Y-118745000D02*
X106680000Y-121920000D01*
X109855000Y-117475000D02*
X109855000Y-118745000D01*
X103505000Y-123190000D02*
X103505000Y-125095000D01*
X104775000Y-121920000D02*
X103505000Y-123190000D01*
%TO.N,IW1*%
X111125000Y-118745000D02*
X106045000Y-123825000D01*
X111125000Y-117475000D02*
X111125000Y-118745000D01*
X106045000Y-123825000D02*
X106045000Y-125095000D01*
%TO.N,ISGL*%
X109855000Y-125730000D02*
X109855000Y-124460000D01*
X125806758Y-80317032D02*
X124460000Y-78970274D01*
X124460000Y-78970274D02*
X124460000Y-77470000D01*
X115565000Y-130805000D02*
X111125000Y-126365000D01*
X124460000Y-77470000D02*
X123825000Y-76835000D01*
X109855000Y-124460000D02*
X112395000Y-121920000D01*
X111125000Y-126365000D02*
X110490000Y-126365000D01*
X110490000Y-126365000D02*
X109855000Y-125730000D01*
%TO.N,ILOL*%
X111760000Y-100965000D02*
X111125000Y-100330000D01*
X113665000Y-104140000D02*
X112395000Y-104140000D01*
X116840000Y-81280000D02*
X121285000Y-81280000D01*
X117475000Y-107950000D02*
X113665000Y-104140000D01*
X117475000Y-109220000D02*
X117475000Y-107950000D01*
X122555000Y-80010000D02*
X122555000Y-75565000D01*
X111760000Y-103505000D02*
X111760000Y-100965000D01*
X111125000Y-100330000D02*
X111125000Y-95885000D01*
X121285000Y-81280000D02*
X122555000Y-80010000D01*
X112395000Y-104140000D02*
X111760000Y-103505000D01*
%TO.N,IREV*%
X114329421Y-124430579D02*
X113665000Y-125095000D01*
X114329421Y-120600670D02*
X114329421Y-124430579D01*
X112395000Y-118216593D02*
X112395000Y-118666249D01*
X112395000Y-118666249D02*
X114329421Y-120600670D01*
%TO.N,IREW*%
X124460000Y-121920000D02*
X124460000Y-125095000D01*
X113665000Y-118699200D02*
X114578910Y-119613110D01*
X113665000Y-117475000D02*
X113665000Y-118699200D01*
X122153110Y-119613110D02*
X124460000Y-121920000D01*
X114578910Y-119613110D02*
X122153110Y-119613110D01*
%TO.N,IWP*%
X127000000Y-121920000D02*
X124043798Y-118963798D01*
X127000000Y-125095000D02*
X127000000Y-121920000D01*
X124043798Y-118963798D02*
X115153798Y-118963798D01*
X114935000Y-118745000D02*
X114935000Y-117475000D01*
X115153798Y-118963798D02*
X114935000Y-118745000D01*
%TO.N,IW7*%
X128905000Y-123825000D02*
X129540000Y-124460000D01*
X128905000Y-117475000D02*
X128905000Y-123825000D01*
%TO.N,IW3*%
X130175000Y-123190000D02*
X132080000Y-125095000D01*
X130175000Y-117475000D02*
X130175000Y-123190000D01*
%TO.N,IW6*%
X131445000Y-121920000D02*
X134620000Y-125095000D01*
X131445000Y-117475000D02*
X131445000Y-121920000D01*
%TO.N,IW2*%
X132715000Y-121285000D02*
X135255000Y-123825000D01*
X135255000Y-123825000D02*
X135890000Y-123825000D01*
X132715000Y-117475000D02*
X132715000Y-121285000D01*
X135890000Y-123825000D02*
X137160000Y-125095000D01*
%TO.N,IW5*%
X133985000Y-117475000D02*
X133985000Y-120650000D01*
X133985000Y-120650000D02*
X136525000Y-123190000D01*
X137795000Y-123190000D02*
X139700000Y-125095000D01*
X136525000Y-123190000D02*
X137795000Y-123190000D01*
%TO.N,IWRT*%
X137795000Y-122555000D02*
X139700000Y-122555000D01*
X135255000Y-120015000D02*
X137795000Y-122555000D01*
X139700000Y-122555000D02*
X142240000Y-125095000D01*
X135255000Y-117475000D02*
X135255000Y-120015000D01*
%TO.N,IRTH2*%
X132080000Y-99695000D02*
X134620000Y-102235000D01*
X141605000Y-109855000D02*
X141605000Y-114300000D01*
X135890000Y-104140000D02*
X141605000Y-109855000D01*
X141605000Y-114300000D02*
X152400000Y-125095000D01*
X134620000Y-103505000D02*
X135255000Y-104140000D01*
X121661813Y-78837692D02*
X121285000Y-78460879D01*
X135255000Y-104140000D02*
X135890000Y-104140000D01*
X121285000Y-78460879D02*
X121285000Y-76200000D01*
X134620000Y-102235000D02*
X134620000Y-103505000D01*
%TO.N,IEDIT*%
X143510000Y-128905000D02*
X146050000Y-131445000D01*
X136525000Y-117475000D02*
X136525000Y-119380000D01*
X139065000Y-121920000D02*
X141605000Y-121920000D01*
X136525000Y-119380000D02*
X139065000Y-121920000D01*
X141605000Y-121920000D02*
X143510000Y-123825000D01*
X143510000Y-123825000D02*
X143510000Y-128905000D01*
%TO.N,IERASE*%
X137795000Y-118745000D02*
X139700000Y-120650000D01*
X147320000Y-130175000D02*
X148590000Y-131445000D01*
X147320000Y-123825000D02*
X147320000Y-130175000D01*
X137795000Y-117475000D02*
X137795000Y-118745000D01*
X144145000Y-120650000D02*
X147320000Y-123825000D01*
X139700000Y-120650000D02*
X144145000Y-120650000D01*
%TO.N,IWFM*%
X158115000Y-87630000D02*
X158115000Y-84130201D01*
X160020000Y-89535000D02*
X158115000Y-87630000D01*
X160020000Y-93345000D02*
X160020000Y-89535000D01*
X163830000Y-97155000D02*
X160020000Y-93345000D01*
%TO.N,IRTH1*%
X137160000Y-103505000D02*
X137160000Y-102235000D01*
X137160000Y-102235000D02*
X136525000Y-101600000D01*
X135255000Y-101600000D02*
X133985000Y-100330000D01*
X143510000Y-109855000D02*
X137160000Y-103505000D01*
X136525000Y-101600000D02*
X135255000Y-101600000D01*
X120015000Y-78209670D02*
X120015000Y-76200000D01*
X158750000Y-121285000D02*
X150495000Y-121285000D01*
X143510000Y-114300000D02*
X143510000Y-109855000D01*
X150495000Y-121285000D02*
X143510000Y-114300000D01*
X162560000Y-125095000D02*
X158750000Y-121285000D01*
%TO.N,ITAD0*%
X137795000Y-99060000D02*
X139700000Y-100965000D01*
X160655000Y-119380000D02*
X165100000Y-123825000D01*
X130397734Y-98846081D02*
X133136081Y-98846081D01*
X145415000Y-113665000D02*
X151130000Y-119380000D01*
X120015000Y-67310000D02*
X120015000Y-66040000D01*
X165100000Y-123825000D02*
X165100000Y-125095000D01*
X133350000Y-99060000D02*
X137795000Y-99060000D01*
X139700000Y-100965000D02*
X139700000Y-104140000D01*
X151130000Y-119380000D02*
X160655000Y-119380000D01*
X139700000Y-104140000D02*
X145415000Y-109855000D01*
X120650000Y-71755000D02*
X120650000Y-67945000D01*
X121285000Y-72390000D02*
X120650000Y-71755000D01*
X120650000Y-67945000D02*
X120015000Y-67310000D01*
X145415000Y-109855000D02*
X145415000Y-113665000D01*
X133136081Y-98846081D02*
X133350000Y-99060000D01*
%TO.N,IR2*%
X158115000Y-113030000D02*
X157480000Y-113665000D01*
X163195000Y-107632500D02*
X163195000Y-109220000D01*
X157480000Y-113665000D02*
X157480000Y-114935000D01*
X159385000Y-113030000D02*
X158115000Y-113030000D01*
X163195000Y-109220000D02*
X159385000Y-113030000D01*
%TO.N,IR3*%
X160020000Y-113665000D02*
X160020000Y-114935000D01*
X164465000Y-109220000D02*
X160020000Y-113665000D01*
X164465000Y-107632500D02*
X164465000Y-109220000D01*
%TO.N,IRP*%
X167635000Y-59695000D02*
X162560000Y-64770000D01*
X167635000Y-58420000D02*
X167635000Y-59695000D01*
X162560000Y-64770000D02*
X162560000Y-69850000D01*
%TO.N,IR0*%
X165095000Y-58420000D02*
X165095000Y-60330000D01*
X161290000Y-64135000D02*
X161290000Y-69850000D01*
X165095000Y-60330000D02*
X161290000Y-64135000D01*
%TO.N,IR1*%
X162555000Y-58420000D02*
X162555000Y-60965000D01*
X160020000Y-63500000D02*
X160020000Y-69850000D01*
X162555000Y-60965000D02*
X160020000Y-63500000D01*
%TO.N,ILDP*%
X118549615Y-77567692D02*
X117475000Y-76493077D01*
%TO.N,IR4*%
X157480000Y-58425000D02*
X157480000Y-69850000D01*
%TO.N,IR7*%
X154935000Y-62225000D02*
X156210000Y-63500000D01*
X154935000Y-58420000D02*
X154935000Y-62225000D01*
X156210000Y-63500000D02*
X156210000Y-69850000D01*
%TO.N,IR6*%
X152395000Y-58420000D02*
X152395000Y-62225000D01*
X152395000Y-62225000D02*
X154940000Y-64770000D01*
X154940000Y-64770000D02*
X154940000Y-69850000D01*
%TO.N,IHER*%
X149860000Y-58425000D02*
X149860000Y-62230000D01*
X149860000Y-62230000D02*
X153670000Y-66040000D01*
X153670000Y-66040000D02*
X153670000Y-70485000D01*
%TO.N,IFMK*%
X147325000Y-44967500D02*
X147325000Y-48255000D01*
X142875000Y-63500000D02*
X142875000Y-67310000D01*
X140965000Y-61590000D02*
X142875000Y-63500000D01*
X140970000Y-54610000D02*
X140970000Y-58420000D01*
X140965000Y-58420000D02*
X140965000Y-61590000D01*
X147325000Y-48255000D02*
X140970000Y-54610000D01*
%TO.N,IDENT*%
X144785000Y-46985000D02*
X138430000Y-53340000D01*
X114935000Y-67945001D02*
X114935000Y-66675000D01*
X114300000Y-68580001D02*
X114935000Y-67945001D01*
X114300000Y-69850000D02*
X114300000Y-68580001D01*
X144785000Y-44967500D02*
X144785000Y-46985000D01*
X138430000Y-53340000D02*
X138430000Y-58420000D01*
%TO.N,IFEN*%
X121285000Y-67945000D02*
X121285000Y-67310000D01*
X118110000Y-54610000D02*
X118110000Y-52070000D01*
X115570000Y-59690000D02*
X115570000Y-57150000D01*
X121920000Y-68580000D02*
X121285000Y-67945000D01*
X115570000Y-57150000D02*
X118110000Y-54610000D01*
%TO.N,IR5*%
X139705000Y-46985000D02*
X135890000Y-50800000D01*
X135890000Y-50800000D02*
X135890000Y-58420000D01*
X139705000Y-44967500D02*
X139705000Y-46985000D01*
X141605000Y-64140000D02*
X141605000Y-67945000D01*
X135885000Y-58420000D02*
X141605000Y-64140000D01*
%TO.N,IEOT*%
X140335000Y-64770000D02*
X140335000Y-67310000D01*
X133350000Y-50800000D02*
X133350000Y-58420000D01*
X137165000Y-46985000D02*
X133350000Y-50800000D01*
X137165000Y-44967500D02*
X137165000Y-46985000D01*
X133985000Y-58420000D02*
X140335000Y-64770000D01*
%TO.N,IOFL*%
X148590000Y-71120000D02*
X148590000Y-56515000D01*
X149225000Y-71755000D02*
X148590000Y-71120000D01*
X156844999Y-81698681D02*
X156845000Y-84137500D01*
X149225000Y-72390000D02*
X149225000Y-71755000D01*
%TO.N,INRZ*%
X132085000Y-57145000D02*
X130810000Y-58420000D01*
X121207824Y-64884511D02*
X119265489Y-64884511D01*
X123190000Y-62865000D02*
X123190000Y-62902335D01*
X119265489Y-64884511D02*
X118745000Y-65405000D01*
X126085879Y-59984150D02*
X126070850Y-59984150D01*
X123190000Y-62902335D02*
X121207824Y-64884511D01*
X126070850Y-59984150D02*
X123190000Y-62865000D01*
X132085000Y-44967500D02*
X132085000Y-57145000D01*
%TO.N,IRDY*%
X131285000Y-60960000D02*
X133985000Y-60960000D01*
X139065000Y-66040000D02*
X139065000Y-67310000D01*
X133985000Y-60960000D02*
X139065000Y-66040000D01*
X129545000Y-57145000D02*
X128270000Y-58420000D01*
X128745000Y-58420000D02*
X131285000Y-60960000D01*
X129545000Y-44967500D02*
X129545000Y-57145000D01*
%TO.N,IRWD*%
X125725000Y-59298564D02*
X120597098Y-64426466D01*
X127005000Y-44967500D02*
X127005000Y-56510000D01*
X125725000Y-58420000D02*
X125725000Y-59298564D01*
X116205000Y-65405000D02*
X116205000Y-66040000D01*
X127005000Y-56510000D02*
X125730000Y-57785000D01*
X117183534Y-64426466D02*
X116205000Y-65405000D01*
X120597098Y-64426466D02*
X117183534Y-64426466D01*
%TO.N,IFPT*%
X123190000Y-58420000D02*
X124465000Y-57145000D01*
X119380000Y-67945000D02*
X116205000Y-71120000D01*
X123190000Y-60602569D02*
X123190000Y-58420000D01*
X124465000Y-57145000D02*
X124465000Y-44967500D01*
X116205000Y-71120000D02*
X116205000Y-75882500D01*
X120158138Y-63634431D02*
X123190000Y-60602569D01*
%TO.N,IRSTR*%
X136525000Y-69215000D02*
X136525000Y-67945000D01*
X116840000Y-54610000D02*
X114300000Y-57150000D01*
X116840000Y-50052500D02*
X116840000Y-54610000D01*
X114300000Y-57150000D02*
X114300000Y-58420000D01*
X121925000Y-44967500D02*
X116840000Y-50052500D01*
%TO.N,IWSTR*%
X130299530Y-61837620D02*
X130417620Y-61837620D01*
X130417620Y-61837620D02*
X135255000Y-66675000D01*
X114300000Y-50052500D02*
X114300000Y-54610000D01*
X114300000Y-54610000D02*
X111760000Y-57150000D01*
X111760000Y-57150000D02*
X111760000Y-58420000D01*
X135255000Y-66675000D02*
X135255000Y-67627500D01*
X119385000Y-44967500D02*
X114300000Y-50052500D01*
%TO.N,IDBY*%
X116322500Y-44967500D02*
X111760000Y-49530000D01*
X128503495Y-61193495D02*
X133985000Y-66675000D01*
X133985000Y-66675000D02*
X133985000Y-67627500D01*
X111760000Y-54610000D02*
X109220000Y-57150000D01*
X111760000Y-49530000D02*
X111760000Y-54610000D01*
X128474509Y-61193495D02*
X128503495Y-61193495D01*
X109220000Y-57150000D02*
X109220000Y-58420000D01*
%TO.N,ISPEED*%
X117475000Y-67310000D02*
X117475000Y-66357500D01*
X115570000Y-68580000D02*
X116205000Y-68580000D01*
X109220000Y-54610000D02*
X106680000Y-57150000D01*
X109220000Y-50052500D02*
X109220000Y-54610000D01*
X116205000Y-68580000D02*
X117475000Y-67310000D01*
X114305000Y-44967500D02*
X109220000Y-50052500D01*
X106680000Y-57150000D02*
X106680000Y-58420000D01*
%TO.N,ICER*%
X161290000Y-104775000D02*
X160655000Y-105410000D01*
X111765000Y-46350000D02*
X109220000Y-48895000D01*
X147320000Y-71755000D02*
X148750494Y-73185494D01*
X158750000Y-72390000D02*
X159385000Y-73025000D01*
X148750494Y-73185494D02*
X150969506Y-73185494D01*
X150969506Y-73185494D02*
X151765000Y-72390000D01*
X111765000Y-44967500D02*
X111765000Y-46350000D01*
X151765000Y-72390000D02*
X158750000Y-72390000D01*
X160655000Y-105410000D02*
X160655000Y-107315000D01*
X128905000Y-71755000D02*
X147320000Y-71755000D01*
X109220000Y-48895000D02*
X106045000Y-48895000D01*
X104140000Y-50800000D02*
X104140000Y-58420000D01*
X106045000Y-48895000D02*
X104140000Y-50800000D01*
%TO.N,IONL*%
X117475000Y-72390000D02*
X118745000Y-73660000D01*
X101600000Y-51435000D02*
X101600000Y-58420000D01*
X109225000Y-45715000D02*
X107315000Y-47625000D01*
X105410000Y-47625000D02*
X101600000Y-51435000D01*
X107315000Y-47625000D02*
X105410000Y-47625000D01*
X109225000Y-44967500D02*
X109225000Y-45715000D01*
X118745000Y-73660000D02*
X118745000Y-75565000D01*
%TO.N,ITAD1*%
X110490000Y-57150000D02*
X113030000Y-54610000D01*
X122555000Y-66357500D02*
X122555000Y-65405000D01*
X110490000Y-59690000D02*
X110490000Y-57150000D01*
X117475000Y-60325000D02*
X116840000Y-60960000D01*
X113030000Y-54610000D02*
X113030000Y-52070000D01*
X122555000Y-65405000D02*
X123825000Y-64135000D01*
X111760000Y-60960000D02*
X110490000Y-59690000D01*
X116840000Y-60960000D02*
X111760000Y-60960000D01*
%TO.N,IFAD*%
X128270000Y-55880000D02*
X128270000Y-56515000D01*
X123825000Y-65325625D02*
X123825000Y-66357500D01*
X125730000Y-61595000D02*
X125730000Y-63420625D01*
X127000000Y-60325000D02*
X125730000Y-61595000D01*
X125730000Y-63420625D02*
X123825000Y-65325625D01*
X128270000Y-56515000D02*
X127000000Y-57785000D01*
X127000000Y-57785000D02*
X127000000Y-60325000D01*
%TO.N,IDEN*%
X120015000Y-73660000D02*
X124460000Y-73660000D01*
X125095000Y-74295000D02*
X125095000Y-75882500D01*
X124460000Y-73660000D02*
X125095000Y-74295000D01*
D34*
%TO.N,+3V3*%
X122870000Y-97470000D02*
X125740000Y-100340000D01*
X125740000Y-100340000D02*
X125740000Y-102845000D01*
X125095000Y-111442500D02*
X121595522Y-114941978D01*
X160020000Y-97790000D02*
X160655000Y-98425000D01*
X165100000Y-98425000D02*
X170180000Y-93345000D01*
X146685000Y-74612500D02*
X146685000Y-78105000D01*
X156601250Y-97546250D02*
X156601250Y-96520000D01*
X156845000Y-97790000D02*
X156601250Y-97546250D01*
X170180000Y-93345000D02*
X170815000Y-93980000D01*
X169545000Y-92710000D02*
X170180000Y-93345000D01*
X165258750Y-80010000D02*
X165258750Y-79216250D01*
X121595522Y-114941978D02*
X105734478Y-114941978D01*
X169545000Y-91122500D02*
X169545000Y-92710000D01*
X105734478Y-114941978D02*
X102235000Y-111442500D01*
X116520000Y-97470000D02*
X116520000Y-93647500D01*
X121632500Y-110520000D02*
X125095000Y-110520000D01*
X125095000Y-107950000D02*
X125095000Y-110490000D01*
X125740000Y-102845000D02*
X125740000Y-107305000D01*
X125740000Y-107305000D02*
X125095000Y-107950000D01*
X125095000Y-110520000D02*
X125095000Y-111442500D01*
X122920000Y-98695000D02*
X121285000Y-100330000D01*
X122870000Y-93647500D02*
X122870000Y-97470000D01*
X122920000Y-97790000D02*
X125730000Y-97790000D01*
X122920000Y-97790000D02*
X122920000Y-98695000D01*
X156482142Y-80693846D02*
X164416154Y-80693846D01*
X166370000Y-78105000D02*
X166370000Y-77470000D01*
X153035000Y-83820000D02*
X153355988Y-83820000D01*
X153035000Y-95250000D02*
X153035000Y-83820000D01*
X119380000Y-100330000D02*
X116520000Y-97470000D01*
X154940000Y-95250000D02*
X156210000Y-96520000D01*
X146685000Y-78105000D02*
X147320000Y-78740000D01*
X102235000Y-110172500D02*
X99060000Y-110172500D01*
X100330000Y-97790000D02*
X102235000Y-97790000D01*
X165258750Y-79216250D02*
X166370000Y-78105000D01*
X170815000Y-93980000D02*
X172085000Y-93980000D01*
X129540000Y-97790000D02*
X135890000Y-97790000D01*
X147320000Y-80645000D02*
X147320000Y-79375000D01*
X121285000Y-100330000D02*
X119380000Y-100330000D01*
X156845000Y-97790000D02*
X156845000Y-100330000D01*
X153035000Y-95250000D02*
X154940000Y-95250000D01*
X164416154Y-80693846D02*
X165100000Y-80010000D01*
X102235000Y-111442500D02*
X102235000Y-110172500D01*
X160655000Y-98425000D02*
X165100000Y-98425000D01*
X156845000Y-97790000D02*
X160020000Y-97790000D01*
X153355988Y-83820000D02*
X156482142Y-80693846D01*
D35*
%TO.N,ETHERNET_TM*%
X101600000Y-84455000D02*
X101600000Y-88900000D01*
X101600000Y-88900000D02*
X102780000Y-90080000D01*
D34*
%TO.N,+5V*%
X110490000Y-78972500D02*
X110490000Y-77470000D01*
X168275000Y-84137500D02*
X168275000Y-83185000D01*
X169227500Y-82232500D02*
X170180000Y-81280000D01*
X146685000Y-67627500D02*
X145732500Y-67627500D01*
X110490000Y-92710000D02*
X109490000Y-91710000D01*
X165100000Y-70167500D02*
X166052500Y-70167500D01*
X147320000Y-65405000D02*
X147320000Y-63500000D01*
X129270000Y-91710000D02*
X127635000Y-93345000D01*
X146685000Y-67627500D02*
X146685000Y-66040000D01*
X110490000Y-76405085D02*
X111137125Y-75757960D01*
X146685000Y-66040000D02*
X147320000Y-65405000D01*
X169545000Y-84167500D02*
X168289520Y-84167500D01*
X165100000Y-67310000D02*
X165100000Y-66040000D01*
X154146250Y-107950000D02*
X155575000Y-107950000D01*
X100330000Y-117475000D02*
X99060000Y-117475000D01*
X165100000Y-66040000D02*
X165735000Y-65405000D01*
X103505000Y-117475000D02*
X102235000Y-117475000D01*
X155575000Y-107950000D02*
X158115000Y-107950000D01*
X102235000Y-117475000D02*
X100330000Y-117475000D01*
X121761250Y-117792500D02*
X123190000Y-117792500D01*
X168275000Y-83185000D02*
X169227500Y-82232500D01*
X110490000Y-77470000D02*
X110490000Y-76405085D01*
X145732500Y-67627500D02*
X145415000Y-67945000D01*
X166052500Y-70167500D02*
X166370000Y-70485000D01*
X123190000Y-117792500D02*
X126365000Y-117792500D01*
X165100000Y-70167500D02*
X165100000Y-67310000D01*
D35*
%TO.N,ETHERNET_G*%
X103505000Y-62230000D02*
X100965000Y-64770000D01*
X100840000Y-64515000D02*
X94235000Y-64515000D01*
X100840000Y-64515000D02*
X100840000Y-80520000D01*
X103505000Y-80010000D02*
X100965000Y-80010000D01*
X94235000Y-64515000D02*
X92710000Y-66040000D01*
X107315000Y-62230000D02*
X103505000Y-62230000D01*
X106680000Y-76835000D02*
X103505000Y-80010000D01*
%TO.N,Net-(C1-Pad1)*%
X106680000Y-69215000D02*
X106680000Y-69850000D01*
X109855000Y-62865000D02*
X106680000Y-66040000D01*
X106680000Y-66040000D02*
X106680000Y-69215000D01*
X106680000Y-69850000D02*
X104140000Y-72390000D01*
X104140000Y-72390000D02*
X104140000Y-73025000D01*
%TO.N,Net-(Q1-Pad3)*%
X112395000Y-75882500D02*
X112395000Y-81915000D01*
X111760000Y-90073262D02*
X111760000Y-91440000D01*
X111490000Y-91440000D02*
X115570000Y-91440000D01*
X111744731Y-90057993D02*
X111760000Y-90073262D01*
%TO.N,LVIW6*%
X118745000Y-107315000D02*
X118110000Y-107315000D01*
X111125000Y-94615000D02*
X109220000Y-94615000D01*
X109220000Y-94615000D02*
X108585000Y-95250000D01*
X114300000Y-100965000D02*
X112395000Y-99060000D01*
X112395000Y-99060000D02*
X112395000Y-95885000D01*
X114300000Y-103505000D02*
X114300000Y-100965000D01*
X112395000Y-95885000D02*
X111125000Y-94615000D01*
X130175000Y-110490000D02*
X130175000Y-107950000D01*
X118110000Y-107315000D02*
X114300000Y-103505000D01*
%TO.N,Net-(Q2-Pad3)*%
X126682500Y-91757500D02*
X127000000Y-91440000D01*
X114935000Y-80010000D02*
X113665000Y-78740000D01*
X121920000Y-91757500D02*
X126682500Y-91757500D01*
X113665000Y-78740000D02*
X113665000Y-75882500D01*
X120650000Y-91440000D02*
X121920000Y-91440000D01*
%TO.N,LVIW7*%
X94615000Y-112395000D02*
X94615000Y-105410000D01*
X96520000Y-114300000D02*
X94615000Y-112395000D01*
X96520000Y-97155000D02*
X100330000Y-93345000D01*
X127635000Y-110490000D02*
X127635000Y-108585000D01*
X96520000Y-103505000D02*
X96520000Y-97155000D01*
X94615000Y-105410000D02*
X96520000Y-103505000D01*
X103505000Y-114300000D02*
X96520000Y-114300000D01*
X100330000Y-93345000D02*
X100330000Y-87630000D01*
%TO.N,Net-(R6-Pad1)*%
X113300000Y-63865000D02*
X112395000Y-64770000D01*
X113300000Y-62230000D02*
X113300000Y-63865000D01*
X112395000Y-64770000D02*
X112395000Y-66675000D01*
%TO.N,Net-(R5-Pad1)*%
X116073491Y-63202628D02*
X113665000Y-65611119D01*
X120444412Y-62138215D02*
X119379999Y-63202628D01*
X119379999Y-63202628D02*
X116073491Y-63202628D01*
%TO.N,LVIW4*%
X105410000Y-88900000D02*
X103505000Y-88900000D01*
X106045000Y-104616250D02*
X106680000Y-103981250D01*
X106045000Y-110490000D02*
X106045000Y-104616250D01*
X103505000Y-88900000D02*
X102870000Y-88265000D01*
X106680000Y-90170000D02*
X105410000Y-88900000D01*
X106680000Y-103981250D02*
X106680000Y-90170000D01*
%TO.N,LVIW5*%
X113030000Y-98425000D02*
X113030000Y-95250000D01*
X116840000Y-101600000D02*
X116205000Y-100965000D01*
X111760000Y-93980000D02*
X108585000Y-93980000D01*
X132715000Y-110490000D02*
X132715000Y-107950000D01*
X118745000Y-105410000D02*
X118110000Y-105410000D01*
X116205000Y-100965000D02*
X115570000Y-100965000D01*
X108585000Y-93980000D02*
X107950000Y-93345000D01*
X118110000Y-105410000D02*
X116840000Y-104140000D01*
X116840000Y-104140000D02*
X116840000Y-101600000D01*
X113030000Y-95250000D02*
X111760000Y-93980000D01*
X107950000Y-90170000D02*
X105410000Y-87630000D01*
X115570000Y-100965000D02*
X113030000Y-98425000D01*
X107950000Y-93345000D02*
X107950000Y-90170000D01*
%TO.N,Net-(R8-Pad1)*%
X116205000Y-80010000D02*
X118110000Y-80010000D01*
X114935000Y-75882500D02*
X114935000Y-78740000D01*
X114935000Y-78740000D02*
X116205000Y-80010000D01*
%TO.N,LVIR7*%
X109136264Y-85808736D02*
X116588790Y-85808736D01*
X156845000Y-74295000D02*
X157480000Y-74930000D01*
X107950000Y-86995000D02*
X109136264Y-85808736D01*
X131814835Y-83750219D02*
X133531428Y-82033626D01*
X148471374Y-82033626D02*
X149518076Y-80986924D01*
X116588790Y-85808736D02*
X118647307Y-83750219D01*
X118647307Y-83750219D02*
X131814835Y-83750219D01*
X157480000Y-74930000D02*
X157480000Y-76835000D01*
X149518076Y-75687116D02*
X150910192Y-74295000D01*
X149518076Y-80986924D02*
X149518076Y-75687116D01*
X150910192Y-74295000D02*
X156845000Y-74295000D01*
X133531428Y-82033626D02*
X148471374Y-82033626D01*
%TO.N,LVIR6*%
X110490000Y-87630000D02*
X111787913Y-86332087D01*
X134096647Y-82619780D02*
X149155220Y-82619780D01*
X117174945Y-86332087D02*
X119170659Y-84336373D01*
X150495000Y-75565000D02*
X151130000Y-74930000D01*
X119170659Y-84336373D02*
X132380054Y-84336373D01*
X155575000Y-74930000D02*
X156210000Y-75565000D01*
X156210000Y-75565000D02*
X156210000Y-76835000D01*
X149155220Y-82619780D02*
X150495000Y-81280000D01*
X132380054Y-84336373D02*
X134096647Y-82619780D01*
X151130000Y-74930000D02*
X155575000Y-74930000D01*
X150495000Y-81280000D02*
X150495000Y-75565000D01*
X111787913Y-86332087D02*
X117174945Y-86332087D01*
%TO.N,LVIR1*%
X142240000Y-86995000D02*
X142240000Y-88265000D01*
X155651757Y-80010000D02*
X149301757Y-86360000D01*
X142875000Y-86360000D02*
X142240000Y-86995000D01*
X114935000Y-89535000D02*
X113030000Y-87630000D01*
X162587911Y-80010000D02*
X155651757Y-80010000D01*
X161925000Y-74930000D02*
X161290000Y-75565000D01*
X141605000Y-88900000D02*
X133985000Y-88900000D01*
X133350000Y-89535000D02*
X114935000Y-89535000D01*
X162846098Y-79751813D02*
X162587911Y-80010000D01*
X161290000Y-75565000D02*
X161290000Y-76835000D01*
X149301757Y-86360000D02*
X142875000Y-86360000D01*
X133985000Y-88900000D02*
X133350000Y-89535000D01*
X142240000Y-88265000D02*
X141605000Y-88900000D01*
%TO.N,LVIR0*%
X142393516Y-85571483D02*
X148959835Y-85571483D01*
X161855220Y-79444780D02*
X162560000Y-78740000D01*
X132080000Y-86995000D02*
X132715000Y-86360000D01*
X155086538Y-79444780D02*
X161855220Y-79444780D01*
X131445000Y-88900000D02*
X132080000Y-88265000D01*
X132080000Y-88265000D02*
X132080000Y-86995000D01*
X148959835Y-85571483D02*
X155086538Y-79444780D01*
X115570000Y-87630000D02*
X116840000Y-88900000D01*
X162560000Y-78740000D02*
X162560000Y-77470000D01*
X132715000Y-86360000D02*
X141604999Y-86360000D01*
X141604999Y-86360000D02*
X142393516Y-85571483D01*
X116840000Y-88900000D02*
X131445000Y-88900000D01*
%TO.N,LVIR4*%
X158750000Y-78740000D02*
X158750000Y-77470000D01*
X148806318Y-84859725D02*
X154695769Y-78970274D01*
X120880275Y-84859725D02*
X148806318Y-84859725D01*
X118110000Y-87630000D02*
X120880275Y-84859725D01*
X158519726Y-78970274D02*
X158750000Y-78740000D01*
X154695769Y-78970274D02*
X158519726Y-78970274D01*
%TO.N,LVIR5*%
X142474926Y-76600074D02*
X142875000Y-76200000D01*
X142474926Y-78974926D02*
X142474926Y-76600074D01*
X142875000Y-79375000D02*
X142474926Y-78974926D01*
X140628077Y-85655219D02*
X122624781Y-85655219D01*
X122624781Y-85655219D02*
X120650000Y-87630000D01*
X142875000Y-76200000D02*
X142875000Y-74930000D01*
X140655989Y-85627307D02*
X140628077Y-85655219D01*
%TO.N,LVILWD*%
X104775000Y-110490000D02*
X104775000Y-107315000D01*
%TO.N,LVIR2*%
X161925000Y-100647500D02*
X161925000Y-101600000D01*
X161925000Y-101600000D02*
X160020000Y-103505000D01*
X138430000Y-96520000D02*
X140970000Y-99060000D01*
X129540000Y-95885000D02*
X130175000Y-96520000D01*
X130175000Y-96520000D02*
X138430000Y-96520000D01*
X160020000Y-103505000D02*
X155575000Y-103505000D01*
X140970000Y-99060000D02*
X143510000Y-99060000D01*
X147955000Y-97790000D02*
X150495000Y-100330000D01*
X152400000Y-100330000D02*
X150495000Y-100330000D01*
X143510000Y-99060000D02*
X144780000Y-97790000D01*
X152400000Y-100330000D02*
X155575000Y-103505000D01*
%TO.N,LVIR3*%
X137160000Y-91440000D02*
X142709521Y-96989521D01*
X147955000Y-99060000D02*
X149860000Y-100965000D01*
X151765000Y-100965000D02*
X154940000Y-104140000D01*
X146685000Y-99060000D02*
X147955000Y-99060000D01*
X149860000Y-100965000D02*
X151765000Y-100965000D01*
X160655000Y-104140000D02*
X163195000Y-101600000D01*
X154940000Y-104140000D02*
X160655000Y-104140000D01*
X130810000Y-91440000D02*
X137160000Y-91440000D01*
X163195000Y-101600000D02*
X163195000Y-100647500D01*
X142709521Y-96989521D02*
X142709521Y-97452064D01*
%TO.N,LVIW2*%
X131445000Y-104140000D02*
X131445000Y-110490000D01*
X132059065Y-101216208D02*
X132059065Y-103525935D01*
X132059065Y-103525935D02*
X131445000Y-104140000D01*
%TO.N,LVIW3*%
X129540000Y-99695000D02*
X128270000Y-98425000D01*
X128905000Y-110490000D02*
X128905000Y-104140000D01*
X128905000Y-104140000D02*
X129540000Y-103505000D01*
X128270000Y-95250000D02*
X129540000Y-93980000D01*
X129540000Y-103505000D02*
X129540000Y-99695000D01*
X128270000Y-98425000D02*
X128270000Y-95250000D01*
X129540000Y-93980000D02*
X138430000Y-93980000D01*
%TO.N,LVIWSTR*%
X136525000Y-79626208D02*
X136552912Y-79654120D01*
X136525000Y-74612500D02*
X136525000Y-79626208D01*
%TO.N,LVIRSTR*%
X137795000Y-74612500D02*
X137795000Y-79612252D01*
%TO.N,LVIHER*%
X143789120Y-83394340D02*
X143977526Y-83205934D01*
X151130000Y-76200000D02*
X151765000Y-75565000D01*
X143977526Y-83205934D02*
X149539010Y-83205934D01*
X154940000Y-76200000D02*
X154940000Y-76835000D01*
X149539010Y-83205934D02*
X151130000Y-81614944D01*
X151765000Y-75565000D02*
X154305000Y-75565000D01*
X151130000Y-81614944D02*
X151130000Y-76200000D01*
X154305000Y-75565000D02*
X154940000Y-76200000D01*
%TO.N,LVICER*%
X159385000Y-101600000D02*
X158750000Y-102235000D01*
X151765000Y-97455591D02*
X151765000Y-95885000D01*
X151765000Y-95885000D02*
X146050000Y-90170000D01*
X159385000Y-100647500D02*
X159385000Y-101600000D01*
X156544409Y-102235000D02*
X151765000Y-97455591D01*
X146050000Y-90170000D02*
X146050000Y-87630000D01*
X158750000Y-102235000D02*
X156544409Y-102235000D01*
%TO.N,LVIFBY*%
X149860000Y-96520000D02*
X156210000Y-102870000D01*
X149860000Y-95250000D02*
X149860000Y-96520000D01*
X159385000Y-102870000D02*
X160655000Y-101600000D01*
X156210000Y-102870000D02*
X159385000Y-102870000D01*
X160655000Y-101600000D02*
X160655000Y-100965000D01*
%TO.N,LVIFMK*%
X117042363Y-81998735D02*
X115479285Y-83561813D01*
X103881813Y-83561813D02*
X102235000Y-81915000D01*
X131961372Y-80010000D02*
X129972637Y-81998735D01*
X129972637Y-81998735D02*
X117042363Y-81998735D01*
X97790000Y-81915000D02*
X93980000Y-85725000D01*
X102235000Y-81915000D02*
X97790000Y-81915000D01*
X93980000Y-99695000D02*
X92710000Y-100965000D01*
X115479285Y-83561813D02*
X103881813Y-83561813D01*
X92710000Y-100965000D02*
X92710000Y-102235000D01*
X93980000Y-85725000D02*
X93980000Y-99695000D01*
X132080000Y-80010000D02*
X131961372Y-80010000D01*
X144145000Y-76909431D02*
X144145000Y-74612500D01*
X143330897Y-77723534D02*
X144145000Y-76909431D01*
%TO.N,LVIRP*%
X163830000Y-77152500D02*
X163830000Y-74930000D01*
X131375219Y-83122197D02*
X118082087Y-83122197D01*
X118082087Y-83122197D02*
X116114284Y-85090000D01*
X99060000Y-93345000D02*
X95250000Y-97155000D01*
X99060000Y-84455000D02*
X99060000Y-93345000D01*
X116114284Y-85090000D02*
X103505000Y-85090000D01*
X148610934Y-80624066D02*
X147808462Y-81426538D01*
X133070878Y-81426538D02*
X131375219Y-83122197D01*
X99995055Y-83519945D02*
X99060000Y-84455000D01*
X103505000Y-85090000D02*
X101934945Y-83519945D01*
X101934945Y-83519945D02*
X99995055Y-83519945D01*
X95250000Y-97155000D02*
X95250000Y-102870000D01*
X148610934Y-75558021D02*
X148610934Y-80624066D01*
X147808462Y-81426538D02*
X133070878Y-81426538D01*
X150146098Y-74022857D02*
X148610934Y-75558021D01*
%TO.N,LVIRDY*%
X96520000Y-85090000D02*
X96520000Y-93980000D01*
X99060000Y-82550000D02*
X96520000Y-85090000D01*
X117475000Y-82550000D02*
X115570000Y-84455000D01*
X132715000Y-80645000D02*
X130810000Y-82550000D01*
X115570000Y-84455000D02*
X103798077Y-84455000D01*
X103798077Y-84455000D02*
X101893077Y-82550000D01*
X139700000Y-80645000D02*
X132715000Y-80645000D01*
X140335000Y-80010000D02*
X139700000Y-80645000D01*
X140335000Y-74612500D02*
X140335000Y-80010000D01*
X130810000Y-82550000D02*
X117475000Y-82550000D01*
X96520000Y-93980000D02*
X95250000Y-95250000D01*
X101893077Y-82550000D02*
X99060000Y-82550000D01*
%TO.N,DIRA*%
X163830000Y-78740000D02*
X164465000Y-78740000D01*
X140762338Y-115794974D02*
X140753682Y-115786318D01*
X140753682Y-115786318D02*
X101181318Y-115786318D01*
X141441709Y-115794974D02*
X140762338Y-115794974D01*
X147647967Y-75655713D02*
X147647967Y-73352967D01*
X165100000Y-78105000D02*
X165100000Y-77470000D01*
X145891250Y-73025000D02*
X145415000Y-73501250D01*
X101181318Y-115786318D02*
X100965000Y-115570000D01*
X147647967Y-73352967D02*
X147320000Y-73025000D01*
X164465000Y-78740000D02*
X165100000Y-78105000D01*
X158115000Y-99060000D02*
X158115000Y-100330000D01*
X145415000Y-73501250D02*
X145415000Y-74295000D01*
X147634010Y-75669670D02*
X147647967Y-75655713D01*
X147320000Y-73025000D02*
X145891250Y-73025000D01*
%TO.N,LVIDBY*%
X102880000Y-100955000D02*
X103505000Y-100330000D01*
X124278571Y-81175329D02*
X124355329Y-81098571D01*
X135255000Y-75565000D02*
X135255000Y-74930000D01*
X102880000Y-102845000D02*
X102880000Y-100955000D01*
X124355329Y-81098571D02*
X129721429Y-81098571D01*
X129721429Y-81098571D02*
X135255000Y-75565000D01*
%TO.N,~{LPI2C4_INT}*%
X111125000Y-73025000D02*
X111125000Y-66357500D01*
X107950000Y-100330000D02*
X107950000Y-98425000D01*
X105420000Y-102845000D02*
X105420000Y-101610000D01*
X104775000Y-100965000D02*
X104775000Y-97790000D01*
X105420000Y-101610000D02*
X104775000Y-100965000D01*
X107950000Y-98425000D02*
X109855000Y-96520000D01*
%TO.N,LVIGO*%
X107315000Y-110490000D02*
X107315000Y-108585000D01*
X107950000Y-107950000D02*
X107950000Y-102870000D01*
X107315000Y-108585000D02*
X107950000Y-107950000D01*
%TO.N,LVIWP*%
X113665000Y-105410000D02*
X113030000Y-104775000D01*
X113665000Y-110490000D02*
X113665000Y-105410000D01*
X113030000Y-104775000D02*
X111760000Y-104775000D01*
X111760000Y-104775000D02*
X110490000Y-103505000D01*
%TO.N,LVIREW*%
X112395000Y-107315000D02*
X112395000Y-110490000D01*
%TO.N,LVIREV*%
X112395000Y-106045000D02*
X110490000Y-107950000D01*
X110490000Y-109220000D02*
X111125000Y-109855000D01*
X110490000Y-107950000D02*
X110490000Y-109220000D01*
%TO.N,LVIWRT*%
X133985000Y-107315000D02*
X133985000Y-110490000D01*
X133350000Y-106680000D02*
X133985000Y-107315000D01*
%TO.N,LVIEDIT*%
X134620000Y-106680000D02*
X135255000Y-107315000D01*
X135255000Y-107315000D02*
X135255000Y-110490000D01*
%TO.N,LVIERASE*%
X136525000Y-106680000D02*
X136525000Y-110490000D01*
X134620000Y-104775000D02*
X136525000Y-106680000D01*
X133985000Y-104775000D02*
X134620000Y-104775000D01*
%TO.N,LPI2C4_SCL*%
X120650000Y-99060000D02*
X120650000Y-97790000D01*
X120967500Y-93662500D02*
X120967500Y-97472500D01*
%TO.N,LPI2C4_SDA*%
X114617500Y-98107500D02*
X114617500Y-93662500D01*
X124460000Y-100965000D02*
X117475000Y-100965000D01*
X117475000Y-100965000D02*
X114617500Y-98107500D01*
%TO.N,LVIW1*%
X115570000Y-112395000D02*
X111125000Y-112395000D01*
X111125000Y-112395000D02*
X109855000Y-111125000D01*
%TO.N,LVIW0*%
X110601648Y-113141648D02*
X108585000Y-111125000D01*
X114823351Y-113148626D02*
X114816373Y-113141648D01*
X114816373Y-113141648D02*
X110601648Y-113141648D01*
%TO.N,DIRB*%
X165735000Y-94615000D02*
X168275000Y-92075000D01*
X106275274Y-113895274D02*
X103505000Y-111125000D01*
X126365000Y-112329965D02*
X126365000Y-110490000D01*
X127930309Y-113895274D02*
X126365000Y-112329965D01*
X168275000Y-92075000D02*
X168275000Y-91122500D01*
X114041813Y-113895274D02*
X106275274Y-113895274D01*
X114055769Y-113881318D02*
X114041813Y-113895274D01*
%TO.N,OEA*%
X163830000Y-72390000D02*
X163830000Y-70485000D01*
X143002599Y-98297401D02*
X142047605Y-98297401D01*
X144145000Y-69850000D02*
X144145000Y-67945000D01*
X159385000Y-109220000D02*
X159385000Y-107950000D01*
X143510000Y-92075000D02*
X143510000Y-97790000D01*
X158750000Y-109855000D02*
X159385000Y-109220000D01*
X143510000Y-97790000D02*
X143002599Y-98297401D01*
X147320000Y-109855000D02*
X158750000Y-109855000D01*
X140980000Y-103515000D02*
X147320000Y-109855000D01*
%TO.N,LVIOFL*%
X158115000Y-91122500D02*
X158115000Y-93345000D01*
%TO.N,LVIEOT*%
X146050000Y-92075000D02*
X144780000Y-90805000D01*
X141605000Y-80010000D02*
X141605000Y-74612500D01*
X146060000Y-102845000D02*
X146060000Y-100340000D01*
X146050000Y-97790000D02*
X146050000Y-92075000D01*
X145415000Y-98425000D02*
X146050000Y-97790000D01*
X144145000Y-80645000D02*
X142240000Y-80645000D01*
X142240000Y-80645000D02*
X141605000Y-80010000D01*
X145415000Y-99695000D02*
X145415000Y-98425000D01*
X146060000Y-100340000D02*
X145415000Y-99695000D01*
%TO.N,LVIWFM*%
X161925000Y-97155000D02*
X161925000Y-96520000D01*
X161925000Y-96520000D02*
X159385000Y-93980000D01*
X159385000Y-93980000D02*
X159385000Y-91122500D01*
%TD*%
M02*
