%TF.GenerationSoftware,KiCad,Pcbnew,(6.0.4)*%
%TF.CreationDate,2022-05-22T11:47:51-04:00*%
%TF.ProjectId,pertec_arduino_adapter,70657274-6563-45f6-9172-6475696e6f5f,A1*%
%TF.SameCoordinates,Original*%
%TF.FileFunction,Paste,Bot*%
%TF.FilePolarity,Positive*%
%FSLAX46Y46*%
G04 Gerber Fmt 4.6, Leading zero omitted, Abs format (unit mm)*
G04 Created by KiCad (PCBNEW (6.0.4)) date 2022-05-22 11:47:51*
%MOMM*%
%LPD*%
G01*
G04 APERTURE LIST*
G04 Aperture macros list*
%AMRoundRect*
0 Rectangle with rounded corners*
0 $1 Rounding radius*
0 $2 $3 $4 $5 $6 $7 $8 $9 X,Y pos of 4 corners*
0 Add a 4 corners polygon primitive as box body*
4,1,4,$2,$3,$4,$5,$6,$7,$8,$9,$2,$3,0*
0 Add four circle primitives for the rounded corners*
1,1,$1+$1,$2,$3*
1,1,$1+$1,$4,$5*
1,1,$1+$1,$6,$7*
1,1,$1+$1,$8,$9*
0 Add four rect primitives between the rounded corners*
20,1,$1+$1,$2,$3,$4,$5,0*
20,1,$1+$1,$4,$5,$6,$7,0*
20,1,$1+$1,$6,$7,$8,$9,0*
20,1,$1+$1,$8,$9,$2,$3,0*%
G04 Aperture macros list end*
%ADD10RoundRect,0.250000X0.350000X0.450000X-0.350000X0.450000X-0.350000X-0.450000X0.350000X-0.450000X0*%
%ADD11RoundRect,0.250000X0.337500X0.475000X-0.337500X0.475000X-0.337500X-0.475000X0.337500X-0.475000X0*%
%ADD12RoundRect,0.150000X-0.150000X0.875000X-0.150000X-0.875000X0.150000X-0.875000X0.150000X0.875000X0*%
%ADD13RoundRect,0.250000X-0.350000X-0.450000X0.350000X-0.450000X0.350000X0.450000X-0.350000X0.450000X0*%
%ADD14RoundRect,0.150000X-0.150000X0.837500X-0.150000X-0.837500X0.150000X-0.837500X0.150000X0.837500X0*%
%ADD15RoundRect,0.250000X-0.337500X-0.475000X0.337500X-0.475000X0.337500X0.475000X-0.337500X0.475000X0*%
%ADD16RoundRect,0.150000X0.150000X-0.587500X0.150000X0.587500X-0.150000X0.587500X-0.150000X-0.587500X0*%
%ADD17RoundRect,0.150000X0.150000X-0.837500X0.150000X0.837500X-0.150000X0.837500X-0.150000X-0.837500X0*%
%ADD18RoundRect,0.250000X0.475000X-0.337500X0.475000X0.337500X-0.475000X0.337500X-0.475000X-0.337500X0*%
%ADD19RoundRect,0.250000X-0.475000X0.337500X-0.475000X-0.337500X0.475000X-0.337500X0.475000X0.337500X0*%
G04 APERTURE END LIST*
D10*
%TO.C,R5*%
X120444412Y-61699670D03*
X118444412Y-61699670D03*
%TD*%
%TO.C,R2*%
X122920000Y-97790000D03*
X120920000Y-97790000D03*
%TD*%
D11*
%TO.C,C7*%
X121761250Y-110172500D03*
X119538750Y-110172500D03*
%TD*%
%TO.C,C10*%
X99060000Y-117475000D03*
X96837500Y-117475000D03*
%TD*%
D12*
%TO.C,U7*%
X111125000Y-66357500D03*
X112395000Y-66357500D03*
X113665000Y-66357500D03*
X114935000Y-66357500D03*
X116205000Y-66357500D03*
X117475000Y-66357500D03*
X118745000Y-66357500D03*
X120015000Y-66357500D03*
X121285000Y-66357500D03*
X122555000Y-66357500D03*
X123825000Y-66357500D03*
X125095000Y-66357500D03*
X125095000Y-75882500D03*
X123825000Y-75882500D03*
X122555000Y-75882500D03*
X121285000Y-75882500D03*
X120015000Y-75882500D03*
X118745000Y-75882500D03*
X117475000Y-75882500D03*
X116205000Y-75882500D03*
X114935000Y-75882500D03*
X113665000Y-75882500D03*
X112395000Y-75882500D03*
X111125000Y-75882500D03*
%TD*%
D11*
%TO.C,C5*%
X147393750Y-78740000D03*
X145171250Y-78740000D03*
%TD*%
D13*
%TO.C,R8*%
X117982252Y-79982087D03*
X119982252Y-79982087D03*
%TD*%
D11*
%TO.C,C3*%
X98901250Y-110172500D03*
X96678750Y-110172500D03*
%TD*%
D14*
%TO.C,U4*%
X125095000Y-110490000D03*
X126365000Y-110490000D03*
X127635000Y-110490000D03*
X128905000Y-110490000D03*
X130175000Y-110490000D03*
X131445000Y-110490000D03*
X132715000Y-110490000D03*
X133985000Y-110490000D03*
X135255000Y-110490000D03*
X136525000Y-110490000D03*
X137795000Y-110490000D03*
X139065000Y-110490000D03*
X139065000Y-117475000D03*
X137795000Y-117475000D03*
X136525000Y-117475000D03*
X135255000Y-117475000D03*
X133985000Y-117475000D03*
X132715000Y-117475000D03*
X131445000Y-117475000D03*
X130175000Y-117475000D03*
X128905000Y-117475000D03*
X127635000Y-117475000D03*
X126365000Y-117475000D03*
X125095000Y-117475000D03*
%TD*%
D15*
%TO.C,C14*%
X165417500Y-65405000D03*
X167640000Y-65405000D03*
%TD*%
D10*
%TO.C,R1*%
X116570000Y-97790000D03*
X114570000Y-97790000D03*
%TD*%
D16*
%TO.C,Q1*%
X116522500Y-93662500D03*
X114617500Y-93662500D03*
X115570000Y-91757500D03*
%TD*%
D17*
%TO.C,U2*%
X146685000Y-74612500D03*
X145415000Y-74612500D03*
X144145000Y-74612500D03*
X142875000Y-74612500D03*
X141605000Y-74612500D03*
X140335000Y-74612500D03*
X139065000Y-74612500D03*
X137795000Y-74612500D03*
X136525000Y-74612500D03*
X135255000Y-74612500D03*
X133985000Y-74612500D03*
X132715000Y-74612500D03*
X132715000Y-67627500D03*
X133985000Y-67627500D03*
X135255000Y-67627500D03*
X136525000Y-67627500D03*
X137795000Y-67627500D03*
X139065000Y-67627500D03*
X140335000Y-67627500D03*
X141605000Y-67627500D03*
X142875000Y-67627500D03*
X144145000Y-67627500D03*
X145415000Y-67627500D03*
X146685000Y-67627500D03*
%TD*%
D11*
%TO.C,C8*%
X121761250Y-117792500D03*
X119538750Y-117792500D03*
%TD*%
D10*
%TO.C,R4*%
X129270000Y-91440000D03*
X127270000Y-91440000D03*
%TD*%
D13*
%TO.C,R7*%
X102505000Y-97790000D03*
X104505000Y-97790000D03*
%TD*%
D15*
%TO.C,C11*%
X156601250Y-96520000D03*
X158823750Y-96520000D03*
%TD*%
D17*
%TO.C,U5*%
X169545000Y-91122500D03*
X168275000Y-91122500D03*
X167005000Y-91122500D03*
X165735000Y-91122500D03*
X164465000Y-91122500D03*
X163195000Y-91122500D03*
X161925000Y-91122500D03*
X160655000Y-91122500D03*
X159385000Y-91122500D03*
X158115000Y-91122500D03*
X156845000Y-91122500D03*
X155575000Y-91122500D03*
X155575000Y-84137500D03*
X156845000Y-84137500D03*
X158115000Y-84137500D03*
X159385000Y-84137500D03*
X160655000Y-84137500D03*
X161925000Y-84137500D03*
X163195000Y-84137500D03*
X164465000Y-84137500D03*
X165735000Y-84137500D03*
X167005000Y-84137500D03*
X168275000Y-84137500D03*
X169545000Y-84137500D03*
%TD*%
D16*
%TO.C,Q2*%
X122872500Y-93662500D03*
X120967500Y-93662500D03*
X121920000Y-91757500D03*
%TD*%
D17*
%TO.C,U1*%
X166370000Y-77152500D03*
X165100000Y-77152500D03*
X163830000Y-77152500D03*
X162560000Y-77152500D03*
X161290000Y-77152500D03*
X160020000Y-77152500D03*
X158750000Y-77152500D03*
X157480000Y-77152500D03*
X156210000Y-77152500D03*
X154940000Y-77152500D03*
X153670000Y-77152500D03*
X152400000Y-77152500D03*
X152400000Y-70167500D03*
X153670000Y-70167500D03*
X154940000Y-70167500D03*
X156210000Y-70167500D03*
X157480000Y-70167500D03*
X158750000Y-70167500D03*
X160020000Y-70167500D03*
X161290000Y-70167500D03*
X162560000Y-70167500D03*
X163830000Y-70167500D03*
X165100000Y-70167500D03*
X166370000Y-70167500D03*
%TD*%
D14*
%TO.C,U6*%
X102235000Y-110490000D03*
X103505000Y-110490000D03*
X104775000Y-110490000D03*
X106045000Y-110490000D03*
X107315000Y-110490000D03*
X108585000Y-110490000D03*
X109855000Y-110490000D03*
X111125000Y-110490000D03*
X112395000Y-110490000D03*
X113665000Y-110490000D03*
X114935000Y-110490000D03*
X116205000Y-110490000D03*
X116205000Y-117475000D03*
X114935000Y-117475000D03*
X113665000Y-117475000D03*
X112395000Y-117475000D03*
X111125000Y-117475000D03*
X109855000Y-117475000D03*
X108585000Y-117475000D03*
X107315000Y-117475000D03*
X106045000Y-117475000D03*
X104775000Y-117475000D03*
X103505000Y-117475000D03*
X102235000Y-117475000D03*
%TD*%
D15*
%TO.C,C9*%
X165258750Y-80010000D03*
X167481250Y-80010000D03*
%TD*%
D13*
%TO.C,R3*%
X109490000Y-91440000D03*
X111490000Y-91440000D03*
%TD*%
%TO.C,R6*%
X113300000Y-62230000D03*
X115300000Y-62230000D03*
%TD*%
D18*
%TO.C,C13*%
X172085000Y-93821250D03*
X172085000Y-91598750D03*
%TD*%
D11*
%TO.C,C4*%
X147161250Y-63500000D03*
X144938750Y-63500000D03*
%TD*%
D14*
%TO.C,U3*%
X156845000Y-100647500D03*
X158115000Y-100647500D03*
X159385000Y-100647500D03*
X160655000Y-100647500D03*
X161925000Y-100647500D03*
X163195000Y-100647500D03*
X164465000Y-100647500D03*
X165735000Y-100647500D03*
X167005000Y-100647500D03*
X168275000Y-100647500D03*
X169545000Y-100647500D03*
X170815000Y-100647500D03*
X170815000Y-107632500D03*
X169545000Y-107632500D03*
X168275000Y-107632500D03*
X167005000Y-107632500D03*
X165735000Y-107632500D03*
X164465000Y-107632500D03*
X163195000Y-107632500D03*
X161925000Y-107632500D03*
X160655000Y-107632500D03*
X159385000Y-107632500D03*
X158115000Y-107632500D03*
X156845000Y-107632500D03*
%TD*%
D11*
%TO.C,C6*%
X154146250Y-107950000D03*
X151923750Y-107950000D03*
%TD*%
D19*
%TO.C,C2*%
X110490000Y-78898750D03*
X110490000Y-81121250D03*
%TD*%
D18*
%TO.C,C12*%
X170180000Y-81121250D03*
X170180000Y-78898750D03*
%TD*%
M02*
