%TF.GenerationSoftware,KiCad,Pcbnew,(6.0.4)*%
%TF.CreationDate,2022-05-22T11:47:51-04:00*%
%TF.ProjectId,pertec_arduino_adapter,70657274-6563-45f6-9172-6475696e6f5f,A1*%
%TF.SameCoordinates,Original*%
%TF.FileFunction,Copper,L1,Top*%
%TF.FilePolarity,Positive*%
%FSLAX46Y46*%
G04 Gerber Fmt 4.6, Leading zero omitted, Abs format (unit mm)*
G04 Created by KiCad (PCBNEW (6.0.4)) date 2022-05-22 11:47:51*
%MOMM*%
%LPD*%
G01*
G04 APERTURE LIST*
G04 Aperture macros list*
%AMRoundRect*
0 Rectangle with rounded corners*
0 $1 Rounding radius*
0 $2 $3 $4 $5 $6 $7 $8 $9 X,Y pos of 4 corners*
0 Add a 4 corners polygon primitive as box body*
4,1,4,$2,$3,$4,$5,$6,$7,$8,$9,$2,$3,0*
0 Add four circle primitives for the rounded corners*
1,1,$1+$1,$2,$3*
1,1,$1+$1,$4,$5*
1,1,$1+$1,$6,$7*
1,1,$1+$1,$8,$9*
0 Add four rect primitives between the rounded corners*
20,1,$1+$1,$2,$3,$4,$5,0*
20,1,$1+$1,$4,$5,$6,$7,0*
20,1,$1+$1,$6,$7,$8,$9,0*
20,1,$1+$1,$8,$9,$2,$3,0*%
G04 Aperture macros list end*
%TA.AperFunction,ComponentPad*%
%ADD10RoundRect,0.250500X-0.499500X0.499500X-0.499500X-0.499500X0.499500X-0.499500X0.499500X0.499500X0*%
%TD*%
%TA.AperFunction,ComponentPad*%
%ADD11C,1.500000*%
%TD*%
%TA.AperFunction,ComponentPad*%
%ADD12C,2.500000*%
%TD*%
%TA.AperFunction,ComponentPad*%
%ADD13R,1.700000X1.700000*%
%TD*%
%TA.AperFunction,ComponentPad*%
%ADD14O,1.700000X1.700000*%
%TD*%
%TA.AperFunction,ComponentPad*%
%ADD15RoundRect,0.250000X0.600000X-0.600000X0.600000X0.600000X-0.600000X0.600000X-0.600000X-0.600000X0*%
%TD*%
%TA.AperFunction,ComponentPad*%
%ADD16C,1.700000*%
%TD*%
%TA.AperFunction,ComponentPad*%
%ADD17R,1.350000X1.350000*%
%TD*%
%TA.AperFunction,ComponentPad*%
%ADD18O,1.350000X1.350000*%
%TD*%
%TA.AperFunction,ComponentPad*%
%ADD19R,1.600000X1.600000*%
%TD*%
%TA.AperFunction,ComponentPad*%
%ADD20O,1.600000X1.600000*%
%TD*%
%TA.AperFunction,SMDPad,CuDef*%
%ADD21R,2.540000X3.510000*%
%TD*%
%TA.AperFunction,ComponentPad*%
%ADD22C,1.600000*%
%TD*%
%TA.AperFunction,ComponentPad*%
%ADD23RoundRect,0.250000X-0.600000X0.600000X-0.600000X-0.600000X0.600000X-0.600000X0.600000X0.600000X0*%
%TD*%
%TA.AperFunction,ViaPad*%
%ADD24C,0.800000*%
%TD*%
%TA.AperFunction,Conductor*%
%ADD25C,0.508000*%
%TD*%
%TA.AperFunction,Conductor*%
%ADD26C,0.250000*%
%TD*%
G04 APERTURE END LIST*
D10*
%TO.P,J7,1,TX+*%
%TO.N,ETHERNET_TP*%
X104140000Y-67945000D03*
D11*
%TO.P,J7,2,TXC*%
%TO.N,Net-(C1-Pad1)*%
X106680000Y-69215000D03*
%TO.P,J7,3,TX-*%
%TO.N,ETHERNET_TM*%
X104140000Y-70485000D03*
%TO.P,J7,4,RX+*%
%TO.N,ETHERNET_RP*%
X106680000Y-71755000D03*
%TO.P,J7,5,RXC*%
%TO.N,Net-(C1-Pad1)*%
X104140000Y-73025000D03*
%TO.P,J7,6,RX-*%
%TO.N,ETHERNET_RM*%
X106680000Y-74295000D03*
%TO.P,J7,7,NC*%
%TO.N,unconnected-(J7-Pad7)*%
X104140000Y-75565000D03*
%TO.P,J7,8,GND*%
%TO.N,ETHERNET_G*%
X106680000Y-76835000D03*
%TO.P,J7,9,LEDG_K*%
X92710000Y-66065000D03*
%TO.P,J7,10,LEDG_A*%
%TO.N,ETHERNET_LED*%
X94410000Y-68605000D03*
%TO.P,J7,11,LEDY_K*%
%TO.N,unconnected-(J7-Pad11)*%
X92710000Y-76175000D03*
%TO.P,J7,12,LEDY_A*%
%TO.N,unconnected-(J7-Pad12)*%
X94410000Y-78715000D03*
D12*
%TO.P,J7,13,SHIELD*%
%TO.N,ETHERNET_G*%
X100840000Y-80265000D03*
X100840000Y-64515000D03*
%TD*%
D13*
%TO.P,J4,1,Pin_1*%
%TO.N,+5V*%
X90170000Y-87630000D03*
D14*
%TO.P,J4,2,Pin_2*%
%TO.N,GNDREF*%
X92710000Y-87630000D03*
%TO.P,J4,3,Pin_3*%
%TO.N,+3V3*%
X95250000Y-87630000D03*
%TO.P,J4,4,Pin_4*%
%TO.N,LVIW6*%
X97790000Y-87630000D03*
%TO.P,J4,5,Pin_5*%
%TO.N,LVIW7*%
X100330000Y-87630000D03*
%TO.P,J4,6,Pin_6*%
%TO.N,LVIW4*%
X102870000Y-87630000D03*
%TO.P,J4,7,Pin_7*%
%TO.N,LVIW5*%
X105410000Y-87630000D03*
%TO.P,J4,8,Pin_8*%
%TO.N,LVIR7*%
X107950000Y-87630000D03*
%TO.P,J4,9,Pin_9*%
%TO.N,LVIR6*%
X110490000Y-87630000D03*
%TO.P,J4,10,Pin_10*%
%TO.N,LVIR1*%
X113030000Y-87630000D03*
%TO.P,J4,11,Pin_11*%
%TO.N,LVIR0*%
X115570000Y-87630000D03*
%TO.P,J4,12,Pin_12*%
%TO.N,LVIR4*%
X118110000Y-87630000D03*
%TO.P,J4,13,Pin_13*%
%TO.N,LVIR5*%
X120650000Y-87630000D03*
%TO.P,J4,14,Pin_14*%
%TO.N,LVILWD*%
X123190000Y-87630000D03*
%TO.P,J4,15,Pin_15*%
%TO.N,GNDREF*%
X125730000Y-87630000D03*
%TO.P,J4,16,Pin_16*%
%TO.N,LVIR2*%
X128270000Y-87630000D03*
%TO.P,J4,17,Pin_17*%
%TO.N,LVIR3*%
X130810000Y-87630000D03*
%TO.P,J4,18,Pin_18*%
%TO.N,LVIW2*%
X133350000Y-87630000D03*
%TO.P,J4,19,Pin_19*%
%TO.N,LVIW3*%
X135890000Y-87630000D03*
%TO.P,J4,20,Pin_20*%
%TO.N,LVIWSTR*%
X138430000Y-87630000D03*
%TO.P,J4,21,Pin_21*%
%TO.N,LVIRSTR*%
X140970000Y-87630000D03*
%TO.P,J4,22,Pin_22*%
%TO.N,LVIHER*%
X143510000Y-87630000D03*
%TO.P,J4,23,Pin_23*%
%TO.N,LVICER*%
X146050000Y-87630000D03*
%TO.P,J4,24,Pin_24*%
%TO.N,LVIFBY*%
X148590000Y-87630000D03*
%TD*%
D13*
%TO.P,JP1,1,A*%
%TO.N,Net-(JP1-Pad1)*%
X115570000Y-121545766D03*
D14*
%TO.P,JP1,2,C*%
%TO.N,ISGL*%
X113030000Y-121545766D03*
%TO.P,JP1,3,B*%
%TO.N,Net-(JP1-Pad3)*%
X110490000Y-121545766D03*
%TD*%
D15*
%TO.P,J1,1,Pin_1*%
%TO.N,GNDREF*%
X100325000Y-133985000D03*
D16*
%TO.P,J1,2,Pin_2*%
%TO.N,IFBY*%
X100325000Y-131445000D03*
%TO.P,J1,3,Pin_3*%
%TO.N,GNDREF*%
X102865000Y-133985000D03*
%TO.P,J1,4,Pin_4*%
%TO.N,ILWD*%
X102865000Y-131445000D03*
%TO.P,J1,5,Pin_5*%
%TO.N,GNDREF*%
X105405000Y-133985000D03*
%TO.P,J1,6,Pin_6*%
%TO.N,IW4*%
X105405000Y-131445000D03*
%TO.P,J1,7,Pin_7*%
%TO.N,GNDREF*%
X107945000Y-133985000D03*
%TO.P,J1,8,Pin_8*%
%TO.N,IGO*%
X107945000Y-131445000D03*
%TO.P,J1,9,Pin_9*%
%TO.N,GNDREF*%
X110485000Y-133985000D03*
%TO.P,J1,10,Pin_10*%
%TO.N,IW0*%
X110485000Y-131445000D03*
%TO.P,J1,11,Pin_11*%
%TO.N,GNDREF*%
X113025000Y-133985000D03*
%TO.P,J1,12,Pin_12*%
%TO.N,IW1*%
X113025000Y-131445000D03*
%TO.P,J1,13,Pin_13*%
%TO.N,GNDREF*%
X115565000Y-133985000D03*
%TO.P,J1,14,Pin_14*%
%TO.N,ISGL*%
X115565000Y-131445000D03*
%TO.P,J1,15,Pin_15*%
%TO.N,GNDREF*%
X118105000Y-133985000D03*
%TO.P,J1,16,Pin_16*%
%TO.N,ILOL*%
X118105000Y-131445000D03*
%TO.P,J1,17,Pin_17*%
%TO.N,GNDREF*%
X120645000Y-133985000D03*
%TO.P,J1,18,Pin_18*%
%TO.N,IREV*%
X120645000Y-131445000D03*
%TO.P,J1,19,Pin_19*%
%TO.N,GNDREF*%
X123185000Y-133985000D03*
%TO.P,J1,20,Pin_20*%
%TO.N,IREW*%
X123185000Y-131445000D03*
%TO.P,J1,21,Pin_21*%
%TO.N,GNDREF*%
X125725000Y-133985000D03*
%TO.P,J1,22,Pin_22*%
%TO.N,IWP*%
X125725000Y-131445000D03*
%TO.P,J1,23,Pin_23*%
%TO.N,GNDREF*%
X128265000Y-133985000D03*
%TO.P,J1,24,Pin_24*%
%TO.N,IW7*%
X128265000Y-131445000D03*
%TO.P,J1,25,Pin_25*%
%TO.N,GNDREF*%
X130805000Y-133985000D03*
%TO.P,J1,26,Pin_26*%
%TO.N,IW3*%
X130805000Y-131445000D03*
%TO.P,J1,27,Pin_27*%
%TO.N,GNDREF*%
X133345000Y-133985000D03*
%TO.P,J1,28,Pin_28*%
%TO.N,IW6*%
X133345000Y-131445000D03*
%TO.P,J1,29,Pin_29*%
%TO.N,GNDREF*%
X135885000Y-133985000D03*
%TO.P,J1,30,Pin_30*%
%TO.N,IW2*%
X135885000Y-131445000D03*
%TO.P,J1,31,Pin_31*%
%TO.N,GNDREF*%
X138425000Y-133985000D03*
%TO.P,J1,32,Pin_32*%
%TO.N,IW5*%
X138425000Y-131445000D03*
%TO.P,J1,33,Pin_33*%
%TO.N,GNDREF*%
X140965000Y-133985000D03*
%TO.P,J1,34,Pin_34*%
%TO.N,IWRT*%
X140965000Y-131445000D03*
%TO.P,J1,35,Pin_35*%
%TO.N,GNDREF*%
X143505000Y-133985000D03*
%TO.P,J1,36,Pin_36*%
%TO.N,IRTH2*%
X143505000Y-131445000D03*
%TO.P,J1,37,Pin_37*%
%TO.N,GNDREF*%
X146045000Y-133985000D03*
%TO.P,J1,38,Pin_38*%
%TO.N,IEDIT*%
X146045000Y-131445000D03*
%TO.P,J1,39,Pin_39*%
%TO.N,GNDREF*%
X148585000Y-133985000D03*
%TO.P,J1,40,Pin_40*%
%TO.N,IERASE*%
X148585000Y-131445000D03*
%TO.P,J1,41,Pin_41*%
%TO.N,GNDREF*%
X151125000Y-133985000D03*
%TO.P,J1,42,Pin_42*%
%TO.N,IWFM*%
X151125000Y-131445000D03*
%TO.P,J1,43,Pin_43*%
%TO.N,GNDREF*%
X153665000Y-133985000D03*
%TO.P,J1,44,Pin_44*%
%TO.N,IRTH1*%
X153665000Y-131445000D03*
%TO.P,J1,45,Pin_45*%
%TO.N,GNDREF*%
X156205000Y-133985000D03*
%TO.P,J1,46,Pin_46*%
%TO.N,ITAD0*%
X156205000Y-131445000D03*
%TO.P,J1,47,Pin_47*%
%TO.N,GNDREF*%
X158745000Y-133985000D03*
%TO.P,J1,48,Pin_48*%
%TO.N,IR2*%
X158745000Y-131445000D03*
%TO.P,J1,49,Pin_49*%
%TO.N,GNDREF*%
X161285000Y-133985000D03*
%TO.P,J1,50,Pin_50*%
%TO.N,IR3*%
X161285000Y-131445000D03*
%TD*%
D17*
%TO.P,J3,1,Pin_1*%
%TO.N,ETHERNET_TM*%
X103108000Y-90080000D03*
D18*
%TO.P,J3,2,Pin_2*%
%TO.N,ETHERNET_TP*%
X105108000Y-90080000D03*
%TO.P,J3,3,Pin_3*%
%TO.N,ETHERNET_LED*%
X103108000Y-92080000D03*
%TO.P,J3,4,Pin_4*%
%TO.N,ETHERNET_G*%
X105108000Y-92080000D03*
%TO.P,J3,5,Pin_5*%
%TO.N,ETHERNET_RP*%
X103108000Y-94080000D03*
%TO.P,J3,6,Pin_6*%
%TO.N,ETHERNET_RM*%
X105108000Y-94080000D03*
%TD*%
D19*
%TO.P,RN5,1,1*%
%TO.N,GNDREF*%
X93345000Y-125095000D03*
D20*
%TO.P,RN5,2,2*%
%TO.N,ILWD*%
X95885000Y-125095000D03*
%TO.P,RN5,3,3*%
%TO.N,IW4*%
X98425000Y-125095000D03*
%TO.P,RN5,4,4*%
%TO.N,IGO*%
X100965000Y-125095000D03*
%TO.P,RN5,5,5*%
%TO.N,IW0*%
X103505000Y-125095000D03*
%TO.P,RN5,6,6*%
%TO.N,IW1*%
X106045000Y-125095000D03*
%TO.P,RN5,7,7*%
%TO.N,Net-(JP1-Pad3)*%
X108585000Y-125095000D03*
%TO.P,RN5,8,8*%
%TO.N,ILOL*%
X111125000Y-125095000D03*
%TO.P,RN5,9,9*%
%TO.N,IREV*%
X113665000Y-125095000D03*
%TO.P,RN5,10,10*%
%TO.N,+5V*%
X116205000Y-125095000D03*
%TD*%
D13*
%TO.P,J5,1,Pin_1*%
%TO.N,GNDREF*%
X90180000Y-102845000D03*
D14*
%TO.P,J5,2,Pin_2*%
%TO.N,LVIFMK*%
X92720000Y-102845000D03*
%TO.P,J5,3,Pin_3*%
%TO.N,LVIRP*%
X95260000Y-102845000D03*
%TO.P,J5,4,Pin_4*%
%TO.N,LVIRDY*%
X97800000Y-102845000D03*
%TO.P,J5,5,Pin_5*%
%TO.N,DIRA*%
X100340000Y-102845000D03*
%TO.P,J5,6,Pin_6*%
%TO.N,LVIDBY*%
X102880000Y-102845000D03*
%TO.P,J5,7,Pin_7*%
%TO.N,~{LPI2C4_INT}*%
X105420000Y-102845000D03*
%TO.P,J5,8,Pin_8*%
%TO.N,LVIGO*%
X107960000Y-102845000D03*
%TO.P,J5,9,Pin_9*%
%TO.N,LVIWP*%
X110500000Y-102845000D03*
%TO.P,J5,10,Pin_10*%
%TO.N,LVIREW*%
X113040000Y-102845000D03*
%TO.P,J5,11,Pin_11*%
%TO.N,LVIREV*%
X115580000Y-102845000D03*
%TO.P,J5,12,Pin_12*%
%TO.N,LVIWRT*%
X118120000Y-102845000D03*
%TO.P,J5,13,Pin_13*%
%TO.N,LVIEDIT*%
X120660000Y-102845000D03*
%TO.P,J5,14,Pin_14*%
%TO.N,LVIERASE*%
X123200000Y-102845000D03*
%TO.P,J5,15,Pin_15*%
%TO.N,+3V3*%
X125740000Y-102845000D03*
%TO.P,J5,16,Pin_16*%
%TO.N,LPI2C4_SCL*%
X128280000Y-102845000D03*
%TO.P,J5,17,Pin_17*%
%TO.N,LPI2C4_SDA*%
X130820000Y-102845000D03*
%TO.P,J5,18,Pin_18*%
%TO.N,LVIW1*%
X133360000Y-102845000D03*
%TO.P,J5,19,Pin_19*%
%TO.N,LVIW0*%
X135900000Y-102845000D03*
%TO.P,J5,20,Pin_20*%
%TO.N,DIRB*%
X138440000Y-102845000D03*
%TO.P,J5,21,Pin_21*%
%TO.N,OEA*%
X140980000Y-102845000D03*
%TO.P,J5,22,Pin_22*%
%TO.N,LVIOFL*%
X143520000Y-102845000D03*
%TO.P,J5,23,Pin_23*%
%TO.N,LVIEOT*%
X146060000Y-102845000D03*
%TO.P,J5,24,Pin_24*%
%TO.N,LVIWFM*%
X148600000Y-102845000D03*
%TD*%
D21*
%TO.P,BT1,1,+*%
%TO.N,Net-(BT1-Pad1)*%
X144070000Y-74930000D03*
%TO.P,BT1,2,-*%
%TO.N,GNDREF*%
X173430000Y-74930000D03*
%TD*%
D19*
%TO.P,RN8,1,1*%
%TO.N,GNDREF*%
X120650000Y-52070000D03*
D20*
%TO.P,RN8,2,2*%
%TO.N,IFEN*%
X118110000Y-52070000D03*
%TO.P,RN8,3,3*%
%TO.N,IOFL*%
X115570000Y-52070000D03*
%TO.P,RN8,4,4*%
%TO.N,ITAD1*%
X113030000Y-52070000D03*
%TO.P,RN8,5,5*%
%TO.N,IFAD*%
X110490000Y-52070000D03*
%TO.P,RN8,6,6*%
%TO.N,IDEN*%
X107950000Y-52070000D03*
%TO.P,RN8,7,7*%
%TO.N,unconnected-(RN8-Pad7)*%
X105410000Y-52070000D03*
%TO.P,RN8,8,8*%
%TO.N,unconnected-(RN8-Pad8)*%
X102870000Y-52070000D03*
%TO.P,RN8,9,9*%
%TO.N,unconnected-(RN8-Pad9)*%
X100330000Y-52070000D03*
%TO.P,RN8,10,10*%
%TO.N,+5V*%
X97790000Y-52070000D03*
%TD*%
D19*
%TO.P,RN1,1,1*%
%TO.N,GNDREF*%
X170175000Y-58420000D03*
D20*
%TO.P,RN1,2,2*%
%TO.N,IRP*%
X167635000Y-58420000D03*
%TO.P,RN1,3,3*%
%TO.N,IR0*%
X165095000Y-58420000D03*
%TO.P,RN1,4,4*%
%TO.N,IR1*%
X162555000Y-58420000D03*
%TO.P,RN1,5,5*%
%TO.N,ILDP*%
X160015000Y-58420000D03*
%TO.P,RN1,6,6*%
%TO.N,IR4*%
X157475000Y-58420000D03*
%TO.P,RN1,7,7*%
%TO.N,IR7*%
X154935000Y-58420000D03*
%TO.P,RN1,8,8*%
%TO.N,IR6*%
X152395000Y-58420000D03*
%TO.P,RN1,9,9*%
%TO.N,IHER*%
X149855000Y-58420000D03*
%TO.P,RN1,10,10*%
%TO.N,+5V*%
X147315000Y-58420000D03*
%TD*%
D19*
%TO.P,RN4,1,1*%
%TO.N,GNDREF*%
X149865000Y-113665000D03*
D20*
%TO.P,RN4,2,2*%
%TO.N,Net-(JP1-Pad1)*%
X152405000Y-113665000D03*
%TO.P,RN4,3,3*%
%TO.N,IFBY*%
X154945000Y-113665000D03*
%TO.P,RN4,4,4*%
%TO.N,IR2*%
X157485000Y-113665000D03*
%TO.P,RN4,5,5*%
%TO.N,IR3*%
X160025000Y-113665000D03*
%TO.P,RN4,6,6*%
%TO.N,unconnected-(RN4-Pad6)*%
X162565000Y-113665000D03*
%TO.P,RN4,7,7*%
%TO.N,unconnected-(RN4-Pad7)*%
X165105000Y-113665000D03*
%TO.P,RN4,8,8*%
%TO.N,unconnected-(RN4-Pad8)*%
X167645000Y-113665000D03*
%TO.P,RN4,9,9*%
%TO.N,unconnected-(RN4-Pad9)*%
X170185000Y-113665000D03*
%TO.P,RN4,10,10*%
%TO.N,+5V*%
X172725000Y-113665000D03*
%TD*%
D19*
%TO.P,RN7,1,1*%
%TO.N,GNDREF*%
X149860000Y-125095000D03*
D20*
%TO.P,RN7,2,2*%
%TO.N,IRTH2*%
X152400000Y-125095000D03*
%TO.P,RN7,3,3*%
%TO.N,IEDIT*%
X154940000Y-125095000D03*
%TO.P,RN7,4,4*%
%TO.N,IERASE*%
X157480000Y-125095000D03*
%TO.P,RN7,5,5*%
%TO.N,IWFM*%
X160020000Y-125095000D03*
%TO.P,RN7,6,6*%
%TO.N,IRTH1*%
X162560000Y-125095000D03*
%TO.P,RN7,7,7*%
%TO.N,ITAD0*%
X165100000Y-125095000D03*
%TO.P,RN7,8,8*%
%TO.N,unconnected-(RN7-Pad8)*%
X167640000Y-125095000D03*
%TO.P,RN7,9,9*%
%TO.N,unconnected-(RN7-Pad9)*%
X170180000Y-125095000D03*
%TO.P,RN7,10,10*%
%TO.N,+5V*%
X172720000Y-125095000D03*
%TD*%
D22*
%TO.P,C1,1*%
%TO.N,Net-(C1-Pad1)*%
X109855000Y-62230000D03*
%TO.P,C1,2*%
%TO.N,ETHERNET_G*%
X107315000Y-62230000D03*
%TD*%
D19*
%TO.P,RN2,1,1*%
%TO.N,GNDREF*%
X143505000Y-58420000D03*
D20*
%TO.P,RN2,2,2*%
%TO.N,IFMK*%
X140965000Y-58420000D03*
%TO.P,RN2,3,3*%
%TO.N,IDENT*%
X138425000Y-58420000D03*
%TO.P,RN2,4,4*%
%TO.N,IR5*%
X135885000Y-58420000D03*
%TO.P,RN2,5,5*%
%TO.N,IEOT*%
X133345000Y-58420000D03*
%TO.P,RN2,6,6*%
%TO.N,INRZ*%
X130805000Y-58420000D03*
%TO.P,RN2,7,7*%
%TO.N,IRDY*%
X128265000Y-58420000D03*
%TO.P,RN2,8,8*%
%TO.N,IRWD*%
X125725000Y-58420000D03*
%TO.P,RN2,9,9*%
%TO.N,IFPT*%
X123185000Y-58420000D03*
%TO.P,RN2,10,10*%
%TO.N,+5V*%
X120645000Y-58420000D03*
%TD*%
D19*
%TO.P,RN3,1,1*%
%TO.N,GNDREF*%
X116840000Y-58420000D03*
D20*
%TO.P,RN3,2,2*%
%TO.N,IRSTR*%
X114300000Y-58420000D03*
%TO.P,RN3,3,3*%
%TO.N,IWSTR*%
X111760000Y-58420000D03*
%TO.P,RN3,4,4*%
%TO.N,IDBY*%
X109220000Y-58420000D03*
%TO.P,RN3,5,5*%
%TO.N,ISPEED*%
X106680000Y-58420000D03*
%TO.P,RN3,6,6*%
%TO.N,ICER*%
X104140000Y-58420000D03*
%TO.P,RN3,7,7*%
%TO.N,IONL*%
X101600000Y-58420000D03*
%TO.P,RN3,8,8*%
%TO.N,unconnected-(RN3-Pad8)*%
X99060000Y-58420000D03*
%TO.P,RN3,9,9*%
%TO.N,unconnected-(RN3-Pad9)*%
X96520000Y-58420000D03*
%TO.P,RN3,10,10*%
%TO.N,+5V*%
X93980000Y-58420000D03*
%TD*%
D13*
%TO.P,J6,1,Pin_1*%
%TO.N,unconnected-(J6-Pad1)*%
X135915000Y-90200000D03*
D14*
%TO.P,J6,2,Pin_2*%
%TO.N,unconnected-(J6-Pad2)*%
X135915000Y-92740000D03*
%TO.P,J6,3,Pin_3*%
%TO.N,GNDREF*%
X135915000Y-95280000D03*
%TO.P,J6,4,Pin_4*%
%TO.N,+3V3*%
X135915000Y-97820000D03*
%TO.P,J6,5,Pin_5*%
%TO.N,Net-(BT1-Pad1)*%
X135915000Y-100360000D03*
%TD*%
D19*
%TO.P,RN6,1,1*%
%TO.N,GNDREF*%
X121920000Y-125095000D03*
D20*
%TO.P,RN6,2,2*%
%TO.N,IREW*%
X124460000Y-125095000D03*
%TO.P,RN6,3,3*%
%TO.N,IWP*%
X127000000Y-125095000D03*
%TO.P,RN6,4,4*%
%TO.N,IW7*%
X129540000Y-125095000D03*
%TO.P,RN6,5,5*%
%TO.N,IW3*%
X132080000Y-125095000D03*
%TO.P,RN6,6,6*%
%TO.N,IW6*%
X134620000Y-125095000D03*
%TO.P,RN6,7,7*%
%TO.N,IW2*%
X137160000Y-125095000D03*
%TO.P,RN6,8,8*%
%TO.N,IW5*%
X139700000Y-125095000D03*
%TO.P,RN6,9,9*%
%TO.N,IWRT*%
X142240000Y-125095000D03*
%TO.P,RN6,10,10*%
%TO.N,+5V*%
X144780000Y-125095000D03*
%TD*%
D23*
%TO.P,J2,1,Pin_1*%
%TO.N,IRP*%
X162565000Y-42427500D03*
D16*
%TO.P,J2,2,Pin_2*%
%TO.N,IR0*%
X162565000Y-44967500D03*
%TO.P,J2,3,Pin_3*%
%TO.N,IR1*%
X160025000Y-42427500D03*
%TO.P,J2,4,Pin_4*%
%TO.N,ILDP*%
X160025000Y-44967500D03*
%TO.P,J2,5,Pin_5*%
%TO.N,GNDREF*%
X157485000Y-42427500D03*
%TO.P,J2,6,Pin_6*%
%TO.N,IR4*%
X157485000Y-44967500D03*
%TO.P,J2,7,Pin_7*%
%TO.N,GNDREF*%
X154945000Y-42427500D03*
%TO.P,J2,8,Pin_8*%
%TO.N,IR7*%
X154945000Y-44967500D03*
%TO.P,J2,9,Pin_9*%
%TO.N,GNDREF*%
X152405000Y-42427500D03*
%TO.P,J2,10,Pin_10*%
%TO.N,IR6*%
X152405000Y-44967500D03*
%TO.P,J2,11,Pin_11*%
%TO.N,GNDREF*%
X149865000Y-42427500D03*
%TO.P,J2,12,Pin_12*%
%TO.N,IHER*%
X149865000Y-44967500D03*
%TO.P,J2,13,Pin_13*%
%TO.N,GNDREF*%
X147325000Y-42427500D03*
%TO.P,J2,14,Pin_14*%
%TO.N,IFMK*%
X147325000Y-44967500D03*
%TO.P,J2,15,Pin_15*%
%TO.N,GNDREF*%
X144785000Y-42427500D03*
%TO.P,J2,16,Pin_16*%
%TO.N,IDENT*%
X144785000Y-44967500D03*
%TO.P,J2,17,Pin_17*%
%TO.N,GNDREF*%
X142245000Y-42427500D03*
%TO.P,J2,18,Pin_18*%
%TO.N,IFEN*%
X142245000Y-44967500D03*
%TO.P,J2,19,Pin_19*%
%TO.N,GNDREF*%
X139705000Y-42427500D03*
%TO.P,J2,20,Pin_20*%
%TO.N,IR5*%
X139705000Y-44967500D03*
%TO.P,J2,21,Pin_21*%
%TO.N,GNDREF*%
X137165000Y-42427500D03*
%TO.P,J2,22,Pin_22*%
%TO.N,IEOT*%
X137165000Y-44967500D03*
%TO.P,J2,23,Pin_23*%
%TO.N,GNDREF*%
X134625000Y-42427500D03*
%TO.P,J2,24,Pin_24*%
%TO.N,IOFL*%
X134625000Y-44967500D03*
%TO.P,J2,25,Pin_25*%
%TO.N,GNDREF*%
X132085000Y-42427500D03*
%TO.P,J2,26,Pin_26*%
%TO.N,INRZ*%
X132085000Y-44967500D03*
%TO.P,J2,27,Pin_27*%
%TO.N,GNDREF*%
X129545000Y-42427500D03*
%TO.P,J2,28,Pin_28*%
%TO.N,IRDY*%
X129545000Y-44967500D03*
%TO.P,J2,29,Pin_29*%
%TO.N,GNDREF*%
X127005000Y-42427500D03*
%TO.P,J2,30,Pin_30*%
%TO.N,IRWD*%
X127005000Y-44967500D03*
%TO.P,J2,31,Pin_31*%
%TO.N,GNDREF*%
X124465000Y-42427500D03*
%TO.P,J2,32,Pin_32*%
%TO.N,IFPT*%
X124465000Y-44967500D03*
%TO.P,J2,33,Pin_33*%
%TO.N,GNDREF*%
X121925000Y-42427500D03*
%TO.P,J2,34,Pin_34*%
%TO.N,IRSTR*%
X121925000Y-44967500D03*
%TO.P,J2,35,Pin_35*%
%TO.N,GNDREF*%
X119385000Y-42427500D03*
%TO.P,J2,36,Pin_36*%
%TO.N,IWSTR*%
X119385000Y-44967500D03*
%TO.P,J2,37,Pin_37*%
%TO.N,GNDREF*%
X116845000Y-42427500D03*
%TO.P,J2,38,Pin_38*%
%TO.N,IDBY*%
X116845000Y-44967500D03*
%TO.P,J2,39,Pin_39*%
%TO.N,GNDREF*%
X114305000Y-42427500D03*
%TO.P,J2,40,Pin_40*%
%TO.N,ISPEED*%
X114305000Y-44967500D03*
%TO.P,J2,41,Pin_41*%
%TO.N,GNDREF*%
X111765000Y-42427500D03*
%TO.P,J2,42,Pin_42*%
%TO.N,ICER*%
X111765000Y-44967500D03*
%TO.P,J2,43,Pin_43*%
%TO.N,GNDREF*%
X109225000Y-42427500D03*
%TO.P,J2,44,Pin_44*%
%TO.N,IONL*%
X109225000Y-44967500D03*
%TO.P,J2,45,Pin_45*%
%TO.N,GNDREF*%
X106685000Y-42427500D03*
%TO.P,J2,46,Pin_46*%
%TO.N,ITAD1*%
X106685000Y-44967500D03*
%TO.P,J2,47,Pin_47*%
%TO.N,GNDREF*%
X104145000Y-42427500D03*
%TO.P,J2,48,Pin_48*%
%TO.N,IFAD*%
X104145000Y-44967500D03*
%TO.P,J2,49,Pin_49*%
%TO.N,GNDREF*%
X101605000Y-42427500D03*
%TO.P,J2,50,Pin_50*%
%TO.N,IDEN*%
X101605000Y-44967500D03*
%TD*%
D24*
%TO.N,GNDREF*%
X155575000Y-92710000D03*
X168910000Y-65405000D03*
X140335000Y-117475000D03*
X170815000Y-106045000D03*
X110490000Y-82550000D03*
X130810000Y-67310000D03*
X145415000Y-65405000D03*
X145187051Y-80065824D03*
X96520000Y-111442500D03*
X169545000Y-77470000D03*
X132715000Y-73025000D03*
X151130000Y-69850000D03*
X167005000Y-82550000D03*
X96520000Y-116522500D03*
X125730000Y-65405000D03*
X117187500Y-117445000D03*
X171450000Y-74930000D03*
X116950845Y-61742612D03*
X127635000Y-119697500D03*
X155575000Y-85725000D03*
X118619395Y-78698131D03*
X170815000Y-98425000D03*
X153035000Y-78740000D03*
X151765000Y-106680000D03*
X118110000Y-110490000D03*
X104140000Y-119134891D03*
X172085000Y-90170000D03*
X137795000Y-112077500D03*
%TO.N,ISGL*%
X125806758Y-80317032D03*
%TO.N,ILOL*%
X116840000Y-81280000D03*
X117475000Y-109220000D03*
X111125000Y-95885000D03*
%TO.N,IRTH2*%
X121661813Y-78837692D03*
X132080000Y-99695000D03*
%TO.N,IWFM*%
X163830000Y-97155000D03*
%TO.N,IRTH1*%
X120015000Y-78209670D03*
X133985000Y-100330000D03*
%TO.N,ITAD0*%
X121285000Y-72390000D03*
X130397734Y-98846081D03*
%TO.N,ILDP*%
X118549615Y-77567692D03*
%TO.N,IDENT*%
X114300000Y-69850000D03*
%TO.N,IFEN*%
X121920000Y-68580000D03*
X115570000Y-59690000D03*
%TO.N,IOFL*%
X156844999Y-81698681D03*
X149225000Y-72390000D03*
X148590000Y-56515000D03*
%TO.N,INRZ*%
X126085879Y-59984150D03*
%TO.N,IFPT*%
X119380000Y-67945000D03*
X120158138Y-63634431D03*
%TO.N,IRSTR*%
X136525000Y-69215000D03*
%TO.N,IWSTR*%
X130299530Y-61837620D03*
%TO.N,IDBY*%
X128474509Y-61193495D03*
%TO.N,ISPEED*%
X115570000Y-68580000D03*
%TO.N,ICER*%
X128905000Y-71755000D03*
X159385000Y-73025000D03*
X161290000Y-104775000D03*
%TO.N,IONL*%
X117475000Y-72390000D03*
%TO.N,ITAD1*%
X117475000Y-60325000D03*
X123825000Y-64135000D03*
%TO.N,IFAD*%
X128270000Y-55880000D03*
%TO.N,IDEN*%
X120015000Y-73660000D03*
%TO.N,+3V3*%
X116537812Y-95914251D03*
X147320000Y-80645000D03*
X153035000Y-83820000D03*
X125730000Y-97790000D03*
X129540000Y-97790000D03*
X153035000Y-95250000D03*
X100330000Y-97790000D03*
%TO.N,ETHERNET_TM*%
X101600000Y-84455000D03*
%TO.N,+5V*%
X100330000Y-117475000D03*
X123190000Y-117792500D03*
X147320000Y-65405000D03*
X110490000Y-92710000D03*
X110490000Y-77470000D03*
X127635000Y-93345000D03*
X165100000Y-67310000D03*
X169227500Y-82232500D03*
X155575000Y-107950000D03*
%TO.N,Net-(Q1-Pad3)*%
X111744731Y-90057993D03*
X112395000Y-81915000D03*
%TO.N,LVIW6*%
X130175000Y-107950000D03*
X118745000Y-107315000D03*
X108585000Y-95250000D03*
%TO.N,Net-(Q2-Pad3)*%
X114935000Y-80010000D03*
X120650000Y-91440000D03*
%TO.N,LVIW7*%
X103505000Y-114300000D03*
X127635000Y-108585000D03*
%TO.N,LVIW5*%
X132715000Y-107950000D03*
X118745000Y-105410000D03*
%TO.N,LVIR1*%
X162846098Y-79751813D03*
X161925000Y-74930000D03*
%TO.N,LVIR5*%
X142875000Y-79375000D03*
X140655989Y-85627307D03*
%TO.N,LVILWD*%
X104775000Y-107315000D03*
%TO.N,LVIR2*%
X129540000Y-95885000D03*
X147955000Y-97790000D03*
X144780000Y-97790000D03*
%TO.N,LVIR3*%
X142709521Y-97452064D03*
X146685000Y-99060000D03*
X130810000Y-91440000D03*
%TO.N,LVIW2*%
X132059065Y-101216208D03*
%TO.N,LVIW3*%
X138430000Y-93980000D03*
%TO.N,LVIWSTR*%
X136552912Y-79654120D03*
%TO.N,LVIRSTR*%
X137795000Y-79612252D03*
%TO.N,LVIHER*%
X143789120Y-83394340D03*
%TO.N,LVIFBY*%
X149860000Y-95250000D03*
%TO.N,LVIFMK*%
X132080000Y-80010000D03*
X143330897Y-77723534D03*
%TO.N,LVIRP*%
X150146098Y-74022857D03*
X163830000Y-74930000D03*
%TO.N,LVIRDY*%
X95250000Y-95250000D03*
%TO.N,DIRA*%
X100965000Y-115570000D03*
X158115000Y-99060000D03*
X141441709Y-115794974D03*
X163830000Y-78740000D03*
X147634010Y-75669670D03*
%TO.N,LVIDBY*%
X124278571Y-81175329D03*
X103505000Y-100330000D03*
%TO.N,~{LPI2C4_INT}*%
X109855000Y-96520000D03*
X107950000Y-100330000D03*
X111125000Y-73025000D03*
%TO.N,LVIREW*%
X112395000Y-107315000D03*
%TO.N,LVIREV*%
X112395000Y-106045000D03*
%TO.N,LVIWRT*%
X133350000Y-106680000D03*
%TO.N,LVIEDIT*%
X134620000Y-106680000D03*
%TO.N,LVIERASE*%
X133985000Y-104775000D03*
%TO.N,LPI2C4_SCL*%
X120650000Y-99060000D03*
%TO.N,LPI2C4_SDA*%
X124460000Y-100965000D03*
%TO.N,LVIW1*%
X115570000Y-112395000D03*
%TO.N,LVIW0*%
X114823351Y-113148626D03*
%TO.N,DIRB*%
X127930309Y-113895274D03*
X114055769Y-113881318D03*
X165735000Y-94615000D03*
%TO.N,OEA*%
X142047605Y-98297401D03*
X144145000Y-69850000D03*
X163830000Y-72390000D03*
X143510000Y-92075000D03*
%TO.N,LVIOFL*%
X158115000Y-93345000D03*
%TO.N,LVIEOT*%
X144780000Y-90805000D03*
X144145000Y-80645000D03*
%TO.N,LVIWFM*%
X161925000Y-97155000D03*
%TD*%
D25*
%TO.N,GNDREF*%
X173430000Y-74930000D02*
X171450000Y-74930000D01*
D26*
%TO.N,IFBY*%
X142240000Y-130175000D02*
X144145000Y-128270000D01*
X147320000Y-123825000D02*
X154940000Y-116205000D01*
X147320000Y-125730000D02*
X147320000Y-123825000D01*
X97790000Y-134620000D02*
X99060000Y-135890000D01*
X140970000Y-135890000D02*
X142240000Y-134620000D01*
X144145000Y-128270000D02*
X144780000Y-128270000D01*
X97790000Y-133350000D02*
X97790000Y-134620000D01*
X144780000Y-128270000D02*
X147320000Y-125730000D01*
X142240000Y-134620000D02*
X142240000Y-130175000D01*
X154940000Y-116205000D02*
X154940000Y-113665000D01*
X99060000Y-135890000D02*
X140970000Y-135890000D01*
X99695000Y-131445000D02*
X97790000Y-133350000D01*
%TO.N,ILWD*%
X99060000Y-129540000D02*
X101600000Y-129540000D01*
X95885000Y-126365000D02*
X99060000Y-129540000D01*
X95885000Y-125095000D02*
X95885000Y-126365000D01*
X101600000Y-129540000D02*
X102870000Y-130810000D01*
%TO.N,IGO*%
X100965000Y-126365000D02*
X102870000Y-128270000D01*
X105410000Y-128270000D02*
X107950000Y-130810000D01*
X102870000Y-128270000D02*
X105410000Y-128270000D01*
X100965000Y-125095000D02*
X100965000Y-126365000D01*
%TO.N,IW1*%
X110490000Y-127000000D02*
X113030000Y-129540000D01*
X113030000Y-129540000D02*
X113030000Y-131445000D01*
X106045000Y-125095000D02*
X107950000Y-127000000D01*
X107950000Y-127000000D02*
X110490000Y-127000000D01*
%TO.N,ISGL*%
X101600000Y-114300000D02*
X104775000Y-117475000D01*
X108585000Y-117475000D02*
X112478736Y-121368736D01*
X127000000Y-81468407D02*
X127000000Y-91248005D01*
X116840000Y-101408005D02*
X116840000Y-104775000D01*
X125848625Y-80317032D02*
X127000000Y-81468407D01*
X113030000Y-108585000D02*
X104140000Y-108585000D01*
X104775000Y-117475000D02*
X108585000Y-117475000D01*
X127000000Y-91248005D02*
X116840000Y-101408005D01*
X116840000Y-104775000D02*
X113030000Y-108585000D01*
X104140000Y-108585000D02*
X101600000Y-111125000D01*
X101600000Y-111125000D02*
X101600000Y-114300000D01*
X125806758Y-80317032D02*
X125848625Y-80317032D01*
%TO.N,ILOL*%
X116840000Y-109220000D02*
X114935000Y-111125000D01*
X117475000Y-109220000D02*
X116840000Y-109220000D01*
X116840000Y-89535000D02*
X111125000Y-95250000D01*
X111760000Y-113665000D02*
X111760000Y-116840000D01*
X116840000Y-81280000D02*
X116840000Y-89535000D01*
X111125000Y-95250000D02*
X111125000Y-95885000D01*
X111125000Y-125095000D02*
X114935000Y-128905000D01*
X114935000Y-111125000D02*
X114300000Y-111125000D01*
X118110000Y-130175000D02*
X118110000Y-131445000D01*
X114300000Y-111125000D02*
X111760000Y-113665000D01*
X114300000Y-122555000D02*
X111760000Y-125095000D01*
X114300000Y-119380000D02*
X114300000Y-122555000D01*
X116840000Y-128905000D02*
X118110000Y-130175000D01*
X111760000Y-116840000D02*
X114300000Y-119380000D01*
X114935000Y-128905000D02*
X116840000Y-128905000D01*
%TO.N,IREW*%
X124460000Y-127635000D02*
X123190000Y-128905000D01*
X124460000Y-125095000D02*
X124460000Y-127635000D01*
X123190000Y-128905000D02*
X123190000Y-131445000D01*
%TO.N,IW7*%
X128270000Y-128905000D02*
X128270000Y-131445000D01*
X129540000Y-127635000D02*
X128270000Y-128905000D01*
X129540000Y-125095000D02*
X129540000Y-127635000D01*
%TO.N,IW6*%
X134620000Y-127635000D02*
X133350000Y-128905000D01*
X133350000Y-128905000D02*
X133350000Y-131445000D01*
X134620000Y-125095000D02*
X134620000Y-127635000D01*
%TO.N,IW5*%
X139700000Y-127635000D02*
X138430000Y-128905000D01*
X138430000Y-128905000D02*
X138430000Y-131445000D01*
X139700000Y-125095000D02*
X139700000Y-127635000D01*
%TO.N,IRTH2*%
X121661813Y-78837692D02*
X127746648Y-78837692D01*
X152400000Y-125095000D02*
X151130000Y-126365000D01*
X132080000Y-83171044D02*
X132080000Y-99695000D01*
X151130000Y-126365000D02*
X148590000Y-126365000D01*
X148590000Y-126365000D02*
X143510000Y-131445000D01*
X127746648Y-78837692D02*
X132080000Y-83171044D01*
%TO.N,IEDIT*%
X150495000Y-127000000D02*
X146050000Y-131445000D01*
X154940000Y-125095000D02*
X153035000Y-127000000D01*
X153035000Y-127000000D02*
X150495000Y-127000000D01*
%TO.N,IWFM*%
X156845000Y-109220000D02*
X156845000Y-107315000D01*
X154305000Y-128270000D02*
X151130000Y-131445000D01*
X156845000Y-107315000D02*
X163830000Y-100330000D01*
X156210000Y-109855000D02*
X156845000Y-109220000D01*
X156845000Y-128270000D02*
X154305000Y-128270000D01*
X160020000Y-125095000D02*
X156845000Y-128270000D01*
X160020000Y-125095000D02*
X156210000Y-121285000D01*
X156210000Y-121285000D02*
X156210000Y-109855000D01*
X163830000Y-100330000D02*
X163830000Y-97155000D01*
%TO.N,IRTH1*%
X133985000Y-94615000D02*
X133985000Y-100330000D01*
X134620000Y-84636429D02*
X134620000Y-93980000D01*
X134620000Y-93980000D02*
X133985000Y-94615000D01*
X120119670Y-78105000D02*
X128088571Y-78105000D01*
X120015000Y-78209670D02*
X120119670Y-78105000D01*
X128088571Y-78105000D02*
X134620000Y-84636429D01*
%TO.N,ITAD0*%
X117475000Y-77390625D02*
X121285000Y-73580625D01*
X130375581Y-98823928D02*
X130375581Y-93545581D01*
X129540000Y-81859175D02*
X127272143Y-79591318D01*
X160655000Y-129540000D02*
X158115000Y-129540000D01*
X117475000Y-78740000D02*
X117475000Y-77390625D01*
X129540000Y-92710000D02*
X129540000Y-81859175D01*
X165100000Y-125095000D02*
X160655000Y-129540000D01*
X118326318Y-79591318D02*
X117475000Y-78740000D01*
X130375581Y-93545581D02*
X129540000Y-92710000D01*
X121285000Y-73580625D02*
X121285000Y-72390000D01*
X158115000Y-129540000D02*
X156210000Y-131445000D01*
X130397734Y-98846081D02*
X130375581Y-98823928D01*
X127272143Y-79591318D02*
X118326318Y-79591318D01*
%TO.N,IR2*%
X166370000Y-128270000D02*
X166370000Y-124460000D01*
X158745000Y-131445000D02*
X160015000Y-130175000D01*
X157480000Y-115570000D02*
X157480000Y-113665000D01*
X160015000Y-130175000D02*
X164465000Y-130175000D01*
X164465000Y-130175000D02*
X166370000Y-128270000D01*
X166370000Y-124460000D02*
X157480000Y-115570000D01*
%TO.N,IR0*%
X165100000Y-55880000D02*
X165100000Y-58420000D01*
X162565000Y-45725000D02*
X163830000Y-46990000D01*
X162565000Y-44967500D02*
X162565000Y-45725000D01*
X163830000Y-54610000D02*
X165100000Y-55880000D01*
X163830000Y-46990000D02*
X163830000Y-54610000D01*
%TO.N,ILDP*%
X118647307Y-77470000D02*
X131445000Y-77470000D01*
X149860000Y-68580000D02*
X160020000Y-58420000D01*
X118549615Y-77567692D02*
X118647307Y-77470000D01*
X140335000Y-68580000D02*
X149860000Y-68580000D01*
X131445000Y-77470000D02*
X140335000Y-68580000D01*
X160025000Y-44967500D02*
X160025000Y-58415000D01*
%TO.N,IR7*%
X154945000Y-44967500D02*
X154945000Y-58415000D01*
%TO.N,IHER*%
X149865000Y-44967500D02*
X149865000Y-58415000D01*
%TO.N,IDENT*%
X114935000Y-70485000D02*
X136525000Y-70485000D01*
X114300000Y-69850000D02*
X114935000Y-70485000D01*
X138425000Y-58420000D02*
X138425000Y-68585000D01*
X138425000Y-68585000D02*
X136525000Y-70485000D01*
%TO.N,IFEN*%
X121285000Y-69215000D02*
X118745000Y-69215000D01*
X118110000Y-50800000D02*
X118110000Y-52070000D01*
X118745000Y-69215000D02*
X116205000Y-66675000D01*
X121920000Y-68580000D02*
X121285000Y-69215000D01*
X137682500Y-49530000D02*
X119380000Y-49530000D01*
X116205000Y-66675000D02*
X116205000Y-60325000D01*
X119380000Y-49530000D02*
X118110000Y-50800000D01*
X116205000Y-60325000D02*
X115570000Y-59690000D01*
X142245000Y-44967500D02*
X137682500Y-49530000D01*
%TO.N,IOFL*%
X152400000Y-76200000D02*
X149860000Y-76200000D01*
X156844999Y-80644999D02*
X152400000Y-76200000D01*
X149225000Y-75565000D02*
X149225000Y-72390000D01*
X156844999Y-81698681D02*
X156844999Y-80644999D01*
X148590000Y-56515000D02*
X146050000Y-53975000D01*
X134625000Y-44967500D02*
X131332500Y-48260000D01*
X115570000Y-50800000D02*
X115570000Y-52070000D01*
X149860000Y-76200000D02*
X149225000Y-75565000D01*
X117475000Y-53975000D02*
X115570000Y-52070000D01*
X118110000Y-48260000D02*
X115570000Y-50800000D01*
X131332500Y-48260000D02*
X118110000Y-48260000D01*
X146050000Y-53975000D02*
X117475000Y-53975000D01*
%TO.N,INRZ*%
X129540000Y-59690000D02*
X130810000Y-58420000D01*
X126085879Y-59984150D02*
X126380029Y-59690000D01*
X126380029Y-59690000D02*
X129540000Y-59690000D01*
%TO.N,IFPT*%
X120015000Y-63777569D02*
X120158138Y-63634431D01*
X120015000Y-67310000D02*
X120015000Y-63777569D01*
X119380000Y-67945000D02*
X120015000Y-67310000D01*
%TO.N,IRSTR*%
X114300000Y-66040000D02*
X114300000Y-58420000D01*
X118110000Y-69850000D02*
X114300000Y-66040000D01*
X125095000Y-69850000D02*
X118110000Y-69850000D01*
X136525000Y-69215000D02*
X125730000Y-69215000D01*
X125730000Y-69215000D02*
X125095000Y-69850000D01*
%TO.N,IWSTR*%
X127443909Y-61451145D02*
X120506145Y-61451145D01*
X130213647Y-61923503D02*
X127916267Y-61923503D01*
X117475000Y-56515000D02*
X113665000Y-56515000D01*
X118745000Y-57785000D02*
X117475000Y-56515000D01*
X118745000Y-59690000D02*
X118745000Y-57785000D01*
X113665000Y-56515000D02*
X111760000Y-58420000D01*
X127916267Y-61923503D02*
X127443909Y-61451145D01*
X130299530Y-61837620D02*
X130213647Y-61923503D01*
X120506145Y-61451145D02*
X118745000Y-59690000D01*
%TO.N,IDBY*%
X119380000Y-59055000D02*
X119380000Y-57150000D01*
X111760000Y-55880000D02*
X109220000Y-58420000D01*
X121067607Y-60742607D02*
X119380000Y-59055000D01*
X118110000Y-55880000D02*
X111760000Y-55880000D01*
X128023621Y-60742607D02*
X121067607Y-60742607D01*
X128474509Y-61193495D02*
X128023621Y-60742607D01*
X119380000Y-57150000D02*
X118110000Y-55880000D01*
%TO.N,ISPEED*%
X115570000Y-68580000D02*
X111760000Y-64770000D01*
X107950000Y-60325000D02*
X106680000Y-59055000D01*
X111760000Y-64770000D02*
X111760000Y-61595000D01*
X110490000Y-60325000D02*
X107950000Y-60325000D01*
X111760000Y-61595000D02*
X110490000Y-60325000D01*
%TO.N,ICER*%
X165735000Y-84455000D02*
X165735000Y-74295000D01*
X104140000Y-62230000D02*
X104140000Y-58420000D01*
X169545000Y-88265000D02*
X165735000Y-84455000D01*
X169545000Y-96520000D02*
X169545000Y-88265000D01*
X128905000Y-71755000D02*
X125730000Y-71755000D01*
X125095000Y-71120000D02*
X113030000Y-71120000D01*
X113030000Y-71120000D02*
X104140000Y-62230000D01*
X165100000Y-73660000D02*
X163711374Y-73660000D01*
X163076374Y-73025000D02*
X159385000Y-73025000D01*
X165735000Y-74295000D02*
X165100000Y-73660000D01*
X125730000Y-71755000D02*
X125095000Y-71120000D01*
X163711374Y-73660000D02*
X163076374Y-73025000D01*
X161290000Y-104775000D02*
X169545000Y-96520000D01*
%TO.N,IONL*%
X117475000Y-72390000D02*
X113030000Y-72390000D01*
X101600000Y-60960000D02*
X101600000Y-58420000D01*
X113030000Y-72390000D02*
X101600000Y-60960000D01*
%TO.N,ITAD1*%
X113030000Y-49530000D02*
X113030000Y-52070000D01*
X111125000Y-47625000D02*
X113030000Y-49530000D01*
X119380000Y-62230000D02*
X121920000Y-62230000D01*
X106685000Y-46985000D02*
X107325000Y-47625000D01*
X117475000Y-60325000D02*
X119380000Y-62230000D01*
X106685000Y-44967500D02*
X106685000Y-46985000D01*
X121920000Y-62230000D02*
X123825000Y-64135000D01*
X107325000Y-47625000D02*
X111125000Y-47625000D01*
%TO.N,IFAD*%
X108585000Y-48895000D02*
X110490000Y-50800000D01*
X104145000Y-44967500D02*
X104145000Y-46995000D01*
X128270000Y-55880000D02*
X127000000Y-54610000D01*
X112395000Y-54610000D02*
X110490000Y-52705000D01*
X104145000Y-46995000D02*
X106045000Y-48895000D01*
X106045000Y-48895000D02*
X108585000Y-48895000D01*
X110490000Y-50800000D02*
X110490000Y-52070000D01*
X127000000Y-54610000D02*
X112395000Y-54610000D01*
%TO.N,IDEN*%
X107315000Y-50165000D02*
X107950000Y-50800000D01*
X100330000Y-60960000D02*
X100330000Y-56515000D01*
X101605000Y-44967500D02*
X101605000Y-46995000D01*
X120015000Y-73660000D02*
X113030000Y-73660000D01*
X104775000Y-50165000D02*
X107315000Y-50165000D01*
X102235000Y-54610000D02*
X107315000Y-54610000D01*
X107950000Y-50800000D02*
X107950000Y-52070000D01*
X113030000Y-73660000D02*
X100330000Y-60960000D01*
X107950000Y-53975000D02*
X107950000Y-52070000D01*
X107315000Y-54610000D02*
X107950000Y-53975000D01*
X100330000Y-56515000D02*
X102235000Y-54610000D01*
X101605000Y-46995000D02*
X104775000Y-50165000D01*
%TO.N,Net-(BT1-Pad1)*%
X142875000Y-85725000D02*
X142240000Y-86360000D01*
X134620000Y-99060000D02*
X135890000Y-100330000D01*
X144070000Y-74930000D02*
X144070000Y-79450000D01*
X142875000Y-80645000D02*
X142875000Y-85725000D01*
X144070000Y-79450000D02*
X142875000Y-80645000D01*
X134620000Y-97155000D02*
X134620000Y-99060000D01*
X142240000Y-94615000D02*
X140335000Y-96520000D01*
X140335000Y-96520000D02*
X135255000Y-96520000D01*
X142240000Y-86360000D02*
X142240000Y-94615000D01*
X135255000Y-96520000D02*
X134620000Y-97155000D01*
D25*
%TO.N,+3V3*%
X125730000Y-97790000D02*
X129540000Y-97790000D01*
X151765000Y-96520000D02*
X153035000Y-95250000D01*
X135915000Y-97820000D02*
X140795000Y-97820000D01*
X113635749Y-95914251D02*
X116537812Y-95914251D01*
X142095000Y-96520000D02*
X151765000Y-96520000D01*
X147320000Y-80645000D02*
X147320000Y-82550000D01*
X100330000Y-97790000D02*
X111760000Y-97790000D01*
X111760000Y-97790000D02*
X113635749Y-95914251D01*
X148590000Y-83820000D02*
X153035000Y-83820000D01*
X95250000Y-87630000D02*
X95250000Y-93345000D01*
X99695000Y-97790000D02*
X100330000Y-97790000D01*
X147320000Y-82550000D02*
X148590000Y-83820000D01*
X95250000Y-93345000D02*
X99695000Y-97790000D01*
X140795000Y-97820000D02*
X142095000Y-96520000D01*
D26*
%TO.N,ETHERNET_TM*%
X102870000Y-71755000D02*
X104140000Y-70485000D01*
X101600000Y-84455000D02*
X102870000Y-83185000D01*
X102870000Y-83185000D02*
X102870000Y-71755000D01*
%TO.N,ETHERNET_TP*%
X105410000Y-69215000D02*
X104140000Y-67945000D01*
X102235000Y-88900000D02*
X101600000Y-88265000D01*
X105410000Y-81915000D02*
X105410000Y-69215000D01*
X105108000Y-90080000D02*
X103928000Y-88900000D01*
X101600000Y-85725000D02*
X105410000Y-81915000D01*
X103928000Y-88900000D02*
X102235000Y-88900000D01*
X101600000Y-88265000D02*
X101600000Y-85725000D01*
%TO.N,ETHERNET_LED*%
X92710000Y-79375000D02*
X99060000Y-85725000D01*
X99060000Y-85725000D02*
X99060000Y-90805000D01*
X100330000Y-92075000D02*
X102870000Y-92075000D01*
X92710000Y-78105000D02*
X92710000Y-79375000D01*
X99060000Y-90805000D02*
X100330000Y-92075000D01*
X94410000Y-76405000D02*
X92710000Y-78105000D01*
X94410000Y-68605000D02*
X94410000Y-76405000D01*
%TO.N,ETHERNET_G*%
X106299142Y-91185858D02*
X106299142Y-89803526D01*
X104140000Y-88293767D02*
X104140000Y-85090000D01*
X104760616Y-88914384D02*
X104140000Y-88293767D01*
X105410000Y-88914384D02*
X104760616Y-88914384D01*
X105405000Y-92080000D02*
X106299142Y-91185858D01*
X104140000Y-85090000D02*
X106680000Y-82550000D01*
X106680000Y-82550000D02*
X106680000Y-76835000D01*
X106299142Y-89803526D02*
X105410000Y-88914384D01*
%TO.N,ETHERNET_RP*%
X108479256Y-83714256D02*
X108479256Y-73554256D01*
X109220000Y-93345000D02*
X109220000Y-84455000D01*
X103108000Y-94218000D02*
X104140000Y-95250000D01*
X107315000Y-95250000D02*
X109220000Y-93345000D01*
X109220000Y-84455000D02*
X108479256Y-83714256D01*
X108479256Y-73554256D02*
X106680000Y-71755000D01*
X104140000Y-95250000D02*
X107315000Y-95250000D01*
%TO.N,ETHERNET_RM*%
X107950000Y-85090000D02*
X107950000Y-75565000D01*
X106680000Y-88265000D02*
X106680000Y-86360000D01*
X107031377Y-93628623D02*
X107031377Y-88616377D01*
X107031377Y-88616377D02*
X106680000Y-88265000D01*
X107950000Y-75565000D02*
X106680000Y-74295000D01*
X105108000Y-94080000D02*
X106580000Y-94080000D01*
X106680000Y-86360000D02*
X107950000Y-85090000D01*
X106580000Y-94080000D02*
X107031377Y-93628623D01*
%TO.N,Net-(Q1-Pad3)*%
X111744731Y-90057993D02*
X111760000Y-90042724D01*
X111760000Y-90042724D02*
X111760000Y-86360000D01*
X111760000Y-86360000D02*
X112395000Y-85725000D01*
X112395000Y-85725000D02*
X112395000Y-81915000D01*
%TO.N,LVIW6*%
X107315000Y-96520000D02*
X101600000Y-96520000D01*
X97790000Y-92710000D02*
X97790000Y-87630000D01*
X129540000Y-107315000D02*
X118745000Y-107315000D01*
X130175000Y-107950000D02*
X129540000Y-107315000D01*
X108585000Y-95250000D02*
X107315000Y-96520000D01*
X101600000Y-96520000D02*
X97790000Y-92710000D01*
%TO.N,Net-(Q2-Pad3)*%
X114935000Y-80010000D02*
X117391264Y-80010000D01*
X119380000Y-81998736D02*
X119380000Y-90170000D01*
X117391264Y-80010000D02*
X119380000Y-81998736D01*
X119380000Y-90170000D02*
X120650000Y-91440000D01*
%TO.N,LVIW7*%
X103505000Y-114300000D02*
X104775000Y-114300000D01*
X113030000Y-110490000D02*
X115570000Y-107950000D01*
X108585000Y-110490000D02*
X113030000Y-110490000D01*
X115570000Y-107950000D02*
X118110000Y-107950000D01*
X118110000Y-107950000D02*
X118745000Y-108585000D01*
X104775000Y-114300000D02*
X108585000Y-110490000D01*
X118745000Y-108585000D02*
X127635000Y-108585000D01*
%TO.N,LVIW5*%
X132080000Y-106680000D02*
X120015000Y-106680000D01*
X132715000Y-107950000D02*
X132715000Y-107315000D01*
X120015000Y-106680000D02*
X118745000Y-105410000D01*
X132715000Y-107315000D02*
X132080000Y-106680000D01*
%TO.N,LVIR1*%
X162846098Y-75851098D02*
X161925000Y-74930000D01*
X162846098Y-79751813D02*
X162846098Y-75851098D01*
%TO.N,LVIR5*%
X141605000Y-84678296D02*
X141605000Y-80645000D01*
X140655989Y-85627307D02*
X141605000Y-84678296D01*
X141605000Y-80645000D02*
X142875000Y-79375000D01*
%TO.N,LVILWD*%
X104775000Y-107315000D02*
X107315000Y-104775000D01*
X108585000Y-104775000D02*
X109220000Y-104140000D01*
X111760000Y-99695000D02*
X116854596Y-99695000D01*
X109220000Y-104140000D02*
X109220000Y-102235000D01*
X116854596Y-99695000D02*
X123190000Y-93359596D01*
X107315000Y-104775000D02*
X108585000Y-104775000D01*
X123190000Y-93359596D02*
X123190000Y-87630000D01*
X109220000Y-102235000D02*
X111760000Y-99695000D01*
%TO.N,LVIR2*%
X144780000Y-97790000D02*
X147955000Y-97790000D01*
X128905000Y-95250000D02*
X128905000Y-88265000D01*
X128905000Y-88265000D02*
X128270000Y-87630000D01*
X129540000Y-95885000D02*
X128905000Y-95250000D01*
%TO.N,LVIR3*%
X130810000Y-91440000D02*
X130810000Y-87630000D01*
X146685000Y-99060000D02*
X144780000Y-99060000D01*
X143172064Y-97452064D02*
X142709521Y-97452064D01*
X144780000Y-99060000D02*
X143172064Y-97452064D01*
%TO.N,LVIW2*%
X133350000Y-99925273D02*
X133350000Y-87630000D01*
X132059065Y-101216208D02*
X133350000Y-99925273D01*
%TO.N,LVIW3*%
X138430000Y-90170000D02*
X135890000Y-87630000D01*
X138430000Y-93980000D02*
X138430000Y-90170000D01*
%TO.N,LVIWSTR*%
X136525000Y-85725000D02*
X138430000Y-87630000D01*
X136552912Y-79654120D02*
X136525000Y-79682032D01*
X136525000Y-79682032D02*
X136525000Y-85725000D01*
%TO.N,LVIRSTR*%
X137795000Y-84455000D02*
X140970000Y-87630000D01*
X137795000Y-79612252D02*
X137795000Y-84455000D01*
%TO.N,LVIHER*%
X143789120Y-83394340D02*
X143510000Y-83673460D01*
X143510000Y-83673460D02*
X143510000Y-87630000D01*
%TO.N,LVIFBY*%
X148590000Y-89535000D02*
X148590000Y-87630000D01*
X151130000Y-92075000D02*
X148590000Y-89535000D01*
X151130000Y-93980000D02*
X151130000Y-92075000D01*
X149860000Y-95250000D02*
X151130000Y-93980000D01*
%TO.N,LVIFMK*%
X142240000Y-78740000D02*
X143256466Y-77723534D01*
X133350000Y-78740000D02*
X142240000Y-78740000D01*
X143256466Y-77723534D02*
X143330897Y-77723534D01*
X132080000Y-80010000D02*
X133350000Y-78740000D01*
%TO.N,LVIRP*%
X150146098Y-74022857D02*
X162922857Y-74022857D01*
X162922857Y-74022857D02*
X163830000Y-74930000D01*
%TO.N,LVIRDY*%
X95250000Y-95250000D02*
X95250000Y-96520000D01*
X97790000Y-99060000D02*
X97790000Y-102870000D01*
X95250000Y-96520000D02*
X97790000Y-99060000D01*
%TO.N,DIRA*%
X141441709Y-115794974D02*
X143920026Y-115794974D01*
X100340000Y-102845000D02*
X100340000Y-114945000D01*
X162929835Y-98055165D02*
X162929835Y-96150165D01*
X168275000Y-94615000D02*
X167005000Y-95885000D01*
X149860000Y-111125000D02*
X162929835Y-98055165D01*
X163830000Y-78740000D02*
X163830000Y-84455000D01*
X168275000Y-88900000D02*
X168275000Y-94615000D01*
X167005000Y-95885000D02*
X163195000Y-95885000D01*
X147647967Y-75683627D02*
X147647967Y-79758791D01*
X163830000Y-84455000D02*
X168275000Y-88900000D01*
X158273750Y-99060000D02*
X158115000Y-99060000D01*
X143920026Y-115794974D02*
X148590000Y-111125000D01*
X162929835Y-96150165D02*
X163195000Y-95885000D01*
X148590000Y-111125000D02*
X149860000Y-111125000D01*
X161448750Y-95885000D02*
X158273750Y-99060000D01*
X100340000Y-114945000D02*
X100965000Y-115570000D01*
X147647967Y-79758791D02*
X150439176Y-82550000D01*
X150439176Y-82550000D02*
X163195000Y-82550000D01*
X163830000Y-81915000D02*
X163830000Y-78740000D01*
X147634010Y-75669670D02*
X147647967Y-75683627D01*
X163195000Y-82550000D02*
X163830000Y-81915000D01*
X163195000Y-95885000D02*
X161448750Y-95885000D01*
%TO.N,LVIDBY*%
X106680000Y-99060000D02*
X105410000Y-100330000D01*
X121920000Y-86360000D02*
X121920000Y-92710000D01*
X124278571Y-81175329D02*
X124278571Y-84001429D01*
X124278571Y-84001429D02*
X121920000Y-86360000D01*
X121920000Y-92710000D02*
X115570000Y-99060000D01*
X115570000Y-99060000D02*
X106680000Y-99060000D01*
X105410000Y-100330000D02*
X103505000Y-100330000D01*
%TO.N,~{LPI2C4_INT}*%
X111125000Y-73025000D02*
X111760000Y-73660000D01*
X114300000Y-90170000D02*
X109855000Y-94615000D01*
X111760000Y-73660000D02*
X111760000Y-80010000D01*
X107950000Y-100330000D02*
X105410000Y-102870000D01*
X114300000Y-82550000D02*
X114300000Y-90170000D01*
X109855000Y-94615000D02*
X109855000Y-96520000D01*
X111760000Y-80010000D02*
X114300000Y-82550000D01*
%TO.N,LVIREW*%
X111125000Y-104775000D02*
X113030000Y-102870000D01*
X112395000Y-107315000D02*
X111125000Y-106045000D01*
X111125000Y-106045000D02*
X111125000Y-104775000D01*
%TO.N,LVIREV*%
X112395000Y-106045000D02*
X115570000Y-102870000D01*
%TO.N,LVIWRT*%
X133350000Y-106680000D02*
X132715000Y-106045000D01*
X132715000Y-106045000D02*
X121285000Y-106045000D01*
X121285000Y-106045000D02*
X118110000Y-102870000D01*
%TO.N,LVIEDIT*%
X123190000Y-105410000D02*
X120650000Y-102870000D01*
X134620000Y-106680000D02*
X133350000Y-105410000D01*
X133350000Y-105410000D02*
X123190000Y-105410000D01*
%TO.N,LVIERASE*%
X133985000Y-104775000D02*
X125095000Y-104775000D01*
X125095000Y-104775000D02*
X123190000Y-102870000D01*
%TO.N,LPI2C4_SCL*%
X128270000Y-100330000D02*
X127000000Y-99060000D01*
X127000000Y-99060000D02*
X120650000Y-99060000D01*
X128270000Y-102835000D02*
X128270000Y-100330000D01*
%TO.N,LPI2C4_SDA*%
X126365000Y-100965000D02*
X127000000Y-101600000D01*
X130175000Y-104140000D02*
X130820000Y-103495000D01*
X124460000Y-100965000D02*
X126365000Y-100965000D01*
X127635000Y-104140000D02*
X130175000Y-104140000D01*
X127000000Y-103505000D02*
X127635000Y-104140000D01*
X127000000Y-101600000D02*
X127000000Y-103505000D01*
%TO.N,LVIW1*%
X115570000Y-112395000D02*
X132080000Y-112395000D01*
X135890000Y-105410000D02*
X133350000Y-102870000D01*
X132080000Y-112395000D02*
X135890000Y-108585000D01*
X135890000Y-108585000D02*
X135890000Y-105410000D01*
%TO.N,LVIW0*%
X114823351Y-113148626D02*
X114844285Y-113169560D01*
X132892940Y-113169560D02*
X137795000Y-108267500D01*
X137795000Y-104775000D02*
X135890000Y-102870000D01*
X114844285Y-113169560D02*
X132892940Y-113169560D01*
X137795000Y-108267500D02*
X137795000Y-104775000D01*
%TO.N,DIRB*%
X139700000Y-107950000D02*
X139700000Y-104105000D01*
X127930309Y-113895274D02*
X127944265Y-113909230D01*
X140370000Y-104775000D02*
X146050000Y-104775000D01*
X146050000Y-104775000D02*
X147320000Y-103505000D01*
X114069725Y-113895274D02*
X114055769Y-113881318D01*
X127930309Y-113895274D02*
X114069725Y-113895274D01*
X147320000Y-102235000D02*
X151467093Y-98087907D01*
X157480000Y-94615000D02*
X165735000Y-94615000D01*
X147320000Y-103505000D02*
X147320000Y-102235000D01*
X154007093Y-98087907D02*
X157480000Y-94615000D01*
X139700000Y-104105000D02*
X138440000Y-102845000D01*
X151467093Y-98087907D02*
X154007093Y-98087907D01*
X127944265Y-113909230D02*
X133740770Y-113909230D01*
X138440000Y-102845000D02*
X140370000Y-104775000D01*
X133740770Y-113909230D02*
X139700000Y-107950000D01*
%TO.N,OEA*%
X146050000Y-85725000D02*
X146050000Y-73025000D01*
X147320000Y-90170000D02*
X147320000Y-86995000D01*
X147955000Y-71120000D02*
X162560000Y-71120000D01*
X142047605Y-98297401D02*
X142023681Y-98297401D01*
X140980000Y-99341082D02*
X140980000Y-102845000D01*
X146050000Y-73025000D02*
X146050000Y-71755000D01*
X145415000Y-92075000D02*
X147320000Y-90170000D01*
X146050000Y-73025000D02*
X147955000Y-71120000D01*
X162560000Y-71120000D02*
X163830000Y-72390000D01*
X143510000Y-92075000D02*
X145415000Y-92075000D01*
X146050000Y-71755000D02*
X144145000Y-69850000D01*
X147320000Y-86995000D02*
X146050000Y-85725000D01*
X142023681Y-98297401D02*
X140980000Y-99341082D01*
%TO.N,LVIOFL*%
X157480000Y-93345000D02*
X158115000Y-93345000D01*
X146050000Y-101600000D02*
X144145000Y-101600000D01*
X150203534Y-97446466D02*
X153378534Y-97446466D01*
X146050000Y-101600000D02*
X150203534Y-97446466D01*
X144145000Y-101600000D02*
X143510000Y-102235000D01*
X153378534Y-97446466D02*
X157480000Y-93345000D01*
%TO.N,LVIEOT*%
X144780000Y-81280000D02*
X144780000Y-90805000D01*
X144145000Y-80645000D02*
X144780000Y-81280000D01*
%TO.N,LVIWFM*%
X156319233Y-103395767D02*
X149115767Y-103395767D01*
X149115767Y-103395767D02*
X148590000Y-102870000D01*
X161925000Y-97790000D02*
X156319233Y-103395767D01*
X161925000Y-97155000D02*
X161925000Y-97790000D01*
%TO.N,Net-(JP1-Pad1)*%
X115570000Y-121545766D02*
X145792836Y-121545766D01*
X152400000Y-114938602D02*
X152400000Y-113665000D01*
X145792836Y-121545766D02*
X152400000Y-114938602D01*
%TO.N,Net-(JP1-Pad3)*%
X108585000Y-123492348D02*
X110490000Y-121587348D01*
X108585000Y-125095000D02*
X108585000Y-123492348D01*
%TD*%
M02*
