%TF.GenerationSoftware,KiCad,Pcbnew,(6.0.4)*%
%TF.CreationDate,2022-05-21T22:33:24-04:00*%
%TF.ProjectId,pertec_arduino_adapter,70657274-6563-45f6-9172-6475696e6f5f,A*%
%TF.SameCoordinates,Original*%
%TF.FileFunction,Legend,Bot*%
%TF.FilePolarity,Positive*%
%FSLAX46Y46*%
G04 Gerber Fmt 4.6, Leading zero omitted, Abs format (unit mm)*
G04 Created by KiCad (PCBNEW (6.0.4)) date 2022-05-21 22:33:24*
%MOMM*%
%LPD*%
G01*
G04 APERTURE LIST*
%ADD10C,0.150000*%
%ADD11C,0.152400*%
%ADD12C,0.120000*%
G04 APERTURE END LIST*
D10*
X157480000Y-40640000D02*
X100965000Y-40640000D01*
X99060000Y-135890000D02*
X162560000Y-135890000D01*
D11*
X169440739Y-127486107D02*
X169682643Y-127486107D01*
X169585881Y-127244202D02*
X169682643Y-127486107D01*
X169585881Y-127728012D01*
X169876167Y-127340964D02*
X169682643Y-127486107D01*
X169876167Y-127631250D01*
X170456739Y-128889155D02*
X169440739Y-128889155D01*
X170408358Y-129324583D02*
X170456739Y-129469726D01*
X170456739Y-129711631D01*
X170408358Y-129808393D01*
X170359977Y-129856774D01*
X170263215Y-129905155D01*
X170166453Y-129905155D01*
X170069691Y-129856774D01*
X170021310Y-129808393D01*
X169972929Y-129711631D01*
X169924548Y-129518107D01*
X169876167Y-129421345D01*
X169827786Y-129372964D01*
X169731024Y-129324583D01*
X169634262Y-129324583D01*
X169537500Y-129372964D01*
X169489120Y-129421345D01*
X169440739Y-129518107D01*
X169440739Y-129760012D01*
X169489120Y-129905155D01*
X169489120Y-130872774D02*
X169440739Y-130776012D01*
X169440739Y-130630869D01*
X169489120Y-130485726D01*
X169585881Y-130388964D01*
X169682643Y-130340583D01*
X169876167Y-130292202D01*
X170021310Y-130292202D01*
X170214834Y-130340583D01*
X170311596Y-130388964D01*
X170408358Y-130485726D01*
X170456739Y-130630869D01*
X170456739Y-130727631D01*
X170408358Y-130872774D01*
X170359977Y-130921155D01*
X170021310Y-130921155D01*
X170021310Y-130727631D01*
X170456739Y-131840393D02*
X170456739Y-131356583D01*
X169440739Y-131356583D01*
X170456739Y-133388583D02*
X169924548Y-133388583D01*
X169827786Y-133340202D01*
X169779405Y-133243440D01*
X169779405Y-133049917D01*
X169827786Y-132953155D01*
X170408358Y-133388583D02*
X170456739Y-133291821D01*
X170456739Y-133049917D01*
X170408358Y-132953155D01*
X170311596Y-132904774D01*
X170214834Y-132904774D01*
X170118072Y-132953155D01*
X170069691Y-133049917D01*
X170069691Y-133291821D01*
X170021310Y-133388583D01*
X169392358Y-134598107D02*
X170698643Y-133727250D01*
X170456739Y-134936774D02*
X169440739Y-134936774D01*
X170069691Y-135033536D02*
X170456739Y-135323821D01*
X169779405Y-135323821D02*
X170166453Y-134936774D01*
X169392358Y-136484964D02*
X170698643Y-135614107D01*
X170456739Y-137259060D02*
X169924548Y-137259060D01*
X169827786Y-137210679D01*
X169779405Y-137113917D01*
X169779405Y-136920393D01*
X169827786Y-136823631D01*
X170408358Y-137259060D02*
X170456739Y-137162298D01*
X170456739Y-136920393D01*
X170408358Y-136823631D01*
X170311596Y-136775250D01*
X170214834Y-136775250D01*
X170118072Y-136823631D01*
X170069691Y-136920393D01*
X170069691Y-137162298D01*
X170021310Y-137259060D01*
X172092499Y-127340964D02*
X171076499Y-127340964D01*
X172092499Y-127824774D02*
X171076499Y-127824774D01*
X171076499Y-128066679D01*
X171124880Y-128211821D01*
X171221641Y-128308583D01*
X171318403Y-128356964D01*
X171511927Y-128405345D01*
X171657070Y-128405345D01*
X171850594Y-128356964D01*
X171947356Y-128308583D01*
X172044118Y-128211821D01*
X172092499Y-128066679D01*
X172092499Y-127824774D01*
X171560308Y-128840774D02*
X171560308Y-129179440D01*
X172092499Y-129324583D02*
X172092499Y-128840774D01*
X171076499Y-128840774D01*
X171076499Y-129324583D01*
X172092499Y-129760012D02*
X171076499Y-129760012D01*
X172092499Y-130340583D01*
X171076499Y-130340583D01*
X171076499Y-131017917D02*
X171076499Y-131114679D01*
X171124880Y-131211440D01*
X171173260Y-131259821D01*
X171270022Y-131308202D01*
X171463546Y-131356583D01*
X171705451Y-131356583D01*
X171898975Y-131308202D01*
X171995737Y-131259821D01*
X172044118Y-131211440D01*
X172092499Y-131114679D01*
X172092499Y-131017917D01*
X172044118Y-130921155D01*
X171995737Y-130872774D01*
X171898975Y-130824393D01*
X171705451Y-130776012D01*
X171463546Y-130776012D01*
X171270022Y-130824393D01*
X171173260Y-130872774D01*
X171124880Y-130921155D01*
X171076499Y-131017917D01*
X171028118Y-132517726D02*
X172334403Y-131646869D01*
X172044118Y-132808012D02*
X172092499Y-132953155D01*
X172092499Y-133195060D01*
X172044118Y-133291821D01*
X171995737Y-133340202D01*
X171898975Y-133388583D01*
X171802213Y-133388583D01*
X171705451Y-133340202D01*
X171657070Y-133291821D01*
X171608689Y-133195060D01*
X171560308Y-133001536D01*
X171511927Y-132904774D01*
X171463546Y-132856393D01*
X171366784Y-132808012D01*
X171270022Y-132808012D01*
X171173260Y-132856393D01*
X171124880Y-132904774D01*
X171076499Y-133001536D01*
X171076499Y-133243440D01*
X171124880Y-133388583D01*
X172092499Y-133824012D02*
X171076499Y-133824012D01*
X171076499Y-134211060D01*
X171124880Y-134307821D01*
X171173260Y-134356202D01*
X171270022Y-134404583D01*
X171415165Y-134404583D01*
X171511927Y-134356202D01*
X171560308Y-134307821D01*
X171608689Y-134211060D01*
X171608689Y-133824012D01*
X171995737Y-135420583D02*
X172044118Y-135372202D01*
X172092499Y-135227060D01*
X172092499Y-135130298D01*
X172044118Y-134985155D01*
X171947356Y-134888393D01*
X171850594Y-134840012D01*
X171657070Y-134791631D01*
X171511927Y-134791631D01*
X171318403Y-134840012D01*
X171221641Y-134888393D01*
X171124880Y-134985155D01*
X171076499Y-135130298D01*
X171076499Y-135227060D01*
X171124880Y-135372202D01*
X171173260Y-135420583D01*
X172092499Y-135856012D02*
X171076499Y-135856012D01*
X171802213Y-136194679D01*
X171076499Y-136533345D01*
X172092499Y-136533345D01*
X172092499Y-137017155D02*
X171076499Y-137017155D01*
X171076499Y-137259060D01*
X171124880Y-137404202D01*
X171221641Y-137500964D01*
X171318403Y-137549345D01*
X171511927Y-137597726D01*
X171657070Y-137597726D01*
X171850594Y-137549345D01*
X171947356Y-137500964D01*
X172044118Y-137404202D01*
X172092499Y-137259060D01*
X172092499Y-137017155D01*
X172092499Y-138565345D02*
X172092499Y-137984774D01*
X172092499Y-138275060D02*
X171076499Y-138275060D01*
X171221641Y-138178298D01*
X171318403Y-138081536D01*
X171366784Y-137984774D01*
X104599619Y-46568964D02*
X103583619Y-46568964D01*
X104067428Y-47391440D02*
X104067428Y-47052774D01*
X104599619Y-47052774D02*
X103583619Y-47052774D01*
X103583619Y-47536583D01*
X104309333Y-47875250D02*
X104309333Y-48359060D01*
X104599619Y-47778488D02*
X103583619Y-48117155D01*
X104599619Y-48455821D01*
X104599619Y-48794488D02*
X103583619Y-48794488D01*
X103583619Y-49036393D01*
X103632000Y-49181536D01*
X103728761Y-49278298D01*
X103825523Y-49326679D01*
X104019047Y-49375060D01*
X104164190Y-49375060D01*
X104357714Y-49326679D01*
X104454476Y-49278298D01*
X104551238Y-49181536D01*
X104599619Y-49036393D01*
X104599619Y-48794488D01*
X132539619Y-46575012D02*
X131523619Y-46702012D01*
X132539619Y-47058821D02*
X131523619Y-47185821D01*
X132539619Y-47639393D01*
X131523619Y-47766393D01*
X132539619Y-48703774D02*
X132055809Y-48425583D01*
X132539619Y-48123202D02*
X131523619Y-48250202D01*
X131523619Y-48637250D01*
X131572000Y-48727964D01*
X131620380Y-48770298D01*
X131717142Y-48806583D01*
X131862285Y-48788440D01*
X131959047Y-48727964D01*
X132007428Y-48673536D01*
X132055809Y-48570726D01*
X132055809Y-48183679D01*
X131523619Y-49169440D02*
X131523619Y-49846774D01*
X132539619Y-49042440D01*
X132539619Y-49719774D01*
X146509619Y-126640892D02*
X145493619Y-126640892D01*
X145977428Y-127124701D02*
X145977428Y-127463368D01*
X146509619Y-127608511D02*
X146509619Y-127124701D01*
X145493619Y-127124701D01*
X145493619Y-127608511D01*
X146509619Y-128043940D02*
X145493619Y-128043940D01*
X145493619Y-128285844D01*
X145542000Y-128430987D01*
X145638761Y-128527749D01*
X145735523Y-128576130D01*
X145929047Y-128624511D01*
X146074190Y-128624511D01*
X146267714Y-128576130D01*
X146364476Y-128527749D01*
X146461238Y-128430987D01*
X146509619Y-128285844D01*
X146509619Y-128043940D01*
X146509619Y-129059940D02*
X145493619Y-129059940D01*
X145493619Y-129398606D02*
X145493619Y-129979178D01*
X146509619Y-129688892D02*
X145493619Y-129688892D01*
X159209619Y-127651993D02*
X158193619Y-127778993D01*
X159209619Y-128716374D02*
X158725809Y-128438184D01*
X159209619Y-128135803D02*
X158193619Y-128262803D01*
X158193619Y-128649850D01*
X158242000Y-128740565D01*
X158290380Y-128782898D01*
X158387142Y-128819184D01*
X158532285Y-128801041D01*
X158629047Y-128740565D01*
X158677428Y-128686136D01*
X158725809Y-128583327D01*
X158725809Y-128196279D01*
X158290380Y-129218327D02*
X158242000Y-129272755D01*
X158193619Y-129375565D01*
X158193619Y-129617470D01*
X158242000Y-129708184D01*
X158290380Y-129750517D01*
X158387142Y-129786803D01*
X158483904Y-129774708D01*
X158629047Y-129708184D01*
X159209619Y-129055041D01*
X159209619Y-129683993D01*
X131269619Y-127705273D02*
X130253619Y-127705273D01*
X130253619Y-128092320D02*
X131269619Y-128334225D01*
X130543904Y-128527749D01*
X131269619Y-128721273D01*
X130253619Y-128963178D01*
X130253619Y-129253463D02*
X130253619Y-129882416D01*
X130640666Y-129543749D01*
X130640666Y-129688892D01*
X130689047Y-129785654D01*
X130737428Y-129834035D01*
X130834190Y-129882416D01*
X131076095Y-129882416D01*
X131172857Y-129834035D01*
X131221238Y-129785654D01*
X131269619Y-129688892D01*
X131269619Y-129398606D01*
X131221238Y-129301844D01*
X131172857Y-129253463D01*
X126189619Y-127656892D02*
X125173619Y-127656892D01*
X125173619Y-128043940D02*
X126189619Y-128285844D01*
X125463904Y-128479368D01*
X126189619Y-128672892D01*
X125173619Y-128914797D01*
X126189619Y-129301844D02*
X125173619Y-129301844D01*
X125173619Y-129688892D01*
X125222000Y-129785654D01*
X125270380Y-129834035D01*
X125367142Y-129882416D01*
X125512285Y-129882416D01*
X125609047Y-129834035D01*
X125657428Y-129785654D01*
X125705809Y-129688892D01*
X125705809Y-129301844D01*
X114759619Y-46575012D02*
X113743619Y-46702012D01*
X114711238Y-47016488D02*
X114759619Y-47155583D01*
X114759619Y-47397488D01*
X114711238Y-47500298D01*
X114662857Y-47554726D01*
X114566095Y-47615202D01*
X114469333Y-47627298D01*
X114372571Y-47591012D01*
X114324190Y-47548679D01*
X114275809Y-47457964D01*
X114227428Y-47270488D01*
X114179047Y-47179774D01*
X114130666Y-47137440D01*
X114033904Y-47101155D01*
X113937142Y-47113250D01*
X113840380Y-47173726D01*
X113792000Y-47228155D01*
X113743619Y-47330964D01*
X113743619Y-47572869D01*
X113792000Y-47711964D01*
X114759619Y-48026440D02*
X113743619Y-48153440D01*
X113743619Y-48540488D01*
X113792000Y-48631202D01*
X113840380Y-48673536D01*
X113937142Y-48709821D01*
X114082285Y-48691679D01*
X114179047Y-48631202D01*
X114227428Y-48576774D01*
X114275809Y-48473964D01*
X114275809Y-48086917D01*
X114227428Y-49108964D02*
X114227428Y-49447631D01*
X114759619Y-49526250D02*
X114759619Y-49042440D01*
X113743619Y-49169440D01*
X113743619Y-49653250D01*
X114227428Y-50028202D02*
X114227428Y-50366869D01*
X114759619Y-50445488D02*
X114759619Y-49961679D01*
X113743619Y-50088679D01*
X113743619Y-50572488D01*
X114759619Y-50880917D02*
X113743619Y-51007917D01*
X113743619Y-51249821D01*
X113792000Y-51388917D01*
X113888761Y-51473583D01*
X113985523Y-51509869D01*
X114179047Y-51534060D01*
X114324190Y-51515917D01*
X114517714Y-51443345D01*
X114614476Y-51382869D01*
X114711238Y-51274012D01*
X114759619Y-51122821D01*
X114759619Y-50880917D01*
X136349619Y-127705273D02*
X135333619Y-127705273D01*
X135333619Y-128092320D02*
X136349619Y-128334225D01*
X135623904Y-128527749D01*
X136349619Y-128721273D01*
X135333619Y-128963178D01*
X135430380Y-129301844D02*
X135382000Y-129350225D01*
X135333619Y-129446987D01*
X135333619Y-129688892D01*
X135382000Y-129785654D01*
X135430380Y-129834035D01*
X135527142Y-129882416D01*
X135623904Y-129882416D01*
X135769047Y-129834035D01*
X136349619Y-129253463D01*
X136349619Y-129882416D01*
X115013619Y-126398987D02*
X115255523Y-126398987D01*
X115158761Y-126157082D02*
X115255523Y-126398987D01*
X115158761Y-126640892D01*
X115449047Y-126253844D02*
X115255523Y-126398987D01*
X115449047Y-126544130D01*
X116029619Y-127027940D02*
X115013619Y-127027940D01*
X115981238Y-127463368D02*
X116029619Y-127608511D01*
X116029619Y-127850416D01*
X115981238Y-127947178D01*
X115932857Y-127995559D01*
X115836095Y-128043940D01*
X115739333Y-128043940D01*
X115642571Y-127995559D01*
X115594190Y-127947178D01*
X115545809Y-127850416D01*
X115497428Y-127656892D01*
X115449047Y-127560130D01*
X115400666Y-127511749D01*
X115303904Y-127463368D01*
X115207142Y-127463368D01*
X115110380Y-127511749D01*
X115062000Y-127560130D01*
X115013619Y-127656892D01*
X115013619Y-127898797D01*
X115062000Y-128043940D01*
X115062000Y-129011559D02*
X115013619Y-128914797D01*
X115013619Y-128769654D01*
X115062000Y-128624511D01*
X115158761Y-128527749D01*
X115255523Y-128479368D01*
X115449047Y-128430987D01*
X115594190Y-128430987D01*
X115787714Y-128479368D01*
X115884476Y-128527749D01*
X115981238Y-128624511D01*
X116029619Y-128769654D01*
X116029619Y-128866416D01*
X115981238Y-129011559D01*
X115932857Y-129059940D01*
X115594190Y-129059940D01*
X115594190Y-128866416D01*
X116029619Y-129979178D02*
X116029619Y-129495368D01*
X115013619Y-129495368D01*
D10*
X133937142Y-38870000D02*
X134032380Y-38822380D01*
X134175238Y-38822380D01*
X134318095Y-38870000D01*
X134413333Y-38965238D01*
X134460952Y-39060476D01*
X134508571Y-39250952D01*
X134508571Y-39393809D01*
X134460952Y-39584285D01*
X134413333Y-39679523D01*
X134318095Y-39774761D01*
X134175238Y-39822380D01*
X134080000Y-39822380D01*
X133937142Y-39774761D01*
X133889523Y-39727142D01*
X133889523Y-39393809D01*
X134080000Y-39393809D01*
X133460952Y-39822380D02*
X133460952Y-39155714D01*
X133460952Y-39346190D02*
X133413333Y-39250952D01*
X133365714Y-39203333D01*
X133270476Y-39155714D01*
X133175238Y-39155714D01*
X132699047Y-39822380D02*
X132794285Y-39774761D01*
X132841904Y-39727142D01*
X132889523Y-39631904D01*
X132889523Y-39346190D01*
X132841904Y-39250952D01*
X132794285Y-39203333D01*
X132699047Y-39155714D01*
X132556190Y-39155714D01*
X132460952Y-39203333D01*
X132413333Y-39250952D01*
X132365714Y-39346190D01*
X132365714Y-39631904D01*
X132413333Y-39727142D01*
X132460952Y-39774761D01*
X132556190Y-39822380D01*
X132699047Y-39822380D01*
X131508571Y-39155714D02*
X131508571Y-39822380D01*
X131937142Y-39155714D02*
X131937142Y-39679523D01*
X131889523Y-39774761D01*
X131794285Y-39822380D01*
X131651428Y-39822380D01*
X131556190Y-39774761D01*
X131508571Y-39727142D01*
X131032380Y-39155714D02*
X131032380Y-39822380D01*
X131032380Y-39250952D02*
X130984761Y-39203333D01*
X130889523Y-39155714D01*
X130746666Y-39155714D01*
X130651428Y-39203333D01*
X130603809Y-39298571D01*
X130603809Y-39822380D01*
X129699047Y-39822380D02*
X129699047Y-38822380D01*
X129699047Y-39774761D02*
X129794285Y-39822380D01*
X129984761Y-39822380D01*
X130080000Y-39774761D01*
X130127619Y-39727142D01*
X130175238Y-39631904D01*
X130175238Y-39346190D01*
X130127619Y-39250952D01*
X130080000Y-39203333D01*
X129984761Y-39155714D01*
X129794285Y-39155714D01*
X129699047Y-39203333D01*
D11*
X108409619Y-127753654D02*
X107393619Y-127753654D01*
X107442000Y-128769654D02*
X107393619Y-128672892D01*
X107393619Y-128527749D01*
X107442000Y-128382606D01*
X107538761Y-128285844D01*
X107635523Y-128237463D01*
X107829047Y-128189082D01*
X107974190Y-128189082D01*
X108167714Y-128237463D01*
X108264476Y-128285844D01*
X108361238Y-128382606D01*
X108409619Y-128527749D01*
X108409619Y-128624511D01*
X108361238Y-128769654D01*
X108312857Y-128818035D01*
X107974190Y-128818035D01*
X107974190Y-128624511D01*
X107393619Y-129446987D02*
X107393619Y-129640511D01*
X107442000Y-129737273D01*
X107538761Y-129834035D01*
X107732285Y-129882416D01*
X108070952Y-129882416D01*
X108264476Y-129834035D01*
X108361238Y-129737273D01*
X108409619Y-129640511D01*
X108409619Y-129446987D01*
X108361238Y-129350225D01*
X108264476Y-129253463D01*
X108070952Y-129205082D01*
X107732285Y-129205082D01*
X107538761Y-129253463D01*
X107442000Y-129350225D01*
X107393619Y-129446987D01*
X128729619Y-127705273D02*
X127713619Y-127705273D01*
X127713619Y-128092320D02*
X128729619Y-128334225D01*
X128003904Y-128527749D01*
X128729619Y-128721273D01*
X127713619Y-128963178D01*
X127713619Y-129253463D02*
X127713619Y-129930797D01*
X128729619Y-129495368D01*
X157939619Y-46702012D02*
X156923619Y-46829012D01*
X157939619Y-47766393D02*
X157455809Y-47488202D01*
X157939619Y-47185821D02*
X156923619Y-47312821D01*
X156923619Y-47699869D01*
X156972000Y-47790583D01*
X157020380Y-47832917D01*
X157117142Y-47869202D01*
X157262285Y-47851060D01*
X157359047Y-47790583D01*
X157407428Y-47736155D01*
X157455809Y-47633345D01*
X157455809Y-47246298D01*
X157262285Y-48721917D02*
X157939619Y-48637250D01*
X156875238Y-48528393D02*
X157600952Y-48195774D01*
X157600952Y-48824726D01*
D10*
X128952857Y-137660000D02*
X128857619Y-137707619D01*
X128714761Y-137707619D01*
X128571904Y-137660000D01*
X128476666Y-137564761D01*
X128429047Y-137469523D01*
X128381428Y-137279047D01*
X128381428Y-137136190D01*
X128429047Y-136945714D01*
X128476666Y-136850476D01*
X128571904Y-136755238D01*
X128714761Y-136707619D01*
X128810000Y-136707619D01*
X128952857Y-136755238D01*
X129000476Y-136802857D01*
X129000476Y-137136190D01*
X128810000Y-137136190D01*
X129429047Y-136707619D02*
X129429047Y-137374285D01*
X129429047Y-137183809D02*
X129476666Y-137279047D01*
X129524285Y-137326666D01*
X129619523Y-137374285D01*
X129714761Y-137374285D01*
X130190952Y-136707619D02*
X130095714Y-136755238D01*
X130048095Y-136802857D01*
X130000476Y-136898095D01*
X130000476Y-137183809D01*
X130048095Y-137279047D01*
X130095714Y-137326666D01*
X130190952Y-137374285D01*
X130333809Y-137374285D01*
X130429047Y-137326666D01*
X130476666Y-137279047D01*
X130524285Y-137183809D01*
X130524285Y-136898095D01*
X130476666Y-136802857D01*
X130429047Y-136755238D01*
X130333809Y-136707619D01*
X130190952Y-136707619D01*
X131381428Y-137374285D02*
X131381428Y-136707619D01*
X130952857Y-137374285D02*
X130952857Y-136850476D01*
X131000476Y-136755238D01*
X131095714Y-136707619D01*
X131238571Y-136707619D01*
X131333809Y-136755238D01*
X131381428Y-136802857D01*
X131857619Y-137374285D02*
X131857619Y-136707619D01*
X131857619Y-137279047D02*
X131905238Y-137326666D01*
X132000476Y-137374285D01*
X132143333Y-137374285D01*
X132238571Y-137326666D01*
X132286190Y-137231428D01*
X132286190Y-136707619D01*
X133190952Y-136707619D02*
X133190952Y-137707619D01*
X133190952Y-136755238D02*
X133095714Y-136707619D01*
X132905238Y-136707619D01*
X132810000Y-136755238D01*
X132762380Y-136802857D01*
X132714761Y-136898095D01*
X132714761Y-137183809D01*
X132762380Y-137279047D01*
X132810000Y-137326666D01*
X132905238Y-137374285D01*
X133095714Y-137374285D01*
X133190952Y-137326666D01*
D11*
X109679619Y-46575012D02*
X108663619Y-46702012D01*
X108663619Y-47379345D02*
X108663619Y-47572869D01*
X108712000Y-47663583D01*
X108808761Y-47748250D01*
X109002285Y-47772440D01*
X109340952Y-47730107D01*
X109534476Y-47657536D01*
X109631238Y-47548679D01*
X109679619Y-47445869D01*
X109679619Y-47252345D01*
X109631238Y-47161631D01*
X109534476Y-47076964D01*
X109340952Y-47052774D01*
X109002285Y-47095107D01*
X108808761Y-47167679D01*
X108712000Y-47276536D01*
X108663619Y-47379345D01*
X109679619Y-48123202D02*
X108663619Y-48250202D01*
X109679619Y-48703774D01*
X108663619Y-48830774D01*
X109679619Y-49671393D02*
X109679619Y-49187583D01*
X108663619Y-49314583D01*
X161749619Y-127651993D02*
X160733619Y-127778993D01*
X161749619Y-128716374D02*
X161265809Y-128438184D01*
X161749619Y-128135803D02*
X160733619Y-128262803D01*
X160733619Y-128649850D01*
X160782000Y-128740565D01*
X160830380Y-128782898D01*
X160927142Y-128819184D01*
X161072285Y-128801041D01*
X161169047Y-128740565D01*
X161217428Y-128686136D01*
X161265809Y-128583327D01*
X161265809Y-128196279D01*
X160733619Y-129182041D02*
X160733619Y-129810993D01*
X161120666Y-129423946D01*
X161120666Y-129569089D01*
X161169047Y-129659803D01*
X161217428Y-129702136D01*
X161314190Y-129738422D01*
X161556095Y-129708184D01*
X161652857Y-129647708D01*
X161701238Y-129593279D01*
X161749619Y-129490470D01*
X161749619Y-129200184D01*
X161701238Y-129109470D01*
X161652857Y-129067136D01*
X102059619Y-46568964D02*
X101043619Y-46568964D01*
X102059619Y-47052774D02*
X101043619Y-47052774D01*
X101043619Y-47294679D01*
X101092000Y-47439821D01*
X101188761Y-47536583D01*
X101285523Y-47584964D01*
X101479047Y-47633345D01*
X101624190Y-47633345D01*
X101817714Y-47584964D01*
X101914476Y-47536583D01*
X102011238Y-47439821D01*
X102059619Y-47294679D01*
X102059619Y-47052774D01*
X101527428Y-48068774D02*
X101527428Y-48407440D01*
X102059619Y-48552583D02*
X102059619Y-48068774D01*
X101043619Y-48068774D01*
X101043619Y-48552583D01*
X102059619Y-48988012D02*
X101043619Y-48988012D01*
X102059619Y-49568583D01*
X101043619Y-49568583D01*
X113489619Y-127705273D02*
X112473619Y-127705273D01*
X112473619Y-128092320D02*
X113489619Y-128334225D01*
X112763904Y-128527749D01*
X113489619Y-128721273D01*
X112473619Y-128963178D01*
X113489619Y-129882416D02*
X113489619Y-129301844D01*
X113489619Y-129592130D02*
X112473619Y-129592130D01*
X112618761Y-129495368D01*
X112715523Y-129398606D01*
X112763904Y-129301844D01*
X110949619Y-127705273D02*
X109933619Y-127705273D01*
X109933619Y-128092320D02*
X110949619Y-128334225D01*
X110223904Y-128527749D01*
X110949619Y-128721273D01*
X109933619Y-128963178D01*
X109933619Y-129543749D02*
X109933619Y-129640511D01*
X109982000Y-129737273D01*
X110030380Y-129785654D01*
X110127142Y-129834035D01*
X110320666Y-129882416D01*
X110562571Y-129882416D01*
X110756095Y-129834035D01*
X110852857Y-129785654D01*
X110901238Y-129737273D01*
X110949619Y-129640511D01*
X110949619Y-129543749D01*
X110901238Y-129446987D01*
X110852857Y-129398606D01*
X110756095Y-129350225D01*
X110562571Y-129301844D01*
X110320666Y-129301844D01*
X110127142Y-129350225D01*
X110030380Y-129398606D01*
X109982000Y-129446987D01*
X109933619Y-129543749D01*
X121109619Y-127027940D02*
X120093619Y-127027940D01*
X121109619Y-128092320D02*
X120625809Y-127753654D01*
X121109619Y-127511749D02*
X120093619Y-127511749D01*
X120093619Y-127898797D01*
X120142000Y-127995559D01*
X120190380Y-128043940D01*
X120287142Y-128092320D01*
X120432285Y-128092320D01*
X120529047Y-128043940D01*
X120577428Y-127995559D01*
X120625809Y-127898797D01*
X120625809Y-127511749D01*
X120577428Y-128527749D02*
X120577428Y-128866416D01*
X121109619Y-129011559D02*
X121109619Y-128527749D01*
X120093619Y-128527749D01*
X120093619Y-129011559D01*
X120093619Y-129301844D02*
X121109619Y-129640511D01*
X120093619Y-129979178D01*
D10*
X95702380Y-128699047D02*
X94702380Y-128699047D01*
X94702380Y-129080000D01*
X94750000Y-129175238D01*
X94797619Y-129222857D01*
X94892857Y-129270476D01*
X95035714Y-129270476D01*
X95130952Y-129222857D01*
X95178571Y-129175238D01*
X95226190Y-129080000D01*
X95226190Y-128699047D01*
X95654761Y-130080000D02*
X95702380Y-129984761D01*
X95702380Y-129794285D01*
X95654761Y-129699047D01*
X95559523Y-129651428D01*
X95178571Y-129651428D01*
X95083333Y-129699047D01*
X95035714Y-129794285D01*
X95035714Y-129984761D01*
X95083333Y-130080000D01*
X95178571Y-130127619D01*
X95273809Y-130127619D01*
X95369047Y-129651428D01*
X95702380Y-130556190D02*
X95035714Y-130556190D01*
X95226190Y-130556190D02*
X95130952Y-130603809D01*
X95083333Y-130651428D01*
X95035714Y-130746666D01*
X95035714Y-130841904D01*
X95035714Y-131032380D02*
X95035714Y-131413333D01*
X94702380Y-131175238D02*
X95559523Y-131175238D01*
X95654761Y-131222857D01*
X95702380Y-131318095D01*
X95702380Y-131413333D01*
X95654761Y-132127619D02*
X95702380Y-132032380D01*
X95702380Y-131841904D01*
X95654761Y-131746666D01*
X95559523Y-131699047D01*
X95178571Y-131699047D01*
X95083333Y-131746666D01*
X95035714Y-131841904D01*
X95035714Y-132032380D01*
X95083333Y-132127619D01*
X95178571Y-132175238D01*
X95273809Y-132175238D01*
X95369047Y-131699047D01*
X95654761Y-133032380D02*
X95702380Y-132937142D01*
X95702380Y-132746666D01*
X95654761Y-132651428D01*
X95607142Y-132603809D01*
X95511904Y-132556190D01*
X95226190Y-132556190D01*
X95130952Y-132603809D01*
X95083333Y-132651428D01*
X95035714Y-132746666D01*
X95035714Y-132937142D01*
X95083333Y-133032380D01*
X94702380Y-134508571D02*
X95416666Y-134508571D01*
X95559523Y-134460952D01*
X95654761Y-134365714D01*
X95702380Y-134222857D01*
X95702380Y-134127619D01*
X95702380Y-135508571D02*
X95702380Y-134937142D01*
X95702380Y-135222857D02*
X94702380Y-135222857D01*
X94845238Y-135127619D01*
X94940476Y-135032380D01*
X94988095Y-134937142D01*
D11*
X135079619Y-46568964D02*
X134063619Y-46568964D01*
X134063619Y-47246298D02*
X134063619Y-47439821D01*
X134112000Y-47536583D01*
X134208761Y-47633345D01*
X134402285Y-47681726D01*
X134740952Y-47681726D01*
X134934476Y-47633345D01*
X135031238Y-47536583D01*
X135079619Y-47439821D01*
X135079619Y-47246298D01*
X135031238Y-47149536D01*
X134934476Y-47052774D01*
X134740952Y-47004393D01*
X134402285Y-47004393D01*
X134208761Y-47052774D01*
X134112000Y-47149536D01*
X134063619Y-47246298D01*
X134547428Y-48455821D02*
X134547428Y-48117155D01*
X135079619Y-48117155D02*
X134063619Y-48117155D01*
X134063619Y-48600964D01*
X135079619Y-49471821D02*
X135079619Y-48988012D01*
X134063619Y-48988012D01*
X169511859Y-39964964D02*
X168495859Y-39964964D01*
X168834525Y-40303631D02*
X168834525Y-40690679D01*
X168495859Y-40448774D02*
X169366716Y-40448774D01*
X169463478Y-40497155D01*
X169511859Y-40593917D01*
X169511859Y-40690679D01*
X169511859Y-41464774D02*
X168979668Y-41464774D01*
X168882906Y-41416393D01*
X168834525Y-41319631D01*
X168834525Y-41126107D01*
X168882906Y-41029345D01*
X169463478Y-41464774D02*
X169511859Y-41368012D01*
X169511859Y-41126107D01*
X169463478Y-41029345D01*
X169366716Y-40980964D01*
X169269954Y-40980964D01*
X169173192Y-41029345D01*
X169124811Y-41126107D01*
X169124811Y-41368012D01*
X169076430Y-41464774D01*
X169511859Y-42093726D02*
X169463478Y-41996964D01*
X169366716Y-41948583D01*
X168495859Y-41948583D01*
X169511859Y-42480774D02*
X168834525Y-42480774D01*
X168495859Y-42480774D02*
X168544240Y-42432393D01*
X168592620Y-42480774D01*
X168544240Y-42529155D01*
X168495859Y-42480774D01*
X168592620Y-42480774D01*
X169463478Y-43400012D02*
X169511859Y-43303250D01*
X169511859Y-43109726D01*
X169463478Y-43012964D01*
X169415097Y-42964583D01*
X169318335Y-42916202D01*
X169028049Y-42916202D01*
X168931287Y-42964583D01*
X168882906Y-43012964D01*
X168834525Y-43109726D01*
X168834525Y-43303250D01*
X168882906Y-43400012D01*
X169463478Y-43787060D02*
X169511859Y-43883821D01*
X169511859Y-44077345D01*
X169463478Y-44174107D01*
X169366716Y-44222488D01*
X169318335Y-44222488D01*
X169221573Y-44174107D01*
X169173192Y-44077345D01*
X169173192Y-43932202D01*
X169124811Y-43835440D01*
X169028049Y-43787060D01*
X168979668Y-43787060D01*
X168882906Y-43835440D01*
X168834525Y-43932202D01*
X168834525Y-44077345D01*
X168882906Y-44174107D01*
X168834525Y-45432012D02*
X169511859Y-45432012D01*
X168931287Y-45432012D02*
X168882906Y-45480393D01*
X168834525Y-45577155D01*
X168834525Y-45722298D01*
X168882906Y-45819060D01*
X168979668Y-45867440D01*
X169511859Y-45867440D01*
X169511859Y-46786679D02*
X168979668Y-46786679D01*
X168882906Y-46738298D01*
X168834525Y-46641536D01*
X168834525Y-46448012D01*
X168882906Y-46351250D01*
X169463478Y-46786679D02*
X169511859Y-46689917D01*
X169511859Y-46448012D01*
X169463478Y-46351250D01*
X169366716Y-46302869D01*
X169269954Y-46302869D01*
X169173192Y-46351250D01*
X169124811Y-46448012D01*
X169124811Y-46689917D01*
X169076430Y-46786679D01*
X169511859Y-47270488D02*
X168834525Y-47270488D01*
X168931287Y-47270488D02*
X168882906Y-47318869D01*
X168834525Y-47415631D01*
X168834525Y-47560774D01*
X168882906Y-47657536D01*
X168979668Y-47705917D01*
X169511859Y-47705917D01*
X168979668Y-47705917D02*
X168882906Y-47754298D01*
X168834525Y-47851060D01*
X168834525Y-47996202D01*
X168882906Y-48092964D01*
X168979668Y-48141345D01*
X169511859Y-48141345D01*
X169463478Y-49012202D02*
X169511859Y-48915440D01*
X169511859Y-48721917D01*
X169463478Y-48625155D01*
X169366716Y-48576774D01*
X168979668Y-48576774D01*
X168882906Y-48625155D01*
X168834525Y-48721917D01*
X168834525Y-48915440D01*
X168882906Y-49012202D01*
X168979668Y-49060583D01*
X169076430Y-49060583D01*
X169173192Y-48576774D01*
X169463478Y-49447631D02*
X169511859Y-49544393D01*
X169511859Y-49737917D01*
X169463478Y-49834679D01*
X169366716Y-49883060D01*
X169318335Y-49883060D01*
X169221573Y-49834679D01*
X169173192Y-49737917D01*
X169173192Y-49592774D01*
X169124811Y-49496012D01*
X169028049Y-49447631D01*
X168979668Y-49447631D01*
X168882906Y-49496012D01*
X168834525Y-49592774D01*
X168834525Y-49737917D01*
X168882906Y-49834679D01*
X169511859Y-51528012D02*
X168979668Y-51528012D01*
X168882906Y-51479631D01*
X168834525Y-51382869D01*
X168834525Y-51189345D01*
X168882906Y-51092583D01*
X169463478Y-51528012D02*
X169511859Y-51431250D01*
X169511859Y-51189345D01*
X169463478Y-51092583D01*
X169366716Y-51044202D01*
X169269954Y-51044202D01*
X169173192Y-51092583D01*
X169124811Y-51189345D01*
X169124811Y-51431250D01*
X169076430Y-51528012D01*
X169511859Y-52011821D02*
X168834525Y-52011821D01*
X169028049Y-52011821D02*
X168931287Y-52060202D01*
X168882906Y-52108583D01*
X168834525Y-52205345D01*
X168834525Y-52302107D01*
X169463478Y-53027821D02*
X169511859Y-52931060D01*
X169511859Y-52737536D01*
X169463478Y-52640774D01*
X169366716Y-52592393D01*
X168979668Y-52592393D01*
X168882906Y-52640774D01*
X168834525Y-52737536D01*
X168834525Y-52931060D01*
X168882906Y-53027821D01*
X168979668Y-53076202D01*
X169076430Y-53076202D01*
X169173192Y-52592393D01*
X171099238Y-40400393D02*
X171147619Y-40303631D01*
X171147619Y-40110107D01*
X171099238Y-40013345D01*
X171050857Y-39964964D01*
X170954095Y-39916583D01*
X170663809Y-39916583D01*
X170567047Y-39964964D01*
X170518666Y-40013345D01*
X170470285Y-40110107D01*
X170470285Y-40303631D01*
X170518666Y-40400393D01*
X171147619Y-40980964D02*
X171099238Y-40884202D01*
X171050857Y-40835821D01*
X170954095Y-40787440D01*
X170663809Y-40787440D01*
X170567047Y-40835821D01*
X170518666Y-40884202D01*
X170470285Y-40980964D01*
X170470285Y-41126107D01*
X170518666Y-41222869D01*
X170567047Y-41271250D01*
X170663809Y-41319631D01*
X170954095Y-41319631D01*
X171050857Y-41271250D01*
X171099238Y-41222869D01*
X171147619Y-41126107D01*
X171147619Y-40980964D01*
X170470285Y-41755060D02*
X171147619Y-41755060D01*
X170567047Y-41755060D02*
X170518666Y-41803440D01*
X170470285Y-41900202D01*
X170470285Y-42045345D01*
X170518666Y-42142107D01*
X170615428Y-42190488D01*
X171147619Y-42190488D01*
X170470285Y-42529155D02*
X170470285Y-42916202D01*
X170131619Y-42674298D02*
X171002476Y-42674298D01*
X171099238Y-42722679D01*
X171147619Y-42819440D01*
X171147619Y-42916202D01*
X171147619Y-43254869D02*
X170470285Y-43254869D01*
X170663809Y-43254869D02*
X170567047Y-43303250D01*
X170518666Y-43351631D01*
X170470285Y-43448393D01*
X170470285Y-43545155D01*
X171147619Y-44028964D02*
X171099238Y-43932202D01*
X171050857Y-43883821D01*
X170954095Y-43835440D01*
X170663809Y-43835440D01*
X170567047Y-43883821D01*
X170518666Y-43932202D01*
X170470285Y-44028964D01*
X170470285Y-44174107D01*
X170518666Y-44270869D01*
X170567047Y-44319250D01*
X170663809Y-44367631D01*
X170954095Y-44367631D01*
X171050857Y-44319250D01*
X171099238Y-44270869D01*
X171147619Y-44174107D01*
X171147619Y-44028964D01*
X171147619Y-44948202D02*
X171099238Y-44851440D01*
X171002476Y-44803060D01*
X170131619Y-44803060D01*
X171147619Y-45480393D02*
X171099238Y-45383631D01*
X171002476Y-45335250D01*
X170131619Y-45335250D01*
X171099238Y-46254488D02*
X171147619Y-46157726D01*
X171147619Y-45964202D01*
X171099238Y-45867440D01*
X171002476Y-45819060D01*
X170615428Y-45819060D01*
X170518666Y-45867440D01*
X170470285Y-45964202D01*
X170470285Y-46157726D01*
X170518666Y-46254488D01*
X170615428Y-46302869D01*
X170712190Y-46302869D01*
X170808952Y-45819060D01*
X171147619Y-46738298D02*
X170470285Y-46738298D01*
X170663809Y-46738298D02*
X170567047Y-46786679D01*
X170518666Y-46835060D01*
X170470285Y-46931821D01*
X170470285Y-47028583D01*
X171147619Y-48141345D02*
X170470285Y-48141345D01*
X170131619Y-48141345D02*
X170180000Y-48092964D01*
X170228380Y-48141345D01*
X170180000Y-48189726D01*
X170131619Y-48141345D01*
X170228380Y-48141345D01*
X170470285Y-48625155D02*
X171147619Y-48625155D01*
X170567047Y-48625155D02*
X170518666Y-48673536D01*
X170470285Y-48770298D01*
X170470285Y-48915440D01*
X170518666Y-49012202D01*
X170615428Y-49060583D01*
X171147619Y-49060583D01*
X170470285Y-49544393D02*
X171486285Y-49544393D01*
X170518666Y-49544393D02*
X170470285Y-49641155D01*
X170470285Y-49834679D01*
X170518666Y-49931440D01*
X170567047Y-49979821D01*
X170663809Y-50028202D01*
X170954095Y-50028202D01*
X171050857Y-49979821D01*
X171099238Y-49931440D01*
X171147619Y-49834679D01*
X171147619Y-49641155D01*
X171099238Y-49544393D01*
X170470285Y-50899060D02*
X171147619Y-50899060D01*
X170470285Y-50463631D02*
X171002476Y-50463631D01*
X171099238Y-50512012D01*
X171147619Y-50608774D01*
X171147619Y-50753917D01*
X171099238Y-50850679D01*
X171050857Y-50899060D01*
X170470285Y-51237726D02*
X170470285Y-51624774D01*
X170131619Y-51382869D02*
X171002476Y-51382869D01*
X171099238Y-51431250D01*
X171147619Y-51528012D01*
X171147619Y-51624774D01*
X171099238Y-51915060D02*
X171147619Y-52011821D01*
X171147619Y-52205345D01*
X171099238Y-52302107D01*
X171002476Y-52350488D01*
X170954095Y-52350488D01*
X170857333Y-52302107D01*
X170808952Y-52205345D01*
X170808952Y-52060202D01*
X170760571Y-51963440D01*
X170663809Y-51915060D01*
X170615428Y-51915060D01*
X170518666Y-51963440D01*
X170470285Y-52060202D01*
X170470285Y-52205345D01*
X170518666Y-52302107D01*
X170083238Y-53511631D02*
X171389523Y-52640774D01*
X172106045Y-39964964D02*
X173122045Y-39964964D01*
X172154426Y-39964964D02*
X172106045Y-40061726D01*
X172106045Y-40255250D01*
X172154426Y-40352012D01*
X172202807Y-40400393D01*
X172299569Y-40448774D01*
X172589855Y-40448774D01*
X172686617Y-40400393D01*
X172734998Y-40352012D01*
X172783379Y-40255250D01*
X172783379Y-40061726D01*
X172734998Y-39964964D01*
X172734998Y-41271250D02*
X172783379Y-41174488D01*
X172783379Y-40980964D01*
X172734998Y-40884202D01*
X172638236Y-40835821D01*
X172251188Y-40835821D01*
X172154426Y-40884202D01*
X172106045Y-40980964D01*
X172106045Y-41174488D01*
X172154426Y-41271250D01*
X172251188Y-41319631D01*
X172347950Y-41319631D01*
X172444712Y-40835821D01*
X172783379Y-41755060D02*
X172106045Y-41755060D01*
X172299569Y-41755060D02*
X172202807Y-41803440D01*
X172154426Y-41851821D01*
X172106045Y-41948583D01*
X172106045Y-42045345D01*
X172783379Y-42384012D02*
X172106045Y-42384012D01*
X171767379Y-42384012D02*
X171815760Y-42335631D01*
X171864140Y-42384012D01*
X171815760Y-42432393D01*
X171767379Y-42384012D01*
X171864140Y-42384012D01*
X172106045Y-42867821D02*
X173122045Y-42867821D01*
X172154426Y-42867821D02*
X172106045Y-42964583D01*
X172106045Y-43158107D01*
X172154426Y-43254869D01*
X172202807Y-43303250D01*
X172299569Y-43351631D01*
X172589855Y-43351631D01*
X172686617Y-43303250D01*
X172734998Y-43254869D01*
X172783379Y-43158107D01*
X172783379Y-42964583D01*
X172734998Y-42867821D01*
X172783379Y-43787060D02*
X171767379Y-43787060D01*
X172783379Y-44222488D02*
X172251188Y-44222488D01*
X172154426Y-44174107D01*
X172106045Y-44077345D01*
X172106045Y-43932202D01*
X172154426Y-43835440D01*
X172202807Y-43787060D01*
X172734998Y-45093345D02*
X172783379Y-44996583D01*
X172783379Y-44803060D01*
X172734998Y-44706298D01*
X172638236Y-44657917D01*
X172251188Y-44657917D01*
X172154426Y-44706298D01*
X172106045Y-44803060D01*
X172106045Y-44996583D01*
X172154426Y-45093345D01*
X172251188Y-45141726D01*
X172347950Y-45141726D01*
X172444712Y-44657917D01*
X172783379Y-45577155D02*
X172106045Y-45577155D01*
X172299569Y-45577155D02*
X172202807Y-45625536D01*
X172154426Y-45673917D01*
X172106045Y-45770679D01*
X172106045Y-45867440D01*
X172783379Y-46641536D02*
X172251188Y-46641536D01*
X172154426Y-46593155D01*
X172106045Y-46496393D01*
X172106045Y-46302869D01*
X172154426Y-46206107D01*
X172734998Y-46641536D02*
X172783379Y-46544774D01*
X172783379Y-46302869D01*
X172734998Y-46206107D01*
X172638236Y-46157726D01*
X172541474Y-46157726D01*
X172444712Y-46206107D01*
X172396331Y-46302869D01*
X172396331Y-46544774D01*
X172347950Y-46641536D01*
X172783379Y-47270488D02*
X172734998Y-47173726D01*
X172638236Y-47125345D01*
X171767379Y-47125345D01*
X172783379Y-48576774D02*
X172734998Y-48480012D01*
X172686617Y-48431631D01*
X172589855Y-48383250D01*
X172299569Y-48383250D01*
X172202807Y-48431631D01*
X172154426Y-48480012D01*
X172106045Y-48576774D01*
X172106045Y-48721917D01*
X172154426Y-48818679D01*
X172202807Y-48867060D01*
X172299569Y-48915440D01*
X172589855Y-48915440D01*
X172686617Y-48867060D01*
X172734998Y-48818679D01*
X172783379Y-48721917D01*
X172783379Y-48576774D01*
X172106045Y-49786298D02*
X172783379Y-49786298D01*
X172106045Y-49350869D02*
X172638236Y-49350869D01*
X172734998Y-49399250D01*
X172783379Y-49496012D01*
X172783379Y-49641155D01*
X172734998Y-49737917D01*
X172686617Y-49786298D01*
X172106045Y-50124964D02*
X172106045Y-50512012D01*
X171767379Y-50270107D02*
X172638236Y-50270107D01*
X172734998Y-50318488D01*
X172783379Y-50415250D01*
X172783379Y-50512012D01*
X172106045Y-50850679D02*
X173122045Y-50850679D01*
X172154426Y-50850679D02*
X172106045Y-50947440D01*
X172106045Y-51140964D01*
X172154426Y-51237726D01*
X172202807Y-51286107D01*
X172299569Y-51334488D01*
X172589855Y-51334488D01*
X172686617Y-51286107D01*
X172734998Y-51237726D01*
X172783379Y-51140964D01*
X172783379Y-50947440D01*
X172734998Y-50850679D01*
X172106045Y-52205345D02*
X172783379Y-52205345D01*
X172106045Y-51769917D02*
X172638236Y-51769917D01*
X172734998Y-51818298D01*
X172783379Y-51915060D01*
X172783379Y-52060202D01*
X172734998Y-52156964D01*
X172686617Y-52205345D01*
X172106045Y-52544012D02*
X172106045Y-52931060D01*
X171767379Y-52689155D02*
X172638236Y-52689155D01*
X172734998Y-52737536D01*
X172783379Y-52834298D01*
X172783379Y-52931060D01*
X172734998Y-53221345D02*
X172783379Y-53318107D01*
X172783379Y-53511631D01*
X172734998Y-53608393D01*
X172638236Y-53656774D01*
X172589855Y-53656774D01*
X172493093Y-53608393D01*
X172444712Y-53511631D01*
X172444712Y-53366488D01*
X172396331Y-53269726D01*
X172299569Y-53221345D01*
X172251188Y-53221345D01*
X172154426Y-53269726D01*
X172106045Y-53366488D01*
X172106045Y-53511631D01*
X172154426Y-53608393D01*
X172686617Y-54092202D02*
X172734998Y-54140583D01*
X172783379Y-54092202D01*
X172734998Y-54043821D01*
X172686617Y-54092202D01*
X172783379Y-54092202D01*
X151589619Y-126640892D02*
X150573619Y-126640892D01*
X150573619Y-127027940D02*
X151589619Y-127269844D01*
X150863904Y-127463368D01*
X151589619Y-127656892D01*
X150573619Y-127898797D01*
X151057428Y-128624511D02*
X151057428Y-128285844D01*
X151589619Y-128285844D02*
X150573619Y-128285844D01*
X150573619Y-128769654D01*
X151589619Y-129156701D02*
X150573619Y-129156701D01*
X151299333Y-129495368D01*
X150573619Y-129834035D01*
X151589619Y-129834035D01*
X117299619Y-46575012D02*
X116283619Y-46702012D01*
X117299619Y-47058821D02*
X116283619Y-47185821D01*
X116283619Y-47427726D01*
X116332000Y-47566821D01*
X116428761Y-47651488D01*
X116525523Y-47687774D01*
X116719047Y-47711964D01*
X116864190Y-47693821D01*
X117057714Y-47621250D01*
X117154476Y-47560774D01*
X117251238Y-47451917D01*
X117299619Y-47300726D01*
X117299619Y-47058821D01*
X116767428Y-48480012D02*
X116815809Y-48619107D01*
X116864190Y-48661440D01*
X116960952Y-48697726D01*
X117106095Y-48679583D01*
X117202857Y-48619107D01*
X117251238Y-48564679D01*
X117299619Y-48461869D01*
X117299619Y-48074821D01*
X116283619Y-48201821D01*
X116283619Y-48540488D01*
X116332000Y-48631202D01*
X116380380Y-48673536D01*
X116477142Y-48709821D01*
X116573904Y-48697726D01*
X116670666Y-48637250D01*
X116719047Y-48582821D01*
X116767428Y-48480012D01*
X116767428Y-48141345D01*
X116815809Y-49344821D02*
X117299619Y-49284345D01*
X116283619Y-49072679D02*
X116815809Y-49344821D01*
X116283619Y-49750012D01*
X119839619Y-46575012D02*
X118823619Y-46702012D01*
X118823619Y-47089060D02*
X119839619Y-47203964D01*
X119113904Y-47488202D01*
X119839619Y-47591012D01*
X118823619Y-47959917D01*
X119791238Y-48177631D02*
X119839619Y-48316726D01*
X119839619Y-48558631D01*
X119791238Y-48661440D01*
X119742857Y-48715869D01*
X119646095Y-48776345D01*
X119549333Y-48788440D01*
X119452571Y-48752155D01*
X119404190Y-48709821D01*
X119355809Y-48619107D01*
X119307428Y-48431631D01*
X119259047Y-48340917D01*
X119210666Y-48298583D01*
X119113904Y-48262298D01*
X119017142Y-48274393D01*
X118920380Y-48334869D01*
X118872000Y-48389298D01*
X118823619Y-48492107D01*
X118823619Y-48734012D01*
X118872000Y-48873107D01*
X118823619Y-49169440D02*
X118823619Y-49750012D01*
X119839619Y-49332726D02*
X118823619Y-49459726D01*
X119839619Y-50542250D02*
X119355809Y-50264060D01*
X119839619Y-49961679D02*
X118823619Y-50088679D01*
X118823619Y-50475726D01*
X118872000Y-50566440D01*
X118920380Y-50608774D01*
X119017142Y-50645060D01*
X119162285Y-50626917D01*
X119259047Y-50566440D01*
X119307428Y-50512012D01*
X119355809Y-50409202D01*
X119355809Y-50022155D01*
X137619619Y-46575012D02*
X136603619Y-46702012D01*
X137087428Y-47125345D02*
X137087428Y-47464012D01*
X137619619Y-47542631D02*
X137619619Y-47058821D01*
X136603619Y-47185821D01*
X136603619Y-47669631D01*
X136603619Y-48298583D02*
X136603619Y-48492107D01*
X136652000Y-48582821D01*
X136748761Y-48667488D01*
X136942285Y-48691679D01*
X137280952Y-48649345D01*
X137474476Y-48576774D01*
X137571238Y-48467917D01*
X137619619Y-48365107D01*
X137619619Y-48171583D01*
X137571238Y-48080869D01*
X137474476Y-47996202D01*
X137280952Y-47972012D01*
X136942285Y-48014345D01*
X136748761Y-48086917D01*
X136652000Y-48195774D01*
X136603619Y-48298583D01*
X136603619Y-49024298D02*
X136603619Y-49604869D01*
X137619619Y-49187583D02*
X136603619Y-49314583D01*
D10*
X96972380Y-40307047D02*
X95972380Y-40307047D01*
X95972380Y-40688000D01*
X96020000Y-40783238D01*
X96067619Y-40830857D01*
X96162857Y-40878476D01*
X96305714Y-40878476D01*
X96400952Y-40830857D01*
X96448571Y-40783238D01*
X96496190Y-40688000D01*
X96496190Y-40307047D01*
X96924761Y-41688000D02*
X96972380Y-41592761D01*
X96972380Y-41402285D01*
X96924761Y-41307047D01*
X96829523Y-41259428D01*
X96448571Y-41259428D01*
X96353333Y-41307047D01*
X96305714Y-41402285D01*
X96305714Y-41592761D01*
X96353333Y-41688000D01*
X96448571Y-41735619D01*
X96543809Y-41735619D01*
X96639047Y-41259428D01*
X96972380Y-42164190D02*
X96305714Y-42164190D01*
X96496190Y-42164190D02*
X96400952Y-42211809D01*
X96353333Y-42259428D01*
X96305714Y-42354666D01*
X96305714Y-42449904D01*
X96305714Y-42640380D02*
X96305714Y-43021333D01*
X95972380Y-42783238D02*
X96829523Y-42783238D01*
X96924761Y-42830857D01*
X96972380Y-42926095D01*
X96972380Y-43021333D01*
X96924761Y-43735619D02*
X96972380Y-43640380D01*
X96972380Y-43449904D01*
X96924761Y-43354666D01*
X96829523Y-43307047D01*
X96448571Y-43307047D01*
X96353333Y-43354666D01*
X96305714Y-43449904D01*
X96305714Y-43640380D01*
X96353333Y-43735619D01*
X96448571Y-43783238D01*
X96543809Y-43783238D01*
X96639047Y-43307047D01*
X96924761Y-44640380D02*
X96972380Y-44545142D01*
X96972380Y-44354666D01*
X96924761Y-44259428D01*
X96877142Y-44211809D01*
X96781904Y-44164190D01*
X96496190Y-44164190D01*
X96400952Y-44211809D01*
X96353333Y-44259428D01*
X96305714Y-44354666D01*
X96305714Y-44545142D01*
X96353333Y-44640380D01*
X95972380Y-46116571D02*
X96686666Y-46116571D01*
X96829523Y-46068952D01*
X96924761Y-45973714D01*
X96972380Y-45830857D01*
X96972380Y-45735619D01*
X96067619Y-46545142D02*
X96020000Y-46592761D01*
X95972380Y-46688000D01*
X95972380Y-46926095D01*
X96020000Y-47021333D01*
X96067619Y-47068952D01*
X96162857Y-47116571D01*
X96258095Y-47116571D01*
X96400952Y-47068952D01*
X96972380Y-46497523D01*
X96972380Y-47116571D01*
D11*
X160479619Y-38624993D02*
X159463619Y-38751993D01*
X160479619Y-39689374D02*
X159995809Y-39411184D01*
X160479619Y-39108803D02*
X159463619Y-39235803D01*
X159463619Y-39622850D01*
X159512000Y-39713565D01*
X159560380Y-39755898D01*
X159657142Y-39792184D01*
X159802285Y-39774041D01*
X159899047Y-39713565D01*
X159947428Y-39659136D01*
X159995809Y-39556327D01*
X159995809Y-39169279D01*
X160479619Y-40656993D02*
X160479619Y-40076422D01*
X160479619Y-40366708D02*
X159463619Y-40493708D01*
X159608761Y-40378803D01*
X159705523Y-40269946D01*
X159753904Y-40167136D01*
X163019619Y-46702012D02*
X162003619Y-46829012D01*
X163019619Y-47766393D02*
X162535809Y-47488202D01*
X163019619Y-47185821D02*
X162003619Y-47312821D01*
X162003619Y-47699869D01*
X162052000Y-47790583D01*
X162100380Y-47832917D01*
X162197142Y-47869202D01*
X162342285Y-47851060D01*
X162439047Y-47790583D01*
X162487428Y-47736155D01*
X162535809Y-47633345D01*
X162535809Y-47246298D01*
X162003619Y-48522345D02*
X162003619Y-48619107D01*
X162052000Y-48709821D01*
X162100380Y-48752155D01*
X162197142Y-48788440D01*
X162390666Y-48812631D01*
X162632571Y-48782393D01*
X162826095Y-48709821D01*
X162922857Y-48649345D01*
X162971238Y-48594917D01*
X163019619Y-48492107D01*
X163019619Y-48395345D01*
X162971238Y-48304631D01*
X162922857Y-48262298D01*
X162826095Y-48226012D01*
X162632571Y-48201821D01*
X162390666Y-48232060D01*
X162197142Y-48304631D01*
X162100380Y-48365107D01*
X162052000Y-48419536D01*
X162003619Y-48522345D01*
X156669619Y-126205463D02*
X155653619Y-126205463D01*
X155653619Y-126544130D02*
X155653619Y-127124701D01*
X156669619Y-126834416D02*
X155653619Y-126834416D01*
X156379333Y-127414987D02*
X156379333Y-127898797D01*
X156669619Y-127318225D02*
X155653619Y-127656892D01*
X156669619Y-127995559D01*
X156669619Y-128334225D02*
X155653619Y-128334225D01*
X155653619Y-128576130D01*
X155702000Y-128721273D01*
X155798761Y-128818035D01*
X155895523Y-128866416D01*
X156089047Y-128914797D01*
X156234190Y-128914797D01*
X156427714Y-128866416D01*
X156524476Y-128818035D01*
X156621238Y-128721273D01*
X156669619Y-128576130D01*
X156669619Y-128334225D01*
X155653619Y-129543749D02*
X155653619Y-129640511D01*
X155702000Y-129737273D01*
X155750380Y-129785654D01*
X155847142Y-129834035D01*
X156040666Y-129882416D01*
X156282571Y-129882416D01*
X156476095Y-129834035D01*
X156572857Y-129785654D01*
X156621238Y-129737273D01*
X156669619Y-129640511D01*
X156669619Y-129543749D01*
X156621238Y-129446987D01*
X156572857Y-129398606D01*
X156476095Y-129350225D01*
X156282571Y-129301844D01*
X156040666Y-129301844D01*
X155847142Y-129350225D01*
X155750380Y-129398606D01*
X155702000Y-129446987D01*
X155653619Y-129543749D01*
X160479619Y-46702012D02*
X159463619Y-46829012D01*
X160479619Y-47669631D02*
X160479619Y-47185821D01*
X159463619Y-47312821D01*
X160479619Y-48008298D02*
X159463619Y-48135298D01*
X159463619Y-48377202D01*
X159512000Y-48516298D01*
X159608761Y-48600964D01*
X159705523Y-48637250D01*
X159899047Y-48661440D01*
X160044190Y-48643298D01*
X160237714Y-48570726D01*
X160334476Y-48510250D01*
X160431238Y-48401393D01*
X160479619Y-48250202D01*
X160479619Y-48008298D01*
X160479619Y-49024298D02*
X159463619Y-49151298D01*
X159463619Y-49538345D01*
X159512000Y-49629060D01*
X159560380Y-49671393D01*
X159657142Y-49707679D01*
X159802285Y-49689536D01*
X159899047Y-49629060D01*
X159947428Y-49574631D01*
X159995809Y-49471821D01*
X159995809Y-49084774D01*
X118569619Y-127124701D02*
X117553619Y-127124701D01*
X118569619Y-128092320D02*
X118569619Y-127608511D01*
X117553619Y-127608511D01*
X117553619Y-128624511D02*
X117553619Y-128818035D01*
X117602000Y-128914797D01*
X117698761Y-129011559D01*
X117892285Y-129059940D01*
X118230952Y-129059940D01*
X118424476Y-129011559D01*
X118521238Y-128914797D01*
X118569619Y-128818035D01*
X118569619Y-128624511D01*
X118521238Y-128527749D01*
X118424476Y-128430987D01*
X118230952Y-128382606D01*
X117892285Y-128382606D01*
X117698761Y-128430987D01*
X117602000Y-128527749D01*
X117553619Y-128624511D01*
X118569619Y-129979178D02*
X118569619Y-129495368D01*
X117553619Y-129495368D01*
X152859619Y-46702012D02*
X151843619Y-46829012D01*
X152859619Y-47766393D02*
X152375809Y-47488202D01*
X152859619Y-47185821D02*
X151843619Y-47312821D01*
X151843619Y-47699869D01*
X151892000Y-47790583D01*
X151940380Y-47832917D01*
X152037142Y-47869202D01*
X152182285Y-47851060D01*
X152279047Y-47790583D01*
X152327428Y-47736155D01*
X152375809Y-47633345D01*
X152375809Y-47246298D01*
X151843619Y-48764250D02*
X151843619Y-48570726D01*
X151892000Y-48467917D01*
X151940380Y-48413488D01*
X152085523Y-48298583D01*
X152279047Y-48226012D01*
X152666095Y-48177631D01*
X152762857Y-48213917D01*
X152811238Y-48256250D01*
X152859619Y-48346964D01*
X152859619Y-48540488D01*
X152811238Y-48643298D01*
X152762857Y-48697726D01*
X152666095Y-48758202D01*
X152424190Y-48788440D01*
X152327428Y-48752155D01*
X152279047Y-48709821D01*
X152230666Y-48619107D01*
X152230666Y-48425583D01*
X152279047Y-48322774D01*
X152327428Y-48268345D01*
X152424190Y-48207869D01*
X127459619Y-46575012D02*
X126443619Y-46702012D01*
X127459619Y-47639393D02*
X126975809Y-47361202D01*
X127459619Y-47058821D02*
X126443619Y-47185821D01*
X126443619Y-47572869D01*
X126492000Y-47663583D01*
X126540380Y-47705917D01*
X126637142Y-47742202D01*
X126782285Y-47724060D01*
X126879047Y-47663583D01*
X126927428Y-47609155D01*
X126975809Y-47506345D01*
X126975809Y-47119298D01*
X126443619Y-48105060D02*
X127459619Y-48219964D01*
X126733904Y-48504202D01*
X127459619Y-48607012D01*
X126443619Y-48975917D01*
X127459619Y-49235964D02*
X126443619Y-49362964D01*
X126443619Y-49604869D01*
X126492000Y-49743964D01*
X126588761Y-49828631D01*
X126685523Y-49864917D01*
X126879047Y-49889107D01*
X127024190Y-49870964D01*
X127217714Y-49798393D01*
X127314476Y-49737917D01*
X127411238Y-49629060D01*
X127459619Y-49477869D01*
X127459619Y-49235964D01*
X154129619Y-126011940D02*
X153113619Y-126011940D01*
X154129619Y-127076320D02*
X153645809Y-126737654D01*
X154129619Y-126495749D02*
X153113619Y-126495749D01*
X153113619Y-126882797D01*
X153162000Y-126979559D01*
X153210380Y-127027940D01*
X153307142Y-127076320D01*
X153452285Y-127076320D01*
X153549047Y-127027940D01*
X153597428Y-126979559D01*
X153645809Y-126882797D01*
X153645809Y-126495749D01*
X153113619Y-127366606D02*
X153113619Y-127947178D01*
X154129619Y-127656892D02*
X153113619Y-127656892D01*
X154129619Y-128285844D02*
X153113619Y-128285844D01*
X153597428Y-128285844D02*
X153597428Y-128866416D01*
X154129619Y-128866416D02*
X153113619Y-128866416D01*
X154129619Y-129882416D02*
X154129619Y-129301844D01*
X154129619Y-129592130D02*
X153113619Y-129592130D01*
X153258761Y-129495368D01*
X153355523Y-129398606D01*
X153403904Y-129301844D01*
X143969619Y-126011940D02*
X142953619Y-126011940D01*
X143969619Y-127076320D02*
X143485809Y-126737654D01*
X143969619Y-126495749D02*
X142953619Y-126495749D01*
X142953619Y-126882797D01*
X143002000Y-126979559D01*
X143050380Y-127027940D01*
X143147142Y-127076320D01*
X143292285Y-127076320D01*
X143389047Y-127027940D01*
X143437428Y-126979559D01*
X143485809Y-126882797D01*
X143485809Y-126495749D01*
X142953619Y-127366606D02*
X142953619Y-127947178D01*
X143969619Y-127656892D02*
X142953619Y-127656892D01*
X143969619Y-128285844D02*
X142953619Y-128285844D01*
X143437428Y-128285844D02*
X143437428Y-128866416D01*
X143969619Y-128866416D02*
X142953619Y-128866416D01*
X143050380Y-129301844D02*
X143002000Y-129350225D01*
X142953619Y-129446987D01*
X142953619Y-129688892D01*
X143002000Y-129785654D01*
X143050380Y-129834035D01*
X143147142Y-129882416D01*
X143243904Y-129882416D01*
X143389047Y-129834035D01*
X143969619Y-129253463D01*
X143969619Y-129882416D01*
X105869619Y-127705273D02*
X104853619Y-127705273D01*
X104853619Y-128092320D02*
X105869619Y-128334225D01*
X105143904Y-128527749D01*
X105869619Y-128721273D01*
X104853619Y-128963178D01*
X105192285Y-129785654D02*
X105869619Y-129785654D01*
X104805238Y-129543749D02*
X105530952Y-129301844D01*
X105530952Y-129930797D01*
X100789619Y-127076320D02*
X99773619Y-127076320D01*
X100257428Y-127898797D02*
X100257428Y-127560130D01*
X100789619Y-127560130D02*
X99773619Y-127560130D01*
X99773619Y-128043940D01*
X100257428Y-128769654D02*
X100305809Y-128914797D01*
X100354190Y-128963178D01*
X100450952Y-129011559D01*
X100596095Y-129011559D01*
X100692857Y-128963178D01*
X100741238Y-128914797D01*
X100789619Y-128818035D01*
X100789619Y-128430987D01*
X99773619Y-128430987D01*
X99773619Y-128769654D01*
X99822000Y-128866416D01*
X99870380Y-128914797D01*
X99967142Y-128963178D01*
X100063904Y-128963178D01*
X100160666Y-128914797D01*
X100209047Y-128866416D01*
X100257428Y-128769654D01*
X100257428Y-128430987D01*
X100305809Y-129640511D02*
X100789619Y-129640511D01*
X99773619Y-129301844D02*
X100305809Y-129640511D01*
X99773619Y-129979178D01*
X155399619Y-46702012D02*
X154383619Y-46829012D01*
X155399619Y-47766393D02*
X154915809Y-47488202D01*
X155399619Y-47185821D02*
X154383619Y-47312821D01*
X154383619Y-47699869D01*
X154432000Y-47790583D01*
X154480380Y-47832917D01*
X154577142Y-47869202D01*
X154722285Y-47851060D01*
X154819047Y-47790583D01*
X154867428Y-47736155D01*
X154915809Y-47633345D01*
X154915809Y-47246298D01*
X154383619Y-48232060D02*
X154383619Y-48909393D01*
X155399619Y-48346964D01*
X141429619Y-126882797D02*
X140413619Y-126882797D01*
X140413619Y-127269844D02*
X141429619Y-127511749D01*
X140703904Y-127705273D01*
X141429619Y-127898797D01*
X140413619Y-128140701D01*
X141429619Y-129108320D02*
X140945809Y-128769654D01*
X141429619Y-128527749D02*
X140413619Y-128527749D01*
X140413619Y-128914797D01*
X140462000Y-129011559D01*
X140510380Y-129059940D01*
X140607142Y-129108320D01*
X140752285Y-129108320D01*
X140849047Y-129059940D01*
X140897428Y-129011559D01*
X140945809Y-128914797D01*
X140945809Y-128527749D01*
X140413619Y-129398606D02*
X140413619Y-129979178D01*
X141429619Y-129688892D02*
X140413619Y-129688892D01*
X142699619Y-46568964D02*
X141683619Y-46568964D01*
X142167428Y-47391440D02*
X142167428Y-47052774D01*
X142699619Y-47052774D02*
X141683619Y-47052774D01*
X141683619Y-47536583D01*
X142167428Y-47923631D02*
X142167428Y-48262298D01*
X142699619Y-48407440D02*
X142699619Y-47923631D01*
X141683619Y-47923631D01*
X141683619Y-48407440D01*
X142699619Y-48842869D02*
X141683619Y-48842869D01*
X142699619Y-49423440D01*
X141683619Y-49423440D01*
X140159619Y-46575012D02*
X139143619Y-46702012D01*
X140159619Y-47639393D02*
X139675809Y-47361202D01*
X140159619Y-47058821D02*
X139143619Y-47185821D01*
X139143619Y-47572869D01*
X139192000Y-47663583D01*
X139240380Y-47705917D01*
X139337142Y-47742202D01*
X139482285Y-47724060D01*
X139579047Y-47663583D01*
X139627428Y-47609155D01*
X139675809Y-47506345D01*
X139675809Y-47119298D01*
X139143619Y-48685631D02*
X139143619Y-48201821D01*
X139627428Y-48092964D01*
X139579047Y-48147393D01*
X139530666Y-48250202D01*
X139530666Y-48492107D01*
X139579047Y-48582821D01*
X139627428Y-48625155D01*
X139724190Y-48661440D01*
X139966095Y-48631202D01*
X140062857Y-48570726D01*
X140111238Y-48516298D01*
X140159619Y-48413488D01*
X140159619Y-48171583D01*
X140111238Y-48080869D01*
X140062857Y-48038536D01*
X122379619Y-46575012D02*
X121363619Y-46702012D01*
X122379619Y-47639393D02*
X121895809Y-47361202D01*
X122379619Y-47058821D02*
X121363619Y-47185821D01*
X121363619Y-47572869D01*
X121412000Y-47663583D01*
X121460380Y-47705917D01*
X121557142Y-47742202D01*
X121702285Y-47724060D01*
X121799047Y-47663583D01*
X121847428Y-47609155D01*
X121895809Y-47506345D01*
X121895809Y-47119298D01*
X122331238Y-48032488D02*
X122379619Y-48171583D01*
X122379619Y-48413488D01*
X122331238Y-48516298D01*
X122282857Y-48570726D01*
X122186095Y-48631202D01*
X122089333Y-48643298D01*
X121992571Y-48607012D01*
X121944190Y-48564679D01*
X121895809Y-48473964D01*
X121847428Y-48286488D01*
X121799047Y-48195774D01*
X121750666Y-48153440D01*
X121653904Y-48117155D01*
X121557142Y-48129250D01*
X121460380Y-48189726D01*
X121412000Y-48244155D01*
X121363619Y-48346964D01*
X121363619Y-48588869D01*
X121412000Y-48727964D01*
X121363619Y-49024298D02*
X121363619Y-49604869D01*
X122379619Y-49187583D02*
X121363619Y-49314583D01*
X122379619Y-50397107D02*
X121895809Y-50118917D01*
X122379619Y-49816536D02*
X121363619Y-49943536D01*
X121363619Y-50330583D01*
X121412000Y-50421298D01*
X121460380Y-50463631D01*
X121557142Y-50499917D01*
X121702285Y-50481774D01*
X121799047Y-50421298D01*
X121847428Y-50366869D01*
X121895809Y-50264060D01*
X121895809Y-49877012D01*
X123649619Y-126737654D02*
X122633619Y-126737654D01*
X123649619Y-127802035D02*
X123165809Y-127463368D01*
X123649619Y-127221463D02*
X122633619Y-127221463D01*
X122633619Y-127608511D01*
X122682000Y-127705273D01*
X122730380Y-127753654D01*
X122827142Y-127802035D01*
X122972285Y-127802035D01*
X123069047Y-127753654D01*
X123117428Y-127705273D01*
X123165809Y-127608511D01*
X123165809Y-127221463D01*
X123117428Y-128237463D02*
X123117428Y-128576130D01*
X123649619Y-128721273D02*
X123649619Y-128237463D01*
X122633619Y-128237463D01*
X122633619Y-128721273D01*
X122633619Y-129059940D02*
X123649619Y-129301844D01*
X122923904Y-129495368D01*
X123649619Y-129688892D01*
X122633619Y-129930797D01*
X133809619Y-127705273D02*
X132793619Y-127705273D01*
X132793619Y-128092320D02*
X133809619Y-128334225D01*
X133083904Y-128527749D01*
X133809619Y-128721273D01*
X132793619Y-128963178D01*
X132793619Y-129785654D02*
X132793619Y-129592130D01*
X132842000Y-129495368D01*
X132890380Y-129446987D01*
X133035523Y-129350225D01*
X133229047Y-129301844D01*
X133616095Y-129301844D01*
X133712857Y-129350225D01*
X133761238Y-129398606D01*
X133809619Y-129495368D01*
X133809619Y-129688892D01*
X133761238Y-129785654D01*
X133712857Y-129834035D01*
X133616095Y-129882416D01*
X133374190Y-129882416D01*
X133277428Y-129834035D01*
X133229047Y-129785654D01*
X133180666Y-129688892D01*
X133180666Y-129495368D01*
X133229047Y-129398606D01*
X133277428Y-129350225D01*
X133374190Y-129301844D01*
X103329619Y-126834416D02*
X102313619Y-126834416D01*
X103329619Y-127802035D02*
X103329619Y-127318225D01*
X102313619Y-127318225D01*
X102313619Y-128043940D02*
X103329619Y-128285844D01*
X102603904Y-128479368D01*
X103329619Y-128672892D01*
X102313619Y-128914797D01*
X103329619Y-129301844D02*
X102313619Y-129301844D01*
X102313619Y-129543749D01*
X102362000Y-129688892D01*
X102458761Y-129785654D01*
X102555523Y-129834035D01*
X102749047Y-129882416D01*
X102894190Y-129882416D01*
X103087714Y-129834035D01*
X103184476Y-129785654D01*
X103281238Y-129688892D01*
X103329619Y-129543749D01*
X103329619Y-129301844D01*
X107139619Y-46568964D02*
X106123619Y-46568964D01*
X106123619Y-46907631D02*
X106123619Y-47488202D01*
X107139619Y-47197917D02*
X106123619Y-47197917D01*
X106849333Y-47778488D02*
X106849333Y-48262298D01*
X107139619Y-47681726D02*
X106123619Y-48020393D01*
X107139619Y-48359060D01*
X107139619Y-48697726D02*
X106123619Y-48697726D01*
X106123619Y-48939631D01*
X106172000Y-49084774D01*
X106268761Y-49181536D01*
X106365523Y-49229917D01*
X106559047Y-49278298D01*
X106704190Y-49278298D01*
X106897714Y-49229917D01*
X106994476Y-49181536D01*
X107091238Y-49084774D01*
X107139619Y-48939631D01*
X107139619Y-48697726D01*
X107139619Y-50245917D02*
X107139619Y-49665345D01*
X107139619Y-49955631D02*
X106123619Y-49955631D01*
X106268761Y-49858869D01*
X106365523Y-49762107D01*
X106413904Y-49665345D01*
X163019619Y-38576612D02*
X162003619Y-38703612D01*
X163019619Y-39640993D02*
X162535809Y-39362803D01*
X163019619Y-39060422D02*
X162003619Y-39187422D01*
X162003619Y-39574470D01*
X162052000Y-39665184D01*
X162100380Y-39707517D01*
X162197142Y-39743803D01*
X162342285Y-39725660D01*
X162439047Y-39665184D01*
X162487428Y-39610755D01*
X162535809Y-39507946D01*
X162535809Y-39120898D01*
X163019619Y-40076422D02*
X162003619Y-40203422D01*
X162003619Y-40590470D01*
X162052000Y-40681184D01*
X162100380Y-40723517D01*
X162197142Y-40759803D01*
X162342285Y-40741660D01*
X162439047Y-40681184D01*
X162487428Y-40626755D01*
X162535809Y-40523946D01*
X162535809Y-40136898D01*
X145239619Y-46702012D02*
X144223619Y-46829012D01*
X145239619Y-47185821D02*
X144223619Y-47312821D01*
X144223619Y-47554726D01*
X144272000Y-47693821D01*
X144368761Y-47778488D01*
X144465523Y-47814774D01*
X144659047Y-47838964D01*
X144804190Y-47820821D01*
X144997714Y-47748250D01*
X145094476Y-47687774D01*
X145191238Y-47578917D01*
X145239619Y-47427726D01*
X145239619Y-47185821D01*
X144707428Y-48268345D02*
X144707428Y-48607012D01*
X145239619Y-48685631D02*
X145239619Y-48201821D01*
X144223619Y-48328821D01*
X144223619Y-48812631D01*
X145239619Y-49121060D02*
X144223619Y-49248060D01*
X145239619Y-49701631D01*
X144223619Y-49828631D01*
X144223619Y-50167298D02*
X144223619Y-50747869D01*
X145239619Y-50330583D02*
X144223619Y-50457583D01*
X124919619Y-46575012D02*
X123903619Y-46702012D01*
X124387428Y-47464012D02*
X124387428Y-47125345D01*
X124919619Y-47058821D02*
X123903619Y-47185821D01*
X123903619Y-47669631D01*
X124919619Y-47929679D02*
X123903619Y-48056679D01*
X123903619Y-48443726D01*
X123952000Y-48534440D01*
X124000380Y-48576774D01*
X124097142Y-48613060D01*
X124242285Y-48594917D01*
X124339047Y-48534440D01*
X124387428Y-48480012D01*
X124435809Y-48377202D01*
X124435809Y-47990155D01*
X123903619Y-48927536D02*
X123903619Y-49508107D01*
X124919619Y-49090821D02*
X123903619Y-49217821D01*
X138889619Y-127705273D02*
X137873619Y-127705273D01*
X137873619Y-128092320D02*
X138889619Y-128334225D01*
X138163904Y-128527749D01*
X138889619Y-128721273D01*
X137873619Y-128963178D01*
X137873619Y-129834035D02*
X137873619Y-129350225D01*
X138357428Y-129301844D01*
X138309047Y-129350225D01*
X138260666Y-129446987D01*
X138260666Y-129688892D01*
X138309047Y-129785654D01*
X138357428Y-129834035D01*
X138454190Y-129882416D01*
X138696095Y-129882416D01*
X138792857Y-129834035D01*
X138841238Y-129785654D01*
X138889619Y-129688892D01*
X138889619Y-129446987D01*
X138841238Y-129350225D01*
X138792857Y-129301844D01*
X112219619Y-46575012D02*
X111203619Y-46702012D01*
X112122857Y-47651488D02*
X112171238Y-47597060D01*
X112219619Y-47445869D01*
X112219619Y-47349107D01*
X112171238Y-47210012D01*
X112074476Y-47125345D01*
X111977714Y-47089060D01*
X111784190Y-47064869D01*
X111639047Y-47083012D01*
X111445523Y-47155583D01*
X111348761Y-47216060D01*
X111252000Y-47324917D01*
X111203619Y-47476107D01*
X111203619Y-47572869D01*
X111252000Y-47711964D01*
X111300380Y-47754298D01*
X111687428Y-48141345D02*
X111687428Y-48480012D01*
X112219619Y-48558631D02*
X112219619Y-48074821D01*
X111203619Y-48201821D01*
X111203619Y-48685631D01*
X112219619Y-49574631D02*
X111735809Y-49296440D01*
X112219619Y-48994060D02*
X111203619Y-49121060D01*
X111203619Y-49508107D01*
X111252000Y-49598821D01*
X111300380Y-49641155D01*
X111397142Y-49677440D01*
X111542285Y-49659298D01*
X111639047Y-49598821D01*
X111687428Y-49544393D01*
X111735809Y-49441583D01*
X111735809Y-49054536D01*
X149049619Y-126374797D02*
X148033619Y-126374797D01*
X148517428Y-126737654D02*
X148517428Y-126991654D01*
X149049619Y-127100511D02*
X149049619Y-126737654D01*
X148033619Y-126737654D01*
X148033619Y-127100511D01*
X149049619Y-127862511D02*
X148565809Y-127608511D01*
X149049619Y-127427082D02*
X148033619Y-127427082D01*
X148033619Y-127717368D01*
X148082000Y-127789940D01*
X148130380Y-127826225D01*
X148227142Y-127862511D01*
X148372285Y-127862511D01*
X148469047Y-127826225D01*
X148517428Y-127789940D01*
X148565809Y-127717368D01*
X148565809Y-127427082D01*
X148759333Y-128152797D02*
X148759333Y-128515654D01*
X149049619Y-128080225D02*
X148033619Y-128334225D01*
X149049619Y-128588225D01*
X149001238Y-128805940D02*
X149049619Y-128914797D01*
X149049619Y-129096225D01*
X149001238Y-129168797D01*
X148952857Y-129205082D01*
X148856095Y-129241368D01*
X148759333Y-129241368D01*
X148662571Y-129205082D01*
X148614190Y-129168797D01*
X148565809Y-129096225D01*
X148517428Y-128951082D01*
X148469047Y-128878511D01*
X148420666Y-128842225D01*
X148323904Y-128805940D01*
X148227142Y-128805940D01*
X148130380Y-128842225D01*
X148082000Y-128878511D01*
X148033619Y-128951082D01*
X148033619Y-129132511D01*
X148082000Y-129241368D01*
X148517428Y-129567940D02*
X148517428Y-129821940D01*
X149049619Y-129930797D02*
X149049619Y-129567940D01*
X148033619Y-129567940D01*
X148033619Y-129930797D01*
X147779619Y-46702012D02*
X146763619Y-46829012D01*
X147247428Y-47591012D02*
X147247428Y-47252345D01*
X147779619Y-47185821D02*
X146763619Y-47312821D01*
X146763619Y-47796631D01*
X147779619Y-48056679D02*
X146763619Y-48183679D01*
X147489333Y-48431631D01*
X146763619Y-48861012D01*
X147779619Y-48734012D01*
X147779619Y-49217821D02*
X146763619Y-49344821D01*
X147779619Y-49798393D02*
X147199047Y-49435536D01*
X146763619Y-49925393D02*
X147344190Y-49272250D01*
X129999619Y-46575012D02*
X128983619Y-46702012D01*
X129999619Y-47639393D02*
X129515809Y-47361202D01*
X129999619Y-47058821D02*
X128983619Y-47185821D01*
X128983619Y-47572869D01*
X129032000Y-47663583D01*
X129080380Y-47705917D01*
X129177142Y-47742202D01*
X129322285Y-47724060D01*
X129419047Y-47663583D01*
X129467428Y-47609155D01*
X129515809Y-47506345D01*
X129515809Y-47119298D01*
X129999619Y-48074821D02*
X128983619Y-48201821D01*
X128983619Y-48443726D01*
X129032000Y-48582821D01*
X129128761Y-48667488D01*
X129225523Y-48703774D01*
X129419047Y-48727964D01*
X129564190Y-48709821D01*
X129757714Y-48637250D01*
X129854476Y-48576774D01*
X129951238Y-48467917D01*
X129999619Y-48316726D01*
X129999619Y-48074821D01*
X129515809Y-49344821D02*
X129999619Y-49284345D01*
X128983619Y-49072679D02*
X129515809Y-49344821D01*
X128983619Y-49750012D01*
X150319619Y-46702012D02*
X149303619Y-46829012D01*
X150319619Y-47185821D02*
X149303619Y-47312821D01*
X149787428Y-47252345D02*
X149787428Y-47832917D01*
X150319619Y-47766393D02*
X149303619Y-47893393D01*
X149787428Y-48316726D02*
X149787428Y-48655393D01*
X150319619Y-48734012D02*
X150319619Y-48250202D01*
X149303619Y-48377202D01*
X149303619Y-48861012D01*
X150319619Y-49750012D02*
X149835809Y-49471821D01*
X150319619Y-49169440D02*
X149303619Y-49296440D01*
X149303619Y-49683488D01*
X149352000Y-49774202D01*
X149400380Y-49816536D01*
X149497142Y-49852821D01*
X149642285Y-49834679D01*
X149739047Y-49774202D01*
X149787428Y-49719774D01*
X149835809Y-49616964D01*
X149835809Y-49229917D01*
D10*
%TO.C,R5*%
X119611078Y-60502050D02*
X119944412Y-60025860D01*
X120182507Y-60502050D02*
X120182507Y-59502050D01*
X119801554Y-59502050D01*
X119706316Y-59549670D01*
X119658697Y-59597289D01*
X119611078Y-59692527D01*
X119611078Y-59835384D01*
X119658697Y-59930622D01*
X119706316Y-59978241D01*
X119801554Y-60025860D01*
X120182507Y-60025860D01*
X118706316Y-59502050D02*
X119182507Y-59502050D01*
X119230126Y-59978241D01*
X119182507Y-59930622D01*
X119087269Y-59883003D01*
X118849173Y-59883003D01*
X118753935Y-59930622D01*
X118706316Y-59978241D01*
X118658697Y-60073479D01*
X118658697Y-60311574D01*
X118706316Y-60406812D01*
X118753935Y-60454431D01*
X118849173Y-60502050D01*
X119087269Y-60502050D01*
X119182507Y-60454431D01*
X119230126Y-60406812D01*
%TO.C,R2*%
X122086666Y-96592380D02*
X122420000Y-96116190D01*
X122658095Y-96592380D02*
X122658095Y-95592380D01*
X122277142Y-95592380D01*
X122181904Y-95640000D01*
X122134285Y-95687619D01*
X122086666Y-95782857D01*
X122086666Y-95925714D01*
X122134285Y-96020952D01*
X122181904Y-96068571D01*
X122277142Y-96116190D01*
X122658095Y-96116190D01*
X121705714Y-95687619D02*
X121658095Y-95640000D01*
X121562857Y-95592380D01*
X121324761Y-95592380D01*
X121229523Y-95640000D01*
X121181904Y-95687619D01*
X121134285Y-95782857D01*
X121134285Y-95878095D01*
X121181904Y-96020952D01*
X121753333Y-96592380D01*
X121134285Y-96592380D01*
%TO.C,C7*%
X120816666Y-108849642D02*
X120864285Y-108897261D01*
X121007142Y-108944880D01*
X121102380Y-108944880D01*
X121245238Y-108897261D01*
X121340476Y-108802023D01*
X121388095Y-108706785D01*
X121435714Y-108516309D01*
X121435714Y-108373452D01*
X121388095Y-108182976D01*
X121340476Y-108087738D01*
X121245238Y-107992500D01*
X121102380Y-107944880D01*
X121007142Y-107944880D01*
X120864285Y-107992500D01*
X120816666Y-108040119D01*
X120483333Y-107944880D02*
X119816666Y-107944880D01*
X120245238Y-108944880D01*
%TO.C,C10*%
X98591607Y-116152142D02*
X98639226Y-116199761D01*
X98782083Y-116247380D01*
X98877321Y-116247380D01*
X99020178Y-116199761D01*
X99115416Y-116104523D01*
X99163035Y-116009285D01*
X99210654Y-115818809D01*
X99210654Y-115675952D01*
X99163035Y-115485476D01*
X99115416Y-115390238D01*
X99020178Y-115295000D01*
X98877321Y-115247380D01*
X98782083Y-115247380D01*
X98639226Y-115295000D01*
X98591607Y-115342619D01*
X97639226Y-116247380D02*
X98210654Y-116247380D01*
X97924940Y-116247380D02*
X97924940Y-115247380D01*
X98020178Y-115390238D01*
X98115416Y-115485476D01*
X98210654Y-115533095D01*
X97020178Y-115247380D02*
X96924940Y-115247380D01*
X96829702Y-115295000D01*
X96782083Y-115342619D01*
X96734464Y-115437857D01*
X96686845Y-115628333D01*
X96686845Y-115866428D01*
X96734464Y-116056904D01*
X96782083Y-116152142D01*
X96829702Y-116199761D01*
X96924940Y-116247380D01*
X97020178Y-116247380D01*
X97115416Y-116199761D01*
X97163035Y-116152142D01*
X97210654Y-116056904D01*
X97258273Y-115866428D01*
X97258273Y-115628333D01*
X97210654Y-115437857D01*
X97163035Y-115342619D01*
X97115416Y-115295000D01*
X97020178Y-115247380D01*
%TO.C,U7*%
X108912380Y-70358095D02*
X109721904Y-70358095D01*
X109817142Y-70405714D01*
X109864761Y-70453333D01*
X109912380Y-70548571D01*
X109912380Y-70739047D01*
X109864761Y-70834285D01*
X109817142Y-70881904D01*
X109721904Y-70929523D01*
X108912380Y-70929523D01*
X108912380Y-71310476D02*
X108912380Y-71977142D01*
X109912380Y-71548571D01*
%TO.C,C5*%
X146449166Y-81637142D02*
X146496785Y-81684761D01*
X146639642Y-81732380D01*
X146734880Y-81732380D01*
X146877738Y-81684761D01*
X146972976Y-81589523D01*
X147020595Y-81494285D01*
X147068214Y-81303809D01*
X147068214Y-81160952D01*
X147020595Y-80970476D01*
X146972976Y-80875238D01*
X146877738Y-80780000D01*
X146734880Y-80732380D01*
X146639642Y-80732380D01*
X146496785Y-80780000D01*
X146449166Y-80827619D01*
X145544404Y-80732380D02*
X146020595Y-80732380D01*
X146068214Y-81208571D01*
X146020595Y-81160952D01*
X145925357Y-81113333D01*
X145687261Y-81113333D01*
X145592023Y-81160952D01*
X145544404Y-81208571D01*
X145496785Y-81303809D01*
X145496785Y-81541904D01*
X145544404Y-81637142D01*
X145592023Y-81684761D01*
X145687261Y-81732380D01*
X145925357Y-81732380D01*
X146020595Y-81684761D01*
X146068214Y-81637142D01*
%TO.C,R8*%
X119148918Y-82084467D02*
X119482252Y-81608277D01*
X119720347Y-82084467D02*
X119720347Y-81084467D01*
X119339394Y-81084467D01*
X119244156Y-81132087D01*
X119196537Y-81179706D01*
X119148918Y-81274944D01*
X119148918Y-81417801D01*
X119196537Y-81513039D01*
X119244156Y-81560658D01*
X119339394Y-81608277D01*
X119720347Y-81608277D01*
X118577490Y-81513039D02*
X118672728Y-81465420D01*
X118720347Y-81417801D01*
X118767966Y-81322563D01*
X118767966Y-81274944D01*
X118720347Y-81179706D01*
X118672728Y-81132087D01*
X118577490Y-81084467D01*
X118387013Y-81084467D01*
X118291775Y-81132087D01*
X118244156Y-81179706D01*
X118196537Y-81274944D01*
X118196537Y-81322563D01*
X118244156Y-81417801D01*
X118291775Y-81465420D01*
X118387013Y-81513039D01*
X118577490Y-81513039D01*
X118672728Y-81560658D01*
X118720347Y-81608277D01*
X118767966Y-81703515D01*
X118767966Y-81893991D01*
X118720347Y-81989229D01*
X118672728Y-82036848D01*
X118577490Y-82084467D01*
X118387013Y-82084467D01*
X118291775Y-82036848D01*
X118244156Y-81989229D01*
X118196537Y-81893991D01*
X118196537Y-81703515D01*
X118244156Y-81608277D01*
X118291775Y-81560658D01*
X118387013Y-81513039D01*
%TO.C,C3*%
X97956666Y-108849642D02*
X98004285Y-108897261D01*
X98147142Y-108944880D01*
X98242380Y-108944880D01*
X98385238Y-108897261D01*
X98480476Y-108802023D01*
X98528095Y-108706785D01*
X98575714Y-108516309D01*
X98575714Y-108373452D01*
X98528095Y-108182976D01*
X98480476Y-108087738D01*
X98385238Y-107992500D01*
X98242380Y-107944880D01*
X98147142Y-107944880D01*
X98004285Y-107992500D01*
X97956666Y-108040119D01*
X97623333Y-107944880D02*
X97004285Y-107944880D01*
X97337619Y-108325833D01*
X97194761Y-108325833D01*
X97099523Y-108373452D01*
X97051904Y-108421071D01*
X97004285Y-108516309D01*
X97004285Y-108754404D01*
X97051904Y-108849642D01*
X97099523Y-108897261D01*
X97194761Y-108944880D01*
X97480476Y-108944880D01*
X97575714Y-108897261D01*
X97623333Y-108849642D01*
%TO.C,U4*%
X123082380Y-113220595D02*
X123891904Y-113220595D01*
X123987142Y-113268214D01*
X124034761Y-113315833D01*
X124082380Y-113411071D01*
X124082380Y-113601547D01*
X124034761Y-113696785D01*
X123987142Y-113744404D01*
X123891904Y-113792023D01*
X123082380Y-113792023D01*
X123415714Y-114696785D02*
X124082380Y-114696785D01*
X123034761Y-114458690D02*
X123749047Y-114220595D01*
X123749047Y-114839642D01*
%TO.C,C14*%
X167171607Y-67442142D02*
X167219226Y-67489761D01*
X167362083Y-67537380D01*
X167457321Y-67537380D01*
X167600178Y-67489761D01*
X167695416Y-67394523D01*
X167743035Y-67299285D01*
X167790654Y-67108809D01*
X167790654Y-66965952D01*
X167743035Y-66775476D01*
X167695416Y-66680238D01*
X167600178Y-66585000D01*
X167457321Y-66537380D01*
X167362083Y-66537380D01*
X167219226Y-66585000D01*
X167171607Y-66632619D01*
X166219226Y-67537380D02*
X166790654Y-67537380D01*
X166504940Y-67537380D02*
X166504940Y-66537380D01*
X166600178Y-66680238D01*
X166695416Y-66775476D01*
X166790654Y-66823095D01*
X165362083Y-66870714D02*
X165362083Y-67537380D01*
X165600178Y-66489761D02*
X165838273Y-67204047D01*
X165219226Y-67204047D01*
%TO.C,R1*%
X115736666Y-96592380D02*
X116070000Y-96116190D01*
X116308095Y-96592380D02*
X116308095Y-95592380D01*
X115927142Y-95592380D01*
X115831904Y-95640000D01*
X115784285Y-95687619D01*
X115736666Y-95782857D01*
X115736666Y-95925714D01*
X115784285Y-96020952D01*
X115831904Y-96068571D01*
X115927142Y-96116190D01*
X116308095Y-96116190D01*
X114784285Y-96592380D02*
X115355714Y-96592380D01*
X115070000Y-96592380D02*
X115070000Y-95592380D01*
X115165238Y-95735238D01*
X115260476Y-95830476D01*
X115355714Y-95878095D01*
%TO.C,Q1*%
X118517619Y-92614761D02*
X118470000Y-92519523D01*
X118374761Y-92424285D01*
X118231904Y-92281428D01*
X118184285Y-92186190D01*
X118184285Y-92090952D01*
X118422380Y-92138571D02*
X118374761Y-92043333D01*
X118279523Y-91948095D01*
X118089047Y-91900476D01*
X117755714Y-91900476D01*
X117565238Y-91948095D01*
X117470000Y-92043333D01*
X117422380Y-92138571D01*
X117422380Y-92329047D01*
X117470000Y-92424285D01*
X117565238Y-92519523D01*
X117755714Y-92567142D01*
X118089047Y-92567142D01*
X118279523Y-92519523D01*
X118374761Y-92424285D01*
X118422380Y-92329047D01*
X118422380Y-92138571D01*
X118422380Y-93519523D02*
X118422380Y-92948095D01*
X118422380Y-93233809D02*
X117422380Y-93233809D01*
X117565238Y-93138571D01*
X117660476Y-93043333D01*
X117708095Y-92948095D01*
%TO.C,U2*%
X147602380Y-70358095D02*
X148411904Y-70358095D01*
X148507142Y-70405714D01*
X148554761Y-70453333D01*
X148602380Y-70548571D01*
X148602380Y-70739047D01*
X148554761Y-70834285D01*
X148507142Y-70881904D01*
X148411904Y-70929523D01*
X147602380Y-70929523D01*
X147697619Y-71358095D02*
X147650000Y-71405714D01*
X147602380Y-71500952D01*
X147602380Y-71739047D01*
X147650000Y-71834285D01*
X147697619Y-71881904D01*
X147792857Y-71929523D01*
X147888095Y-71929523D01*
X148030952Y-71881904D01*
X148602380Y-71310476D01*
X148602380Y-71929523D01*
%TO.C,C8*%
X120816666Y-116469642D02*
X120864285Y-116517261D01*
X121007142Y-116564880D01*
X121102380Y-116564880D01*
X121245238Y-116517261D01*
X121340476Y-116422023D01*
X121388095Y-116326785D01*
X121435714Y-116136309D01*
X121435714Y-115993452D01*
X121388095Y-115802976D01*
X121340476Y-115707738D01*
X121245238Y-115612500D01*
X121102380Y-115564880D01*
X121007142Y-115564880D01*
X120864285Y-115612500D01*
X120816666Y-115660119D01*
X120245238Y-115993452D02*
X120340476Y-115945833D01*
X120388095Y-115898214D01*
X120435714Y-115802976D01*
X120435714Y-115755357D01*
X120388095Y-115660119D01*
X120340476Y-115612500D01*
X120245238Y-115564880D01*
X120054761Y-115564880D01*
X119959523Y-115612500D01*
X119911904Y-115660119D01*
X119864285Y-115755357D01*
X119864285Y-115802976D01*
X119911904Y-115898214D01*
X119959523Y-115945833D01*
X120054761Y-115993452D01*
X120245238Y-115993452D01*
X120340476Y-116041071D01*
X120388095Y-116088690D01*
X120435714Y-116183928D01*
X120435714Y-116374404D01*
X120388095Y-116469642D01*
X120340476Y-116517261D01*
X120245238Y-116564880D01*
X120054761Y-116564880D01*
X119959523Y-116517261D01*
X119911904Y-116469642D01*
X119864285Y-116374404D01*
X119864285Y-116183928D01*
X119911904Y-116088690D01*
X119959523Y-116041071D01*
X120054761Y-115993452D01*
%TO.C,R4*%
X128436666Y-90242380D02*
X128770000Y-89766190D01*
X129008095Y-90242380D02*
X129008095Y-89242380D01*
X128627142Y-89242380D01*
X128531904Y-89290000D01*
X128484285Y-89337619D01*
X128436666Y-89432857D01*
X128436666Y-89575714D01*
X128484285Y-89670952D01*
X128531904Y-89718571D01*
X128627142Y-89766190D01*
X129008095Y-89766190D01*
X127579523Y-89575714D02*
X127579523Y-90242380D01*
X127817619Y-89194761D02*
X128055714Y-89909047D01*
X127436666Y-89909047D01*
%TO.C,R7*%
X103671666Y-99892380D02*
X104005000Y-99416190D01*
X104243095Y-99892380D02*
X104243095Y-98892380D01*
X103862142Y-98892380D01*
X103766904Y-98940000D01*
X103719285Y-98987619D01*
X103671666Y-99082857D01*
X103671666Y-99225714D01*
X103719285Y-99320952D01*
X103766904Y-99368571D01*
X103862142Y-99416190D01*
X104243095Y-99416190D01*
X103338333Y-98892380D02*
X102671666Y-98892380D01*
X103100238Y-99892380D01*
%TO.C,C11*%
X158355357Y-98557142D02*
X158402976Y-98604761D01*
X158545833Y-98652380D01*
X158641071Y-98652380D01*
X158783928Y-98604761D01*
X158879166Y-98509523D01*
X158926785Y-98414285D01*
X158974404Y-98223809D01*
X158974404Y-98080952D01*
X158926785Y-97890476D01*
X158879166Y-97795238D01*
X158783928Y-97700000D01*
X158641071Y-97652380D01*
X158545833Y-97652380D01*
X158402976Y-97700000D01*
X158355357Y-97747619D01*
X157402976Y-98652380D02*
X157974404Y-98652380D01*
X157688690Y-98652380D02*
X157688690Y-97652380D01*
X157783928Y-97795238D01*
X157879166Y-97890476D01*
X157974404Y-97938095D01*
X156450595Y-98652380D02*
X157022023Y-98652380D01*
X156736309Y-98652380D02*
X156736309Y-97652380D01*
X156831547Y-97795238D01*
X156926785Y-97890476D01*
X157022023Y-97938095D01*
%TO.C,U5*%
X170462380Y-86868095D02*
X171271904Y-86868095D01*
X171367142Y-86915714D01*
X171414761Y-86963333D01*
X171462380Y-87058571D01*
X171462380Y-87249047D01*
X171414761Y-87344285D01*
X171367142Y-87391904D01*
X171271904Y-87439523D01*
X170462380Y-87439523D01*
X170462380Y-88391904D02*
X170462380Y-87915714D01*
X170938571Y-87868095D01*
X170890952Y-87915714D01*
X170843333Y-88010952D01*
X170843333Y-88249047D01*
X170890952Y-88344285D01*
X170938571Y-88391904D01*
X171033809Y-88439523D01*
X171271904Y-88439523D01*
X171367142Y-88391904D01*
X171414761Y-88344285D01*
X171462380Y-88249047D01*
X171462380Y-88010952D01*
X171414761Y-87915714D01*
X171367142Y-87868095D01*
%TO.C,Q2*%
X124867619Y-92614761D02*
X124820000Y-92519523D01*
X124724761Y-92424285D01*
X124581904Y-92281428D01*
X124534285Y-92186190D01*
X124534285Y-92090952D01*
X124772380Y-92138571D02*
X124724761Y-92043333D01*
X124629523Y-91948095D01*
X124439047Y-91900476D01*
X124105714Y-91900476D01*
X123915238Y-91948095D01*
X123820000Y-92043333D01*
X123772380Y-92138571D01*
X123772380Y-92329047D01*
X123820000Y-92424285D01*
X123915238Y-92519523D01*
X124105714Y-92567142D01*
X124439047Y-92567142D01*
X124629523Y-92519523D01*
X124724761Y-92424285D01*
X124772380Y-92329047D01*
X124772380Y-92138571D01*
X123867619Y-92948095D02*
X123820000Y-92995714D01*
X123772380Y-93090952D01*
X123772380Y-93329047D01*
X123820000Y-93424285D01*
X123867619Y-93471904D01*
X123962857Y-93519523D01*
X124058095Y-93519523D01*
X124200952Y-93471904D01*
X124772380Y-92900476D01*
X124772380Y-93519523D01*
%TO.C,U1*%
X167287380Y-72898095D02*
X168096904Y-72898095D01*
X168192142Y-72945714D01*
X168239761Y-72993333D01*
X168287380Y-73088571D01*
X168287380Y-73279047D01*
X168239761Y-73374285D01*
X168192142Y-73421904D01*
X168096904Y-73469523D01*
X167287380Y-73469523D01*
X168287380Y-74469523D02*
X168287380Y-73898095D01*
X168287380Y-74183809D02*
X167287380Y-74183809D01*
X167430238Y-74088571D01*
X167525476Y-73993333D01*
X167573095Y-73898095D01*
%TO.C,U6*%
X100222380Y-113220595D02*
X101031904Y-113220595D01*
X101127142Y-113268214D01*
X101174761Y-113315833D01*
X101222380Y-113411071D01*
X101222380Y-113601547D01*
X101174761Y-113696785D01*
X101127142Y-113744404D01*
X101031904Y-113792023D01*
X100222380Y-113792023D01*
X100222380Y-114696785D02*
X100222380Y-114506309D01*
X100270000Y-114411071D01*
X100317619Y-114363452D01*
X100460476Y-114268214D01*
X100650952Y-114220595D01*
X101031904Y-114220595D01*
X101127142Y-114268214D01*
X101174761Y-114315833D01*
X101222380Y-114411071D01*
X101222380Y-114601547D01*
X101174761Y-114696785D01*
X101127142Y-114744404D01*
X101031904Y-114792023D01*
X100793809Y-114792023D01*
X100698571Y-114744404D01*
X100650952Y-114696785D01*
X100603333Y-114601547D01*
X100603333Y-114411071D01*
X100650952Y-114315833D01*
X100698571Y-114268214D01*
X100793809Y-114220595D01*
%TO.C,C9*%
X166536666Y-82047142D02*
X166584285Y-82094761D01*
X166727142Y-82142380D01*
X166822380Y-82142380D01*
X166965238Y-82094761D01*
X167060476Y-81999523D01*
X167108095Y-81904285D01*
X167155714Y-81713809D01*
X167155714Y-81570952D01*
X167108095Y-81380476D01*
X167060476Y-81285238D01*
X166965238Y-81190000D01*
X166822380Y-81142380D01*
X166727142Y-81142380D01*
X166584285Y-81190000D01*
X166536666Y-81237619D01*
X166060476Y-82142380D02*
X165870000Y-82142380D01*
X165774761Y-82094761D01*
X165727142Y-82047142D01*
X165631904Y-81904285D01*
X165584285Y-81713809D01*
X165584285Y-81332857D01*
X165631904Y-81237619D01*
X165679523Y-81190000D01*
X165774761Y-81142380D01*
X165965238Y-81142380D01*
X166060476Y-81190000D01*
X166108095Y-81237619D01*
X166155714Y-81332857D01*
X166155714Y-81570952D01*
X166108095Y-81666190D01*
X166060476Y-81713809D01*
X165965238Y-81761428D01*
X165774761Y-81761428D01*
X165679523Y-81713809D01*
X165631904Y-81666190D01*
X165584285Y-81570952D01*
%TO.C,R3*%
X110656666Y-93542380D02*
X110990000Y-93066190D01*
X111228095Y-93542380D02*
X111228095Y-92542380D01*
X110847142Y-92542380D01*
X110751904Y-92590000D01*
X110704285Y-92637619D01*
X110656666Y-92732857D01*
X110656666Y-92875714D01*
X110704285Y-92970952D01*
X110751904Y-93018571D01*
X110847142Y-93066190D01*
X111228095Y-93066190D01*
X110323333Y-92542380D02*
X109704285Y-92542380D01*
X110037619Y-92923333D01*
X109894761Y-92923333D01*
X109799523Y-92970952D01*
X109751904Y-93018571D01*
X109704285Y-93113809D01*
X109704285Y-93351904D01*
X109751904Y-93447142D01*
X109799523Y-93494761D01*
X109894761Y-93542380D01*
X110180476Y-93542380D01*
X110275714Y-93494761D01*
X110323333Y-93447142D01*
%TO.C,R6*%
X114466666Y-64332380D02*
X114800000Y-63856190D01*
X115038095Y-64332380D02*
X115038095Y-63332380D01*
X114657142Y-63332380D01*
X114561904Y-63380000D01*
X114514285Y-63427619D01*
X114466666Y-63522857D01*
X114466666Y-63665714D01*
X114514285Y-63760952D01*
X114561904Y-63808571D01*
X114657142Y-63856190D01*
X115038095Y-63856190D01*
X113609523Y-63332380D02*
X113800000Y-63332380D01*
X113895238Y-63380000D01*
X113942857Y-63427619D01*
X114038095Y-63570476D01*
X114085714Y-63760952D01*
X114085714Y-64141904D01*
X114038095Y-64237142D01*
X113990476Y-64284761D01*
X113895238Y-64332380D01*
X113704761Y-64332380D01*
X113609523Y-64284761D01*
X113561904Y-64237142D01*
X113514285Y-64141904D01*
X113514285Y-63903809D01*
X113561904Y-63808571D01*
X113609523Y-63760952D01*
X113704761Y-63713333D01*
X113895238Y-63713333D01*
X113990476Y-63760952D01*
X114038095Y-63808571D01*
X114085714Y-63903809D01*
%TO.C,C13*%
X174122142Y-92067142D02*
X174169761Y-92019523D01*
X174217380Y-91876666D01*
X174217380Y-91781428D01*
X174169761Y-91638571D01*
X174074523Y-91543333D01*
X173979285Y-91495714D01*
X173788809Y-91448095D01*
X173645952Y-91448095D01*
X173455476Y-91495714D01*
X173360238Y-91543333D01*
X173265000Y-91638571D01*
X173217380Y-91781428D01*
X173217380Y-91876666D01*
X173265000Y-92019523D01*
X173312619Y-92067142D01*
X174217380Y-93019523D02*
X174217380Y-92448095D01*
X174217380Y-92733809D02*
X173217380Y-92733809D01*
X173360238Y-92638571D01*
X173455476Y-92543333D01*
X173503095Y-92448095D01*
X173217380Y-93352857D02*
X173217380Y-93971904D01*
X173598333Y-93638571D01*
X173598333Y-93781428D01*
X173645952Y-93876666D01*
X173693571Y-93924285D01*
X173788809Y-93971904D01*
X174026904Y-93971904D01*
X174122142Y-93924285D01*
X174169761Y-93876666D01*
X174217380Y-93781428D01*
X174217380Y-93495714D01*
X174169761Y-93400476D01*
X174122142Y-93352857D01*
%TO.C,C4*%
X146216666Y-62177142D02*
X146264285Y-62224761D01*
X146407142Y-62272380D01*
X146502380Y-62272380D01*
X146645238Y-62224761D01*
X146740476Y-62129523D01*
X146788095Y-62034285D01*
X146835714Y-61843809D01*
X146835714Y-61700952D01*
X146788095Y-61510476D01*
X146740476Y-61415238D01*
X146645238Y-61320000D01*
X146502380Y-61272380D01*
X146407142Y-61272380D01*
X146264285Y-61320000D01*
X146216666Y-61367619D01*
X145359523Y-61605714D02*
X145359523Y-62272380D01*
X145597619Y-61224761D02*
X145835714Y-61939047D01*
X145216666Y-61939047D01*
%TO.C,U3*%
X154832380Y-103378095D02*
X155641904Y-103378095D01*
X155737142Y-103425714D01*
X155784761Y-103473333D01*
X155832380Y-103568571D01*
X155832380Y-103759047D01*
X155784761Y-103854285D01*
X155737142Y-103901904D01*
X155641904Y-103949523D01*
X154832380Y-103949523D01*
X154832380Y-104330476D02*
X154832380Y-104949523D01*
X155213333Y-104616190D01*
X155213333Y-104759047D01*
X155260952Y-104854285D01*
X155308571Y-104901904D01*
X155403809Y-104949523D01*
X155641904Y-104949523D01*
X155737142Y-104901904D01*
X155784761Y-104854285D01*
X155832380Y-104759047D01*
X155832380Y-104473333D01*
X155784761Y-104378095D01*
X155737142Y-104330476D01*
%TO.C,C6*%
X153201666Y-106627142D02*
X153249285Y-106674761D01*
X153392142Y-106722380D01*
X153487380Y-106722380D01*
X153630238Y-106674761D01*
X153725476Y-106579523D01*
X153773095Y-106484285D01*
X153820714Y-106293809D01*
X153820714Y-106150952D01*
X153773095Y-105960476D01*
X153725476Y-105865238D01*
X153630238Y-105770000D01*
X153487380Y-105722380D01*
X153392142Y-105722380D01*
X153249285Y-105770000D01*
X153201666Y-105817619D01*
X152344523Y-105722380D02*
X152535000Y-105722380D01*
X152630238Y-105770000D01*
X152677857Y-105817619D01*
X152773095Y-105960476D01*
X152820714Y-106150952D01*
X152820714Y-106531904D01*
X152773095Y-106627142D01*
X152725476Y-106674761D01*
X152630238Y-106722380D01*
X152439761Y-106722380D01*
X152344523Y-106674761D01*
X152296904Y-106627142D01*
X152249285Y-106531904D01*
X152249285Y-106293809D01*
X152296904Y-106198571D01*
X152344523Y-106150952D01*
X152439761Y-106103333D01*
X152630238Y-106103333D01*
X152725476Y-106150952D01*
X152773095Y-106198571D01*
X152820714Y-106293809D01*
%TO.C,C2*%
X109167142Y-79843333D02*
X109214761Y-79795714D01*
X109262380Y-79652857D01*
X109262380Y-79557619D01*
X109214761Y-79414761D01*
X109119523Y-79319523D01*
X109024285Y-79271904D01*
X108833809Y-79224285D01*
X108690952Y-79224285D01*
X108500476Y-79271904D01*
X108405238Y-79319523D01*
X108310000Y-79414761D01*
X108262380Y-79557619D01*
X108262380Y-79652857D01*
X108310000Y-79795714D01*
X108357619Y-79843333D01*
X108357619Y-80224285D02*
X108310000Y-80271904D01*
X108262380Y-80367142D01*
X108262380Y-80605238D01*
X108310000Y-80700476D01*
X108357619Y-80748095D01*
X108452857Y-80795714D01*
X108548095Y-80795714D01*
X108690952Y-80748095D01*
X109262380Y-80176666D01*
X109262380Y-80795714D01*
%TO.C,C12*%
X172217142Y-79367142D02*
X172264761Y-79319523D01*
X172312380Y-79176666D01*
X172312380Y-79081428D01*
X172264761Y-78938571D01*
X172169523Y-78843333D01*
X172074285Y-78795714D01*
X171883809Y-78748095D01*
X171740952Y-78748095D01*
X171550476Y-78795714D01*
X171455238Y-78843333D01*
X171360000Y-78938571D01*
X171312380Y-79081428D01*
X171312380Y-79176666D01*
X171360000Y-79319523D01*
X171407619Y-79367142D01*
X172312380Y-80319523D02*
X172312380Y-79748095D01*
X172312380Y-80033809D02*
X171312380Y-80033809D01*
X171455238Y-79938571D01*
X171550476Y-79843333D01*
X171598095Y-79748095D01*
X171407619Y-80700476D02*
X171360000Y-80748095D01*
X171312380Y-80843333D01*
X171312380Y-81081428D01*
X171360000Y-81176666D01*
X171407619Y-81224285D01*
X171502857Y-81271904D01*
X171598095Y-81271904D01*
X171740952Y-81224285D01*
X172312380Y-80652857D01*
X172312380Y-81271904D01*
D12*
%TO.C,R5*%
X119671476Y-62434670D02*
X119217348Y-62434670D01*
X119671476Y-60964670D02*
X119217348Y-60964670D01*
%TO.C,R2*%
X122147064Y-98525000D02*
X121692936Y-98525000D01*
X122147064Y-97055000D02*
X121692936Y-97055000D01*
%TO.C,C7*%
X120911252Y-110907500D02*
X120388748Y-110907500D01*
X120911252Y-109437500D02*
X120388748Y-109437500D01*
%TO.C,C10*%
X98210002Y-116740000D02*
X97687498Y-116740000D01*
X98210002Y-118210000D02*
X97687498Y-118210000D01*
%TO.C,U7*%
X125920000Y-71120000D02*
X125920000Y-67260000D01*
X110300000Y-71120000D02*
X110300000Y-67260000D01*
X125920000Y-67260000D02*
X125655000Y-67260000D01*
X110300000Y-71120000D02*
X110300000Y-74980000D01*
X110300000Y-74980000D02*
X110565000Y-74980000D01*
X125920000Y-74980000D02*
X125655000Y-74980000D01*
X110300000Y-67260000D02*
X110565000Y-67260000D01*
X110565000Y-67260000D02*
X110565000Y-65445000D01*
X125920000Y-71120000D02*
X125920000Y-74980000D01*
G36*
X111125000Y-65024000D02*
G01*
X110617000Y-64516000D01*
X111633000Y-64516000D01*
X111125000Y-65024000D01*
G37*
X111125000Y-65024000D02*
X110617000Y-64516000D01*
X111633000Y-64516000D01*
X111125000Y-65024000D01*
%TO.C,C5*%
X146543752Y-79475000D02*
X146021248Y-79475000D01*
X146543752Y-78005000D02*
X146021248Y-78005000D01*
%TO.C,R8*%
X118755188Y-80717087D02*
X119209316Y-80717087D01*
X118755188Y-79247087D02*
X119209316Y-79247087D01*
%TO.C,C3*%
X98051252Y-110907500D02*
X97528748Y-110907500D01*
X98051252Y-109437500D02*
X97528748Y-109437500D01*
%TO.C,U4*%
X124470000Y-113982500D02*
X124470000Y-116632500D01*
X124470000Y-113982500D02*
X124470000Y-109532500D01*
X139690000Y-113982500D02*
X139690000Y-111332500D01*
X139690000Y-113982500D02*
X139690000Y-116632500D01*
G36*
X125095000Y-109156500D02*
G01*
X124587000Y-108648500D01*
X125603000Y-108648500D01*
X125095000Y-109156500D01*
G37*
X125095000Y-109156500D02*
X124587000Y-108648500D01*
X125603000Y-108648500D01*
X125095000Y-109156500D01*
%TO.C,C14*%
X166267498Y-64670000D02*
X166790002Y-64670000D01*
X166267498Y-66140000D02*
X166790002Y-66140000D01*
%TO.C,R1*%
X115797064Y-97055000D02*
X115342936Y-97055000D01*
X115797064Y-98525000D02*
X115342936Y-98525000D01*
%TO.C,Q1*%
X114010000Y-92710000D02*
X114010000Y-92060000D01*
X114010000Y-92710000D02*
X114010000Y-93360000D01*
X117130000Y-92710000D02*
X117130000Y-92060000D01*
X117130000Y-92710000D02*
X117130000Y-94385000D01*
%TO.C,U2*%
X147310000Y-71120000D02*
X147310000Y-75570000D01*
X132090000Y-71120000D02*
X132090000Y-68470000D01*
X147310000Y-71120000D02*
X147310000Y-68470000D01*
X132090000Y-71120000D02*
X132090000Y-73770000D01*
G36*
X147193000Y-76454000D02*
G01*
X146177000Y-76454000D01*
X146685000Y-75946000D01*
X147193000Y-76454000D01*
G37*
X147193000Y-76454000D02*
X146177000Y-76454000D01*
X146685000Y-75946000D01*
X147193000Y-76454000D01*
%TO.C,C8*%
X120911252Y-118527500D02*
X120388748Y-118527500D01*
X120911252Y-117057500D02*
X120388748Y-117057500D01*
%TO.C,R4*%
X128497064Y-90705000D02*
X128042936Y-90705000D01*
X128497064Y-92175000D02*
X128042936Y-92175000D01*
%TO.C,R7*%
X103277936Y-98525000D02*
X103732064Y-98525000D01*
X103277936Y-97055000D02*
X103732064Y-97055000D01*
%TO.C,C11*%
X157451248Y-95785000D02*
X157973752Y-95785000D01*
X157451248Y-97255000D02*
X157973752Y-97255000D01*
%TO.C,U5*%
X154950000Y-87630000D02*
X154950000Y-84980000D01*
X154950000Y-87630000D02*
X154950000Y-90280000D01*
X170170000Y-87630000D02*
X170170000Y-84980000D01*
X170170000Y-87630000D02*
X170170000Y-92080000D01*
G36*
X170053000Y-92964000D02*
G01*
X169037000Y-92964000D01*
X169545000Y-92456000D01*
X170053000Y-92964000D01*
G37*
X170053000Y-92964000D02*
X169037000Y-92964000D01*
X169545000Y-92456000D01*
X170053000Y-92964000D01*
%TO.C,Q2*%
X120360000Y-92710000D02*
X120360000Y-92060000D01*
X123480000Y-92710000D02*
X123480000Y-92060000D01*
X123480000Y-92710000D02*
X123480000Y-94385000D01*
X120360000Y-92710000D02*
X120360000Y-93360000D01*
%TO.C,U1*%
X166995000Y-73660000D02*
X166995000Y-78110000D01*
X151775000Y-73660000D02*
X151775000Y-71010000D01*
X166995000Y-73660000D02*
X166995000Y-71010000D01*
X151775000Y-73660000D02*
X151775000Y-76310000D01*
G36*
X166878000Y-78994000D02*
G01*
X165862000Y-78994000D01*
X166370000Y-78486000D01*
X166878000Y-78994000D01*
G37*
X166878000Y-78994000D02*
X165862000Y-78994000D01*
X166370000Y-78486000D01*
X166878000Y-78994000D01*
%TO.C,U6*%
X116830000Y-113982500D02*
X116830000Y-116632500D01*
X116830000Y-113982500D02*
X116830000Y-111332500D01*
X101610000Y-113982500D02*
X101610000Y-116632500D01*
X101610000Y-113982500D02*
X101610000Y-109532500D01*
G36*
X102235000Y-109156500D02*
G01*
X101727000Y-108648500D01*
X102743000Y-108648500D01*
X102235000Y-109156500D01*
G37*
X102235000Y-109156500D02*
X101727000Y-108648500D01*
X102743000Y-108648500D01*
X102235000Y-109156500D01*
%TO.C,C9*%
X166108748Y-80745000D02*
X166631252Y-80745000D01*
X166108748Y-79275000D02*
X166631252Y-79275000D01*
%TO.C,R3*%
X110262936Y-92175000D02*
X110717064Y-92175000D01*
X110262936Y-90705000D02*
X110717064Y-90705000D01*
%TO.C,R6*%
X114072936Y-62965000D02*
X114527064Y-62965000D01*
X114072936Y-61495000D02*
X114527064Y-61495000D01*
%TO.C,C13*%
X172820000Y-92971252D02*
X172820000Y-92448748D01*
X171350000Y-92971252D02*
X171350000Y-92448748D01*
%TO.C,C4*%
X146311252Y-62765000D02*
X145788748Y-62765000D01*
X146311252Y-64235000D02*
X145788748Y-64235000D01*
%TO.C,U3*%
X156220000Y-104140000D02*
X156220000Y-99690000D01*
X171440000Y-104140000D02*
X171440000Y-106790000D01*
X171440000Y-104140000D02*
X171440000Y-101490000D01*
X156220000Y-104140000D02*
X156220000Y-106790000D01*
G36*
X156845000Y-99314000D02*
G01*
X156337000Y-98806000D01*
X157353000Y-98806000D01*
X156845000Y-99314000D01*
G37*
X156845000Y-99314000D02*
X156337000Y-98806000D01*
X157353000Y-98806000D01*
X156845000Y-99314000D01*
%TO.C,C6*%
X153296252Y-107215000D02*
X152773748Y-107215000D01*
X153296252Y-108685000D02*
X152773748Y-108685000D01*
%TO.C,C2*%
X109755000Y-79748748D02*
X109755000Y-80271252D01*
X111225000Y-79748748D02*
X111225000Y-80271252D01*
%TO.C,C12*%
X170915000Y-80271252D02*
X170915000Y-79748748D01*
X169445000Y-80271252D02*
X169445000Y-79748748D01*
%TD*%
M02*
