M48
; DRILL file {KiCad (6.0.4)} date Sat May 21 22:21:18 2022
; FORMAT={-:-/ absolute / inch / decimal}
; #@! TF.CreationDate,2022-05-21T22:21:18-04:00
; #@! TF.GenerationSoftware,Kicad,Pcbnew,(6.0.4)
; #@! TF.FileFunction,Plated,1,4,PTH
FMAT,2
INCH
; #@! TA.AperFunction,Plated,PTH,ViaDrill
T1C0.0157
; #@! TA.AperFunction,Plated,PTH,ComponentDrill
T2C0.0315
; #@! TA.AperFunction,Plated,PTH,ComponentDrill
T3C0.0354
; #@! TA.AperFunction,Plated,PTH,ComponentDrill
T4C0.0394
; #@! TA.AperFunction,Plated,PTH,ComponentDrill
T5C0.0402
; #@! TA.AperFunction,Plated,PTH,ComponentDrill
T6C0.0630
%
G90
G05
T1
X3.75Y-3.75
X3.8Y-4.3875
X3.8Y-4.5875
X3.95Y-3.85
X3.95Y-4.625
X3.975Y-4.55
X4.0Y-3.325
X4.075Y-3.95
X4.075Y-4.5
X4.1Y-4.6904
X4.125Y-4.225
X4.25Y-3.95
X4.275Y-3.75
X4.325Y-3.8
X4.35Y-3.05
X4.35Y-3.25
X4.35Y-3.65
X4.375Y-2.875
X4.375Y-3.775
X4.3994Y-3.5456
X4.425Y-3.225
X4.425Y-4.175
X4.425Y-4.225
X4.4904Y-4.4835
X4.5Y-2.75
X4.5206Y-4.4547
X4.525Y-3.15
X4.55Y-2.35
X4.55Y-2.7
X4.55Y-4.425
X4.5881Y-3.7762
X4.6Y-3.2
X4.6044Y-2.4308
X4.6137Y-4.6238
X4.625Y-2.375
X4.625Y-2.85
X4.625Y-4.3
X4.65Y-4.35
X4.6673Y-3.0538
X4.6701Y-3.0984
X4.675Y-4.15
X4.675Y-4.225
X4.7Y-2.675
X4.725Y-2.9
X4.725Y-3.0791
X4.7306Y-2.5053
X4.75Y-3.6
X4.75Y-3.9
X4.775Y-2.85
X4.7898Y-3.1038
X4.8Y-2.7
X4.85Y-4.6375
X4.875Y-2.525
X4.8929Y-3.1959
X4.9Y-3.975
X4.95Y-2.575
X4.95Y-3.85
X4.953Y-3.1621
X4.964Y-2.3616
X5.025Y-3.675
X5.025Y-4.275
X5.025Y-4.7125
X5.0366Y-4.4841
X5.05Y-2.2
X5.0581Y-2.4092
X5.075Y-2.825
X5.1Y-3.775
X5.1Y-3.85
X5.125Y-4.25
X5.1299Y-2.4346
X5.1338Y-3.8916
X5.15Y-2.65
X5.15Y-3.6
X5.1992Y-3.9849
X5.2Y-3.15
X5.2Y-3.925
X5.225Y-2.875
X5.225Y-4.25
X5.25Y-4.2
X5.275Y-3.95
X5.275Y-4.125
X5.3Y-4.2
X5.375Y-2.725
X5.3761Y-3.136
X5.425Y-3.1343
X5.425Y-4.4125
X5.45Y-3.7
X5.525Y-4.625
X5.5376Y-3.3712
X5.5686Y-4.5589
X5.5924Y-3.87
X5.6185Y-3.8367
X5.625Y-3.125
X5.6429Y-3.06
X5.65Y-3.625
X5.661Y-3.2832
X5.675Y-2.75
X5.675Y-3.175
X5.7Y-3.575
X5.7Y-3.85
X5.716Y-3.1522
X5.725Y-2.575
X5.775Y-3.9
X5.8Y-2.575
X5.8Y-3.175
X5.8124Y-2.9791
X5.825Y-3.85
X5.85Y-2.225
X5.875Y-2.85
X5.9Y-3.75
X5.9113Y-2.9143
X5.95Y-2.75
X5.975Y-4.2
X6.025Y-3.1
X6.025Y-3.3
X6.025Y-3.75
X6.125Y-3.375
X6.125Y-3.65
X6.125Y-4.25
X6.175Y-3.2165
X6.225Y-3.675
X6.225Y-3.9
X6.275Y-2.875
X6.35Y-4.125
X6.375Y-2.95
X6.375Y-3.825
X6.4113Y-3.1398
X6.45Y-2.85
X6.45Y-2.95
X6.45Y-3.1
X6.45Y-3.825
X6.5Y-2.65
X6.525Y-3.725
X6.575Y-3.25
X6.65Y-2.575
X6.6625Y-3.2375
X6.675Y-3.05
X6.725Y-3.875
X6.725Y-4.175
X6.75Y-2.95
X6.775Y-3.55
T2
X3.675Y-4.925
X3.7Y-2.3
X3.775Y-4.925
X3.8Y-2.3
X3.85Y-2.05
X3.875Y-4.925
X3.9Y-2.3
X3.95Y-2.05
X3.975Y-4.925
X4.0Y-2.3
X4.05Y-2.05
X4.0594Y-3.5465
X4.0594Y-3.6252
X4.0594Y-3.7039
X4.075Y-4.925
X4.1Y-2.3
X4.1381Y-3.5465
X4.1381Y-3.6252
X4.1381Y-3.7039
X4.15Y-2.05
X4.175Y-4.925
X4.2Y-2.3
X4.225Y-2.45
X4.25Y-2.05
X4.275Y-4.925
X4.3Y-2.3
X4.325Y-2.45
X4.35Y-2.05
X4.375Y-4.925
X4.4Y-2.3
X4.45Y-2.05
X4.475Y-4.925
X4.5Y-2.3
X4.55Y-2.05
X4.575Y-4.925
X4.6Y-2.3
X4.65Y-2.05
X4.7498Y-2.3
X4.75Y-2.05
X4.8Y-4.925
X4.8498Y-2.3
X4.9Y-4.925
X4.9498Y-2.3
X5.0Y-4.925
X5.0498Y-2.3
X5.1Y-4.925
X5.1498Y-2.3
X5.2Y-4.925
X5.2498Y-2.3
X5.3Y-4.925
X5.3498Y-2.3
X5.4Y-4.925
X5.4498Y-2.3
X5.5Y-4.925
X5.5498Y-2.3
X5.6Y-4.925
X5.6498Y-2.3
X5.7Y-4.925
X5.7998Y-2.3
X5.8998Y-2.3
X5.9Y-4.525
X5.9Y-4.925
X5.9998Y-2.3
X6.0Y-4.525
X6.0Y-4.925
X6.0998Y-2.3
X6.1Y-4.525
X6.1Y-4.925
X6.1998Y-2.3
X6.2Y-4.525
X6.2Y-4.925
X6.2998Y-2.3
X6.3Y-4.525
X6.3Y-4.925
X6.3998Y-2.3
X6.4Y-4.525
X6.4Y-4.925
X6.4998Y-2.3
X6.5Y-4.525
X6.5Y-4.925
X6.5998Y-2.3
X6.6Y-4.525
X6.6Y-4.925
X6.6998Y-2.3
X6.7Y-4.525
X6.7Y-4.925
X6.8Y-4.525
X6.8Y-4.925
T3
X4.1Y-2.675
X4.1Y-2.775
X4.1Y-2.875
X4.1Y-2.975
X4.2Y-2.725
X4.2Y-2.825
X4.2Y-2.925
X4.2Y-3.025
T4
X3.55Y-3.45
X3.5504Y-4.049
X3.65Y-3.45
X3.6504Y-4.049
X3.75Y-3.45
X3.7504Y-4.049
X3.85Y-3.45
X3.8504Y-4.049
X3.9498Y-5.175
X3.9498Y-5.275
X3.95Y-3.45
X3.9504Y-4.049
X4.0002Y-1.6704
X4.0002Y-1.7704
X4.0498Y-5.175
X4.0498Y-5.275
X4.05Y-3.45
X4.0504Y-4.049
X4.1002Y-1.6704
X4.1002Y-1.7704
X4.1498Y-5.175
X4.1498Y-5.275
X4.15Y-3.45
X4.1504Y-4.049
X4.2002Y-1.6704
X4.2002Y-1.7704
X4.2498Y-5.175
X4.2498Y-5.275
X4.25Y-3.45
X4.2504Y-4.049
X4.3002Y-1.6704
X4.3002Y-1.7704
X4.3498Y-5.175
X4.3498Y-5.275
X4.35Y-3.45
X4.35Y-4.7853
X4.3504Y-4.049
X4.4002Y-1.6704
X4.4002Y-1.7704
X4.4498Y-5.175
X4.4498Y-5.275
X4.45Y-3.45
X4.45Y-4.7853
X4.4504Y-4.049
X4.5002Y-1.6704
X4.5002Y-1.7704
X4.5498Y-5.175
X4.5498Y-5.275
X4.55Y-3.45
X4.55Y-4.7853
X4.5504Y-4.049
X4.6002Y-1.6704
X4.6002Y-1.7704
X4.6498Y-5.175
X4.6498Y-5.275
X4.65Y-3.45
X4.6504Y-4.049
X4.7002Y-1.6704
X4.7002Y-1.7704
X4.7498Y-5.175
X4.7498Y-5.275
X4.75Y-3.45
X4.7504Y-4.049
X4.8002Y-1.6704
X4.8002Y-1.7704
X4.8498Y-5.175
X4.8498Y-5.275
X4.85Y-3.45
X4.8504Y-4.049
X4.9002Y-1.6704
X4.9002Y-1.7704
X4.9498Y-5.175
X4.9498Y-5.275
X4.95Y-3.45
X4.9504Y-4.049
X5.0002Y-1.6704
X5.0002Y-1.7704
X5.0498Y-5.175
X5.0498Y-5.275
X5.05Y-3.45
X5.0504Y-4.049
X5.1002Y-1.6704
X5.1002Y-1.7704
X5.1498Y-5.175
X5.1498Y-5.275
X5.15Y-3.45
X5.1504Y-4.049
X5.2002Y-1.6704
X5.2002Y-1.7704
X5.2498Y-5.175
X5.2498Y-5.275
X5.25Y-3.45
X5.2504Y-4.049
X5.3002Y-1.6704
X5.3002Y-1.7704
X5.3498Y-5.175
X5.3498Y-5.275
X5.35Y-3.45
X5.3504Y-4.049
X5.351Y-3.5512
X5.351Y-3.6512
X5.351Y-3.7512
X5.351Y-3.8512
X5.351Y-3.9512
X5.4002Y-1.6704
X5.4002Y-1.7704
X5.4498Y-5.175
X5.4498Y-5.275
X5.45Y-3.45
X5.4504Y-4.049
X5.5002Y-1.6704
X5.5002Y-1.7704
X5.5498Y-5.175
X5.5498Y-5.275
X5.55Y-3.45
X5.5504Y-4.049
X5.6002Y-1.6704
X5.6002Y-1.7704
X5.6498Y-5.175
X5.6498Y-5.275
X5.65Y-3.45
X5.6504Y-4.049
X5.7002Y-1.6704
X5.7002Y-1.7704
X5.7498Y-5.175
X5.7498Y-5.275
X5.75Y-3.45
X5.7504Y-4.049
X5.8002Y-1.6704
X5.8002Y-1.7704
X5.8498Y-5.175
X5.8498Y-5.275
X5.85Y-3.45
X5.8504Y-4.049
X5.9002Y-1.6704
X5.9002Y-1.7704
X5.9498Y-5.175
X5.9498Y-5.275
X6.0002Y-1.6704
X6.0002Y-1.7704
X6.0498Y-5.175
X6.0498Y-5.275
X6.1002Y-1.6704
X6.1002Y-1.7704
X6.1498Y-5.175
X6.1498Y-5.275
X6.2002Y-1.6704
X6.2002Y-1.7704
X6.2498Y-5.175
X6.2498Y-5.275
X6.3002Y-1.6704
X6.3002Y-1.7704
X6.3498Y-5.175
X6.3498Y-5.275
X6.4002Y-1.6704
X6.4002Y-1.7704
T5
X3.65Y-2.601
X3.65Y-2.999
X3.7169Y-2.701
X3.7169Y-3.099
T6
X3.9701Y-2.54
X3.9701Y-3.16
T0
M30
